M48
; DRILL file {KiCad 6.0.4-6f826c9f35~116~ubuntu20.04.1} date Kam 28 Apr 2022 09:27:56 
; FORMAT={-:-/ absolute / inch / decimal}
; #@! TF.CreationDate,2022-04-28T09:27:56+07:00
; #@! TF.GenerationSoftware,Kicad,Pcbnew,6.0.4-6f826c9f35~116~ubuntu20.04.1
; #@! TF.FileFunction,Plated,1,4,PTH
FMAT,2
INCH
; #@! TA.AperFunction,Plated,PTH,ViaDrill
T1C0.0079
; #@! TA.AperFunction,Plated,PTH,ComponentDrill
T2C0.0157
; #@! TA.AperFunction,Plated,PTH,ComponentDrill
T3C0.0295
; #@! TA.AperFunction,Plated,PTH,ComponentDrill
T4C0.0315
; #@! TA.AperFunction,Plated,PTH,ComponentDrill
T5C0.0591
; #@! TA.AperFunction,Plated,PTH,ComponentDrill
T6C0.0669
; #@! TA.AperFunction,Plated,PTH,ComponentDrill
T7C0.0866
%
G90
G05
T1
X4.2147Y-2.8529
X4.2169Y-3.1053
X4.2972Y-2.9205
X4.3209Y-3.1496
X4.3602Y-3.189
X4.4094Y-2.7657
X4.4094Y-3.2874
X4.498Y-3.2874
X4.5476Y-2.7
X4.5858Y-3.0669
X4.5858Y-3.1492
X4.6047Y-3.0169
X4.607Y-2.839
X4.639Y-3.195
X4.6398Y-3.2248
X4.6445Y-2.8945
X4.6457Y-2.7461
X4.688Y-2.7011
X4.689Y-2.671
X4.7358Y-2.7701
X4.738Y-3.197
X4.738Y-3.225
X4.788Y-2.671
X4.788Y-2.699
X4.8327Y-2.7461
X4.839Y-3.198
X4.839Y-3.225
X4.8886Y-3.1421
X4.8925Y-3.1953
X4.9224Y-2.9882
X4.9606Y-2.9031
X4.9799Y-3.0894
X4.9882Y-3.0059
X5.0252Y-2.9028
X5.0465Y-3.1972
X5.048Y-3.057
X5.084Y-2.838
X5.085Y-3.0008
X5.1083Y-2.9031
X5.3Y-2.5535
T2
X3.95Y-2.6386
X3.9504Y-3.2969
X3.969Y-2.5926
X3.969Y-2.6845
X3.9694Y-3.2509
X3.9694Y-3.3428
X4.015Y-2.5736
X4.015Y-2.7035
X4.0154Y-3.2319
X4.0154Y-3.3618
X4.0609Y-2.5926
X4.0609Y-2.6845
X4.0613Y-3.2509
X4.0613Y-3.3428
X4.0799Y-2.6386
X4.0803Y-3.2969
X5.3075Y-3.2969
X5.3098Y-2.6307
X5.3265Y-3.2509
X5.3265Y-3.3428
X5.3289Y-2.5848
X5.3289Y-2.6766
X5.3724Y-3.2319
X5.3724Y-3.3618
X5.3748Y-2.5657
X5.3748Y-2.6957
X5.4184Y-3.2509
X5.4184Y-3.3428
X5.4207Y-2.5848
X5.4207Y-2.6766
X5.4374Y-3.2969
X5.4398Y-2.6307
T3
X4.1018Y-2.8637
X4.1018Y-3.092
T5
X5.2725Y-2.949
T6
X5.1721Y-2.8486
X5.1721Y-3.0494
X5.3729Y-2.8486
X5.3729Y-3.0494
T7
X4.015Y-2.6386
X4.0154Y-3.2969
X5.3724Y-3.2969
X5.3748Y-2.6307
T4
G00X3.9679Y-2.8074
M15
G01X3.9443Y-2.8074
M16
G05
G00X3.9679Y-3.1483
M15
G01X3.9443Y-3.1483
M16
G05
G00X4.1372Y-2.8074
M15
G01X4.1057Y-2.8074
M16
G05
G00X4.1372Y-3.1483
M15
G01X4.1057Y-3.1483
M16
G05
T0
M30
