%TF.GenerationSoftware,KiCad,Pcbnew,6.0.4-6f826c9f35~116~ubuntu20.04.1*%
%TF.CreationDate,2022-04-28T09:27:56+07:00*%
%TF.ProjectId,W2AEWPulseGenerator,57324145-5750-4756-9c73-6547656e6572,rev?*%
%TF.SameCoordinates,Original*%
%TF.FileFunction,Copper,L1,Top*%
%TF.FilePolarity,Positive*%
%FSLAX46Y46*%
G04 Gerber Fmt 4.6, Leading zero omitted, Abs format (unit mm)*
G04 Created by KiCad (PCBNEW 6.0.4-6f826c9f35~116~ubuntu20.04.1) date 2022-04-28 09:27:56*
%MOMM*%
%LPD*%
G01*
G04 APERTURE LIST*
G04 Aperture macros list*
%AMRoundRect*
0 Rectangle with rounded corners*
0 $1 Rounding radius*
0 $2 $3 $4 $5 $6 $7 $8 $9 X,Y pos of 4 corners*
0 Add a 4 corners polygon primitive as box body*
4,1,4,$2,$3,$4,$5,$6,$7,$8,$9,$2,$3,0*
0 Add four circle primitives for the rounded corners*
1,1,$1+$1,$2,$3*
1,1,$1+$1,$4,$5*
1,1,$1+$1,$6,$7*
1,1,$1+$1,$8,$9*
0 Add four rect primitives between the rounded corners*
20,1,$1+$1,$2,$3,$4,$5,0*
20,1,$1+$1,$4,$5,$6,$7,0*
20,1,$1+$1,$6,$7,$8,$9,0*
20,1,$1+$1,$8,$9,$2,$3,0*%
G04 Aperture macros list end*
%TA.AperFunction,ComponentPad*%
%ADD10C,0.700000*%
%TD*%
%TA.AperFunction,ComponentPad*%
%ADD11C,4.400000*%
%TD*%
%TA.AperFunction,SMDPad,CuDef*%
%ADD12RoundRect,0.250000X-0.475000X0.250000X-0.475000X-0.250000X0.475000X-0.250000X0.475000X0.250000X0*%
%TD*%
%TA.AperFunction,SMDPad,CuDef*%
%ADD13R,1.100000X2.500000*%
%TD*%
%TA.AperFunction,SMDPad,CuDef*%
%ADD14R,3.600000X2.340000*%
%TD*%
%TA.AperFunction,SMDPad,CuDef*%
%ADD15RoundRect,0.135000X-0.185000X0.135000X-0.185000X-0.135000X0.185000X-0.135000X0.185000X0.135000X0*%
%TD*%
%TA.AperFunction,SMDPad,CuDef*%
%ADD16RoundRect,0.135000X0.185000X-0.135000X0.185000X0.135000X-0.185000X0.135000X-0.185000X-0.135000X0*%
%TD*%
%TA.AperFunction,ComponentPad*%
%ADD17C,2.300000*%
%TD*%
%TA.AperFunction,ComponentPad*%
%ADD18C,2.500000*%
%TD*%
%TA.AperFunction,SMDPad,CuDef*%
%ADD19RoundRect,0.140000X-0.140000X-0.170000X0.140000X-0.170000X0.140000X0.170000X-0.140000X0.170000X0*%
%TD*%
%TA.AperFunction,ComponentPad*%
%ADD20C,0.750000*%
%TD*%
%TA.AperFunction,ComponentPad*%
%ADD21O,2.000000X1.200000*%
%TD*%
%TA.AperFunction,ComponentPad*%
%ADD22O,1.800000X1.200000*%
%TD*%
%TA.AperFunction,SMDPad,CuDef*%
%ADD23R,1.300000X0.300000*%
%TD*%
%TA.AperFunction,SMDPad,CuDef*%
%ADD24RoundRect,0.250000X0.475000X-0.250000X0.475000X0.250000X-0.475000X0.250000X-0.475000X-0.250000X0*%
%TD*%
%TA.AperFunction,SMDPad,CuDef*%
%ADD25RoundRect,0.218750X-0.218750X-0.256250X0.218750X-0.256250X0.218750X0.256250X-0.218750X0.256250X0*%
%TD*%
%TA.AperFunction,SMDPad,CuDef*%
%ADD26RoundRect,0.135000X-0.135000X-0.185000X0.135000X-0.185000X0.135000X0.185000X-0.135000X0.185000X0*%
%TD*%
%TA.AperFunction,SMDPad,CuDef*%
%ADD27RoundRect,0.225000X-0.225000X-0.250000X0.225000X-0.250000X0.225000X0.250000X-0.225000X0.250000X0*%
%TD*%
%TA.AperFunction,SMDPad,CuDef*%
%ADD28O,0.570000X2.040000*%
%TD*%
%TA.AperFunction,ViaPad*%
%ADD29C,0.450000*%
%TD*%
%TA.AperFunction,Conductor*%
%ADD30C,0.400000*%
%TD*%
%TA.AperFunction,Conductor*%
%ADD31C,0.600000*%
%TD*%
%TA.AperFunction,Conductor*%
%ADD32C,0.205740*%
%TD*%
%TA.AperFunction,Conductor*%
%ADD33C,0.300000*%
%TD*%
G04 APERTURE END LIST*
D10*
%TO.P,H3,1,1*%
%TO.N,GND*%
X136460000Y-82090000D03*
X135293274Y-82573274D03*
X134810000Y-83740000D03*
D11*
X136460000Y-83740000D03*
D10*
X137626726Y-82573274D03*
X136460000Y-85390000D03*
X135293274Y-84906726D03*
X138110000Y-83740000D03*
X137626726Y-84906726D03*
%TD*%
%TO.P,H4,1,1*%
%TO.N,GND*%
X100823274Y-82573274D03*
X100823274Y-84906726D03*
X101990000Y-82090000D03*
X103156726Y-84906726D03*
X101990000Y-85390000D03*
X103640000Y-83740000D03*
X100340000Y-83740000D03*
D11*
X101990000Y-83740000D03*
D10*
X103156726Y-82573274D03*
%TD*%
D12*
%TO.P,C4,1*%
%TO.N,/VIN*%
X114250000Y-80250000D03*
%TO.P,C4,2*%
%TO.N,GND*%
X114250000Y-82150000D03*
%TD*%
D13*
%TO.P,U2,1,GND/ADJ*%
%TO.N,GND*%
X109700000Y-77970000D03*
%TO.P,U2,2,Vout*%
%TO.N,VCC*%
X112000000Y-77970000D03*
%TO.P,U2,3,Vin*%
%TO.N,/VIN*%
X114300000Y-77970000D03*
D14*
%TO.P,U2,4,Vout*%
%TO.N,VCC*%
X112000000Y-72030000D03*
%TD*%
D15*
%TO.P,R6,1*%
%TO.N,Net-(R6-Pad1)*%
X117830600Y-79373000D03*
%TO.P,R6,2*%
%TO.N,/OUT*%
X117830600Y-80393000D03*
%TD*%
D16*
%TO.P,R7,1*%
%TO.N,/VIN*%
X108730000Y-72230000D03*
%TO.P,R7,2*%
%TO.N,Net-(D1-Pad2)*%
X108730000Y-71210000D03*
%TD*%
D17*
%TO.P,X1,1,1*%
%TO.N,/OUT*%
X133921150Y-74904600D03*
D18*
%TO.P,X1,2,2*%
%TO.N,GND*%
X131371250Y-72354700D03*
%TO.P,X1,3,2*%
X136471050Y-72354700D03*
%TO.P,X1,4,2*%
X136471050Y-77454500D03*
%TO.P,X1,5,2*%
X131371250Y-77454500D03*
%TD*%
D19*
%TO.P,C2,1*%
%TO.N,VCC*%
X126494600Y-77647800D03*
%TO.P,C2,2*%
%TO.N,GND*%
X127454600Y-77647800D03*
%TD*%
D15*
%TO.P,R4,1*%
%TO.N,Net-(R4-Pad1)*%
X122910600Y-79347600D03*
%TO.P,R4,2*%
%TO.N,/OUT*%
X122910600Y-80367600D03*
%TD*%
D16*
%TO.P,R3,1*%
%TO.N,Net-(R3-Pad1)*%
X119075200Y-70387400D03*
%TO.P,R3,2*%
%TO.N,/OUT*%
X119075200Y-69367400D03*
%TD*%
D20*
%TO.P,USBC1,*%
%TO.N,*%
X104184600Y-72737900D03*
X104184600Y-78537900D03*
D21*
%TO.P,USBC1,0,0*%
%TO.N,GND*%
X104684600Y-71307900D03*
D22*
X100484600Y-79967900D03*
D21*
X104684600Y-79967900D03*
D22*
X100484600Y-71307900D03*
D23*
%TO.P,USBC1,A1,GND*%
X105444600Y-72287900D03*
%TO.P,USBC1,A4,VBUS*%
%TO.N,/VIN*%
X105444600Y-73087900D03*
%TO.P,USBC1,A5,CC1*%
%TO.N,unconnected-(USBC1-PadA5)*%
X105444600Y-74387900D03*
%TO.P,USBC1,A6,DP1*%
%TO.N,unconnected-(USBC1-PadA6)*%
X105444600Y-75387900D03*
%TO.P,USBC1,A7,DN1*%
%TO.N,unconnected-(USBC1-PadA7)*%
X105444600Y-75887900D03*
%TO.P,USBC1,A8,SBU1*%
%TO.N,unconnected-(USBC1-PadA8)*%
X105444600Y-76887900D03*
%TO.P,USBC1,A9,VBUS*%
%TO.N,/VIN*%
X105444600Y-78187900D03*
%TO.P,USBC1,A12,GND*%
%TO.N,GND*%
X105444600Y-78987900D03*
%TO.P,USBC1,B1,GND*%
X105444600Y-78687900D03*
%TO.P,USBC1,B4,VBUS*%
%TO.N,/VIN*%
X105444600Y-77887900D03*
%TO.P,USBC1,B5,CC2*%
%TO.N,unconnected-(USBC1-PadB5)*%
X105444600Y-77387900D03*
%TO.P,USBC1,B6,DP2*%
%TO.N,unconnected-(USBC1-PadB6)*%
X105444600Y-76387900D03*
%TO.P,USBC1,B7,DN2*%
%TO.N,unconnected-(USBC1-PadB7)*%
X105444600Y-74887900D03*
%TO.P,USBC1,B8,SBU2*%
%TO.N,unconnected-(USBC1-PadB8)*%
X105444600Y-73887900D03*
%TO.P,USBC1,B9,VBUS*%
%TO.N,/VIN*%
X105444600Y-73387900D03*
%TO.P,USBC1,B12,GND*%
%TO.N,GND*%
X105444600Y-72587900D03*
%TD*%
D24*
%TO.P,C3,1*%
%TO.N,GND*%
X112000000Y-82200000D03*
%TO.P,C3,2*%
%TO.N,VCC*%
X112000000Y-80300000D03*
%TD*%
D16*
%TO.P,R2,1*%
%TO.N,Net-(R2-Pad1)*%
X121615200Y-70385400D03*
%TO.P,R2,2*%
%TO.N,/OUT*%
X121615200Y-69365400D03*
%TD*%
D15*
%TO.P,R5,1*%
%TO.N,Net-(R5-Pad1)*%
X120345200Y-79373000D03*
%TO.P,R5,2*%
%TO.N,/OUT*%
X120345200Y-80393000D03*
%TD*%
D10*
%TO.P,H2,1,1*%
%TO.N,GND*%
X103630000Y-67020000D03*
X101980000Y-68670000D03*
X100813274Y-68186726D03*
X100330000Y-67020000D03*
X101980000Y-65370000D03*
X103146726Y-68186726D03*
X103146726Y-65853274D03*
D11*
X101980000Y-67020000D03*
D10*
X100813274Y-65853274D03*
%TD*%
D25*
%TO.P,D1,1,K*%
%TO.N,GND*%
X107182500Y-69710000D03*
%TO.P,D1,2,A*%
%TO.N,Net-(D1-Pad2)*%
X108757500Y-69710000D03*
%TD*%
D26*
%TO.P,R1,1*%
%TO.N,/OSC_OUT*%
X124305600Y-70358000D03*
%TO.P,R1,2*%
%TO.N,Net-(C1-Pad1)*%
X125325600Y-70358000D03*
%TD*%
D11*
%TO.P,H1,1,1*%
%TO.N,GND*%
X136520000Y-66820000D03*
D10*
X136520000Y-68470000D03*
X138170000Y-66820000D03*
X134870000Y-66820000D03*
X137686726Y-65653274D03*
X135353274Y-67986726D03*
X137686726Y-67986726D03*
X135353274Y-65653274D03*
X136520000Y-65170000D03*
%TD*%
D27*
%TO.P,C1,1*%
%TO.N,Net-(C1-Pad1)*%
X126631400Y-72085200D03*
%TO.P,C1,2*%
%TO.N,GND*%
X128181400Y-72085200D03*
%TD*%
D28*
%TO.P,U1,1,1A*%
%TO.N,Net-(C1-Pad1)*%
X125425200Y-72109200D03*
%TO.P,U1,2,1Y*%
%TO.N,/OSC_OUT*%
X124155200Y-72109200D03*
%TO.P,U1,3,2A*%
X122885200Y-72109200D03*
%TO.P,U1,4,2Y*%
%TO.N,Net-(R2-Pad1)*%
X121615200Y-72109200D03*
%TO.P,U1,5,3A*%
%TO.N,/OSC_OUT*%
X120345200Y-72109200D03*
%TO.P,U1,6,3Y*%
%TO.N,Net-(R3-Pad1)*%
X119075200Y-72109200D03*
%TO.P,U1,7,GND*%
%TO.N,GND*%
X117805200Y-72109200D03*
%TO.P,U1,8,4Y*%
%TO.N,Net-(R6-Pad1)*%
X117805200Y-77649200D03*
%TO.P,U1,9,4A*%
%TO.N,/OSC_OUT*%
X119075200Y-77649200D03*
%TO.P,U1,10,5Y*%
%TO.N,Net-(R5-Pad1)*%
X120345200Y-77649200D03*
%TO.P,U1,11,5A*%
%TO.N,/OSC_OUT*%
X121615200Y-77649200D03*
%TO.P,U1,12,6Y*%
%TO.N,Net-(R4-Pad1)*%
X122885200Y-77649200D03*
%TO.P,U1,13,6A*%
%TO.N,/OSC_OUT*%
X124155200Y-77649200D03*
%TO.P,U1,14,VCC*%
%TO.N,VCC*%
X125425200Y-77649200D03*
%TD*%
D29*
%TO.N,VCC*%
X126490000Y-78470000D03*
X110750000Y-81000000D03*
X112000000Y-70250000D03*
%TO.N,GND*%
X116960000Y-76630000D03*
X134620000Y-64860000D03*
X124270000Y-81160000D03*
X120345200Y-81915000D03*
X112000000Y-83500000D03*
X127640000Y-73730000D03*
X119100600Y-67843400D03*
X122910600Y-81915000D03*
X116480000Y-77900000D03*
X128180000Y-81210000D03*
X114250000Y-83500000D03*
X122750000Y-69750000D03*
X116480000Y-79990000D03*
X117017800Y-72110600D03*
X115510000Y-68580000D03*
X129133600Y-72085200D03*
X118000000Y-69750000D03*
X117850000Y-81910000D03*
X107054000Y-72462900D03*
X128219200Y-77647800D03*
X107109400Y-78875000D03*
X109750000Y-80000000D03*
X109150000Y-74180000D03*
X129750000Y-73740000D03*
X120290000Y-70360000D03*
X126000000Y-73740000D03*
X121615200Y-67843400D03*
X117970000Y-73520000D03*
X126700000Y-76350000D03*
X129160000Y-76220000D03*
X124170000Y-79810000D03*
X125030000Y-75900000D03*
%TO.N,/OUT*%
X119075200Y-68607400D03*
X120345200Y-81203800D03*
X117830600Y-81153000D03*
X122910600Y-81229200D03*
X121615200Y-68555600D03*
%TD*%
D30*
%TO.N,VCC*%
X126494600Y-77647800D02*
X126494600Y-78465400D01*
X126494600Y-78465400D02*
X126490000Y-78470000D01*
D31*
X112000000Y-80300000D02*
X111450000Y-80300000D01*
X112000000Y-72030000D02*
X112000000Y-70250000D01*
D30*
X125425200Y-77649200D02*
X126494600Y-77647800D01*
D31*
X112000000Y-77970000D02*
X112000000Y-80300000D01*
X111450000Y-80300000D02*
X110750000Y-81000000D01*
D32*
%TO.N,/OSC_OUT*%
X122750000Y-75000000D02*
X123800000Y-75000000D01*
X124000000Y-74800000D02*
X124155200Y-74555200D01*
X121600000Y-74600000D02*
X122175000Y-74650000D01*
X119075200Y-76324800D02*
X121600000Y-74600000D01*
X124155200Y-74555200D02*
X124155200Y-72109200D01*
X122175000Y-74650000D02*
X122750000Y-75000000D01*
X121600000Y-74400000D02*
X121600000Y-74600000D01*
X121915200Y-75884800D02*
X122244976Y-75884800D01*
X122244976Y-76484800D02*
X121915200Y-76484800D01*
X124155200Y-76355200D02*
X124155200Y-77649200D01*
X120350898Y-74697629D02*
X120350899Y-74697629D01*
X120345200Y-72109200D02*
X120345200Y-73345200D01*
X121645405Y-74354595D02*
X121600000Y-74400000D01*
X121615200Y-76788419D02*
X121615200Y-77649200D01*
X122600000Y-73824266D02*
X122599999Y-73824266D01*
X120600000Y-74024264D02*
X120350899Y-74273364D01*
X120775163Y-74697629D02*
X121024263Y-74448528D01*
X122885200Y-73114800D02*
X122600000Y-73400000D01*
X121751472Y-74248531D02*
X121751471Y-74248530D01*
X121615200Y-76784800D02*
X121615200Y-76788419D01*
X120599999Y-74024265D02*
X120600000Y-74024264D01*
X123800000Y-75000000D02*
X124000000Y-74800000D01*
X120775164Y-74697628D02*
X120775163Y-74697629D01*
X121751471Y-74248530D02*
X121645405Y-74354595D01*
D30*
X121656179Y-77150413D02*
X121656181Y-77150415D01*
X124155200Y-71399400D02*
X124305600Y-70358000D01*
D32*
X121600000Y-74600000D02*
X124155200Y-76355200D01*
X119075200Y-77649200D02*
X119075200Y-76324800D01*
X121615200Y-74615200D02*
X121615200Y-75584800D01*
X121448528Y-74448527D02*
X121448528Y-74448528D01*
X122422068Y-74494863D02*
X122175736Y-74248531D01*
X122599999Y-73824266D02*
X122846332Y-74070599D01*
X120345200Y-73345200D02*
X120600000Y-73600000D01*
X122885200Y-72109200D02*
X122885200Y-73114800D01*
X121448528Y-74448528D02*
X121600000Y-74600000D01*
D30*
X124155200Y-72109200D02*
X124155200Y-71399400D01*
X121641568Y-77328274D02*
X121615200Y-77649200D01*
X121656181Y-77150415D02*
X121641568Y-77328274D01*
D32*
X121600000Y-74600000D02*
X121615200Y-74615200D01*
X121448531Y-74448524D02*
G75*
G03*
X121024264Y-74448529I-212131J-212176D01*
G01*
X122846301Y-74494832D02*
G75*
G03*
X122846332Y-74070599I-212101J212132D01*
G01*
X121915200Y-75884800D02*
G75*
G02*
X121615200Y-75584800I0J300000D01*
G01*
X122545000Y-76184800D02*
G75*
G03*
X122244976Y-75884800I-300000J0D01*
G01*
X122600033Y-73824232D02*
G75*
G02*
X122600000Y-73400000I212067J212132D01*
G01*
X121751473Y-74248532D02*
G75*
G02*
X122175735Y-74248532I212131J-212131D01*
G01*
X122244976Y-76484776D02*
G75*
G03*
X122544976Y-76184800I24J299976D01*
G01*
X122422069Y-74494862D02*
G75*
G03*
X122846331Y-74494862I212131J212131D01*
G01*
X120350896Y-74697631D02*
G75*
G02*
X120350900Y-74273365I212104J212131D01*
G01*
X120599967Y-74024232D02*
G75*
G03*
X120600000Y-73600000I-212067J212132D01*
G01*
X120775132Y-74697596D02*
G75*
G02*
X120350900Y-74697628I-212132J212096D01*
G01*
X121615200Y-76784800D02*
G75*
G02*
X121915200Y-76484800I300000J0D01*
G01*
D30*
%TO.N,GND*%
X127454600Y-77647800D02*
X128219200Y-77647800D01*
D31*
X114250000Y-82150000D02*
X114250000Y-83500000D01*
X109700000Y-77970000D02*
X109700000Y-79950000D01*
X112000000Y-82200000D02*
X112000000Y-83500000D01*
D30*
X117805200Y-72109200D02*
X117017800Y-72110600D01*
X107054000Y-72462900D02*
X107054000Y-72234300D01*
D31*
X109700000Y-79950000D02*
X109750000Y-80000000D01*
D30*
X106774600Y-72361300D02*
X105444600Y-72287900D01*
D31*
X128181400Y-72085200D02*
X129133600Y-72085200D01*
D30*
X107141500Y-78875000D02*
X107714400Y-79447900D01*
X105625000Y-79003300D02*
X107109400Y-78875000D01*
X105444600Y-72587900D02*
X107054000Y-72462900D01*
X107054000Y-72234300D02*
X107409600Y-71878700D01*
X107054000Y-72462900D02*
X106774600Y-72361300D01*
X107109400Y-78875000D02*
X107141500Y-78875000D01*
X106955000Y-78776700D02*
X105625000Y-78703300D01*
%TO.N,Net-(R2-Pad1)*%
X121615200Y-72109200D02*
X121615200Y-70385400D01*
%TO.N,/OUT*%
X117830600Y-80393000D02*
X117830600Y-81153000D01*
X121615200Y-69315600D02*
X121615200Y-68555600D01*
X119075200Y-69367400D02*
X119075200Y-68607400D01*
X120345200Y-80443800D02*
X120345200Y-81203800D01*
X122910600Y-80469200D02*
X122910600Y-81229200D01*
%TO.N,Net-(R3-Pad1)*%
X119075200Y-72109200D02*
X119075200Y-70387400D01*
%TO.N,Net-(R4-Pad1)*%
X122885200Y-77649200D02*
X122910600Y-79347600D01*
%TO.N,Net-(R5-Pad1)*%
X120345200Y-77649200D02*
X120345200Y-79373000D01*
%TO.N,Net-(R6-Pad1)*%
X117805200Y-77649200D02*
X117830600Y-79373000D01*
%TO.N,Net-(C1-Pad1)*%
X125425200Y-71069200D02*
X125425200Y-72109200D01*
X125325600Y-70358000D02*
X125425200Y-71069200D01*
D31*
X125425200Y-72109200D02*
X126631400Y-72085200D01*
D33*
%TO.N,Net-(D1-Pad2)*%
X108730000Y-69737500D02*
X108757500Y-69710000D01*
X108730000Y-71210000D02*
X108730000Y-69737500D01*
D31*
%TO.N,/VIN*%
X114300000Y-77970000D02*
X114300000Y-80050000D01*
D30*
X107000000Y-77990000D02*
X106825400Y-77974700D01*
D32*
X106825400Y-77974700D02*
X106780100Y-78020000D01*
D30*
X106800000Y-73310000D02*
X106730000Y-73190000D01*
D33*
X107650000Y-73310000D02*
X106800000Y-73310000D01*
D32*
X106730000Y-73190000D02*
X106688400Y-73087900D01*
D31*
X107104800Y-76145200D02*
X107750000Y-75500000D01*
X107054000Y-74804000D02*
X107750000Y-75500000D01*
X107000000Y-77990000D02*
X107104800Y-76145200D01*
D32*
X106688400Y-73087900D02*
X105444600Y-73087900D01*
D31*
X106800000Y-73310000D02*
X107054000Y-74804000D01*
D32*
X106708700Y-73240000D02*
X106100000Y-73240000D01*
D33*
X108730000Y-72230000D02*
X107650000Y-73310000D01*
D32*
X105444600Y-73387900D02*
X106941800Y-73387900D01*
X106780100Y-78020000D02*
X106130000Y-78020000D01*
X105444600Y-77887900D02*
X106738600Y-77887900D01*
D31*
X114300000Y-77270000D02*
X112530000Y-75500000D01*
D32*
X106738600Y-77887900D02*
X106825400Y-77974700D01*
X107000000Y-77990000D02*
X106993200Y-78187900D01*
X106730000Y-73190000D02*
X106708700Y-73240000D01*
D31*
X114300000Y-77970000D02*
X114300000Y-77270000D01*
D32*
X106993200Y-78187900D02*
X105444600Y-78187900D01*
D31*
X112530000Y-75500000D02*
X107750000Y-75500000D01*
%TD*%
%TA.AperFunction,Conductor*%
%TO.N,GND*%
G36*
X134772238Y-64542160D02*
G01*
X134818731Y-64595816D01*
X134828835Y-64666090D01*
X134806069Y-64722197D01*
X134797917Y-64733423D01*
X134804520Y-64745309D01*
X136520000Y-66460790D01*
X138593287Y-68534076D01*
X138606407Y-68541240D01*
X138616710Y-68533850D01*
X138668343Y-68470428D01*
X138726863Y-68430229D01*
X138797826Y-68428049D01*
X138858702Y-68464581D01*
X138890164Y-68528226D01*
X138892056Y-68549978D01*
X138892056Y-82088550D01*
X138872054Y-82156671D01*
X138818398Y-82203164D01*
X138748124Y-82213268D01*
X138683544Y-82183774D01*
X138666699Y-82166037D01*
X138557991Y-82026647D01*
X138546199Y-82018178D01*
X138534486Y-82024725D01*
X136460000Y-84099210D01*
X134745816Y-85813395D01*
X134738703Y-85826422D01*
X134746229Y-85836855D01*
X134852451Y-85922414D01*
X134892956Y-85980722D01*
X134895506Y-86051673D01*
X134859293Y-86112740D01*
X134795814Y-86144534D01*
X134773413Y-86146541D01*
X103672807Y-86146541D01*
X103604686Y-86126539D01*
X103558193Y-86072883D01*
X103548089Y-86002609D01*
X103577583Y-85938029D01*
X103596890Y-85919979D01*
X103704305Y-85838889D01*
X103712761Y-85827496D01*
X103706045Y-85815256D01*
X101631921Y-83741131D01*
X102354408Y-83741131D01*
X102354539Y-83742966D01*
X102358790Y-83749580D01*
X104063285Y-85454074D01*
X104076408Y-85461240D01*
X104086709Y-85453851D01*
X104190751Y-85326055D01*
X104195164Y-85319914D01*
X104365349Y-85050187D01*
X104369005Y-85043536D01*
X104505544Y-84755335D01*
X104508375Y-84748295D01*
X104609306Y-84445767D01*
X104611270Y-84438433D01*
X104675122Y-84125989D01*
X104676194Y-84118465D01*
X104702173Y-83799051D01*
X104702378Y-83794576D01*
X104702927Y-83742221D01*
X104702817Y-83737789D01*
X104701466Y-83715383D01*
X133747388Y-83715383D01*
X133763245Y-84033914D01*
X133764076Y-84041443D01*
X133818085Y-84355759D01*
X133819818Y-84363146D01*
X133911196Y-84668695D01*
X133913799Y-84675808D01*
X134041227Y-84968173D01*
X134044669Y-84974929D01*
X134206296Y-85249865D01*
X134210519Y-85256150D01*
X134361463Y-85453934D01*
X134372989Y-85462396D01*
X134385054Y-85455735D01*
X136087980Y-83752810D01*
X136095592Y-83738869D01*
X136095461Y-83737034D01*
X136091210Y-83730420D01*
X134386445Y-82025656D01*
X134373510Y-82018592D01*
X134362949Y-82026252D01*
X134242766Y-82177072D01*
X134238410Y-82183270D01*
X134071059Y-82454764D01*
X134067479Y-82461440D01*
X133933956Y-82751074D01*
X133931206Y-82758125D01*
X133833444Y-83061708D01*
X133831561Y-83069041D01*
X133770979Y-83382170D01*
X133769992Y-83389670D01*
X133747467Y-83707802D01*
X133747388Y-83715383D01*
X104701466Y-83715383D01*
X104683529Y-83417853D01*
X104682621Y-83410351D01*
X104625319Y-83096593D01*
X104623518Y-83089260D01*
X104528935Y-82784655D01*
X104526263Y-82777583D01*
X104400500Y-82497095D01*
X110767001Y-82497095D01*
X110767338Y-82503614D01*
X110777257Y-82599206D01*
X110780149Y-82612600D01*
X110831588Y-82766784D01*
X110837761Y-82779962D01*
X110923063Y-82917807D01*
X110932099Y-82929208D01*
X111046829Y-83043739D01*
X111058240Y-83052751D01*
X111196243Y-83137816D01*
X111209424Y-83143963D01*
X111363710Y-83195138D01*
X111377086Y-83198005D01*
X111471438Y-83207672D01*
X111477854Y-83208000D01*
X111727885Y-83208000D01*
X111743124Y-83203525D01*
X111744329Y-83202135D01*
X111746000Y-83194452D01*
X111746000Y-83189884D01*
X112254000Y-83189884D01*
X112258475Y-83205123D01*
X112259865Y-83206328D01*
X112267548Y-83207999D01*
X112522095Y-83207999D01*
X112528614Y-83207662D01*
X112624206Y-83197743D01*
X112637600Y-83194851D01*
X112791784Y-83143412D01*
X112804962Y-83137239D01*
X112942807Y-83051937D01*
X112954208Y-83042901D01*
X113060784Y-82936140D01*
X113123067Y-82902061D01*
X113193887Y-82907064D01*
X113238975Y-82935985D01*
X113296829Y-82993739D01*
X113308240Y-83002751D01*
X113446243Y-83087816D01*
X113459424Y-83093963D01*
X113613710Y-83145138D01*
X113627086Y-83148005D01*
X113721438Y-83157672D01*
X113727854Y-83158000D01*
X113977885Y-83158000D01*
X113993124Y-83153525D01*
X113994329Y-83152135D01*
X113996000Y-83144452D01*
X113996000Y-83139884D01*
X114504000Y-83139884D01*
X114508475Y-83155123D01*
X114509865Y-83156328D01*
X114517548Y-83157999D01*
X114772095Y-83157999D01*
X114778614Y-83157662D01*
X114874206Y-83147743D01*
X114887600Y-83144851D01*
X115041784Y-83093412D01*
X115054962Y-83087239D01*
X115192807Y-83001937D01*
X115204208Y-82992901D01*
X115318739Y-82878171D01*
X115327751Y-82866760D01*
X115412816Y-82728757D01*
X115418963Y-82715576D01*
X115470138Y-82561290D01*
X115473005Y-82547914D01*
X115482672Y-82453562D01*
X115483000Y-82447146D01*
X115483000Y-82422115D01*
X115478525Y-82406876D01*
X115477135Y-82405671D01*
X115469452Y-82404000D01*
X114522115Y-82404000D01*
X114506876Y-82408475D01*
X114505671Y-82409865D01*
X114504000Y-82417548D01*
X114504000Y-83139884D01*
X113996000Y-83139884D01*
X113996000Y-82422115D01*
X113991525Y-82406876D01*
X113990135Y-82405671D01*
X113982452Y-82404000D01*
X113291115Y-82404000D01*
X113275876Y-82408474D01*
X113274111Y-82410512D01*
X113214385Y-82448896D01*
X113178886Y-82454000D01*
X112272115Y-82454000D01*
X112256876Y-82458475D01*
X112255671Y-82459865D01*
X112254000Y-82467548D01*
X112254000Y-83189884D01*
X111746000Y-83189884D01*
X111746000Y-82472115D01*
X111741525Y-82456876D01*
X111740135Y-82455671D01*
X111732452Y-82454000D01*
X110785116Y-82454000D01*
X110769877Y-82458475D01*
X110768672Y-82459865D01*
X110767001Y-82467548D01*
X110767001Y-82497095D01*
X104400500Y-82497095D01*
X104395781Y-82486570D01*
X104392264Y-82479843D01*
X104227771Y-82206621D01*
X104223481Y-82200377D01*
X104087991Y-82026647D01*
X104076199Y-82018178D01*
X104064486Y-82024725D01*
X102362020Y-83727190D01*
X102354408Y-83741131D01*
X101631921Y-83741131D01*
X101630790Y-83740000D01*
X99916443Y-82025654D01*
X99903511Y-82018592D01*
X99892948Y-82026253D01*
X99772766Y-82177072D01*
X99768407Y-82183275D01*
X99752268Y-82209456D01*
X99699496Y-82256949D01*
X99629424Y-82268371D01*
X99564301Y-82240097D01*
X99524801Y-82181103D01*
X99519009Y-82143339D01*
X99519009Y-81653423D01*
X100267917Y-81653423D01*
X100274520Y-81665309D01*
X101977190Y-83367980D01*
X101991131Y-83375592D01*
X101992966Y-83375461D01*
X101999580Y-83371210D01*
X103704559Y-81666230D01*
X103711571Y-81653389D01*
X103703777Y-81642701D01*
X103541298Y-81514613D01*
X103535075Y-81510288D01*
X103262702Y-81344357D01*
X103256025Y-81340822D01*
X102965686Y-81208813D01*
X102958616Y-81206099D01*
X102654537Y-81109932D01*
X102647186Y-81108085D01*
X102333746Y-81049142D01*
X102326237Y-81048194D01*
X102007989Y-81027335D01*
X102000424Y-81027295D01*
X101681964Y-81044821D01*
X101674451Y-81045690D01*
X101565547Y-81064991D01*
X101494981Y-81057183D01*
X101439838Y-81012464D01*
X101417626Y-80945032D01*
X101435397Y-80876295D01*
X101465726Y-80841838D01*
X101547456Y-80777638D01*
X101556106Y-80769401D01*
X101686812Y-80618777D01*
X101693747Y-80609053D01*
X101793610Y-80436433D01*
X101798584Y-80425569D01*
X101864007Y-80237173D01*
X101864248Y-80236184D01*
X101864122Y-80235299D01*
X103209312Y-80235299D01*
X103230794Y-80324437D01*
X103234683Y-80335732D01*
X103317229Y-80517282D01*
X103323176Y-80527624D01*
X103438568Y-80690297D01*
X103446361Y-80699325D01*
X103590431Y-80837242D01*
X103599796Y-80844638D01*
X103767341Y-80952821D01*
X103777945Y-80958317D01*
X103962912Y-81032861D01*
X103974370Y-81036255D01*
X104171528Y-81074757D01*
X104180391Y-81075834D01*
X104183100Y-81075900D01*
X104412485Y-81075900D01*
X104427724Y-81071425D01*
X104428929Y-81070035D01*
X104430600Y-81062352D01*
X104430600Y-81057785D01*
X104938600Y-81057785D01*
X104943075Y-81073024D01*
X104944465Y-81074229D01*
X104952148Y-81075900D01*
X105134432Y-81075900D01*
X105140408Y-81075615D01*
X105289094Y-81061429D01*
X105300828Y-81059170D01*
X105492199Y-81003028D01*
X105503275Y-80998598D01*
X105680578Y-80907281D01*
X105690624Y-80900831D01*
X105847457Y-80777638D01*
X105856106Y-80769401D01*
X105986812Y-80618777D01*
X105993747Y-80609053D01*
X106093610Y-80436433D01*
X106098584Y-80425569D01*
X106164007Y-80237173D01*
X106164248Y-80236184D01*
X106162780Y-80225892D01*
X106149215Y-80221900D01*
X104956715Y-80221900D01*
X104941476Y-80226375D01*
X104940271Y-80227765D01*
X104938600Y-80235448D01*
X104938600Y-81057785D01*
X104430600Y-81057785D01*
X104430600Y-80240015D01*
X104426125Y-80224776D01*
X104424735Y-80223571D01*
X104417052Y-80221900D01*
X103224198Y-80221900D01*
X103210667Y-80225873D01*
X103209312Y-80235299D01*
X101864122Y-80235299D01*
X101862780Y-80225892D01*
X101849215Y-80221900D01*
X100756715Y-80221900D01*
X100741476Y-80226375D01*
X100740271Y-80227765D01*
X100738600Y-80235448D01*
X100738600Y-81057785D01*
X100743075Y-81073024D01*
X100744465Y-81074229D01*
X100754322Y-81076373D01*
X100816635Y-81110398D01*
X100850660Y-81172710D01*
X100845596Y-81243526D01*
X100803050Y-81300362D01*
X100778488Y-81314734D01*
X100749176Y-81327693D01*
X100742445Y-81331167D01*
X100468355Y-81494233D01*
X100462091Y-81498490D01*
X100276385Y-81641762D01*
X100267917Y-81653423D01*
X99519009Y-81653423D01*
X99519009Y-81080891D01*
X99539011Y-81012770D01*
X99592667Y-80966277D01*
X99662941Y-80956173D01*
X99692107Y-80964025D01*
X99862911Y-81032861D01*
X99874370Y-81036255D01*
X100071528Y-81074757D01*
X100080391Y-81075834D01*
X100083100Y-81075900D01*
X100212485Y-81075900D01*
X100227724Y-81071425D01*
X100228929Y-81070035D01*
X100230600Y-81062352D01*
X100230600Y-79695785D01*
X100738600Y-79695785D01*
X100743075Y-79711024D01*
X100744465Y-79712229D01*
X100752148Y-79713900D01*
X101845002Y-79713900D01*
X101858533Y-79709927D01*
X101859888Y-79700501D01*
X101859675Y-79699616D01*
X103204952Y-79699616D01*
X103206420Y-79709908D01*
X103219985Y-79713900D01*
X104412485Y-79713900D01*
X104427724Y-79709425D01*
X104428929Y-79708035D01*
X104430600Y-79700352D01*
X104430600Y-79468553D01*
X104450602Y-79400432D01*
X104505351Y-79353446D01*
X104618731Y-79302966D01*
X104618733Y-79302965D01*
X104624761Y-79300281D01*
X104639786Y-79289365D01*
X104738539Y-79217617D01*
X104805407Y-79193758D01*
X104874559Y-79209839D01*
X104924039Y-79260753D01*
X104938600Y-79319553D01*
X104938600Y-79695785D01*
X104943075Y-79711024D01*
X104944465Y-79712229D01*
X104952148Y-79713900D01*
X106145003Y-79713900D01*
X106160242Y-79709425D01*
X106168617Y-79699760D01*
X106185527Y-79662732D01*
X106236521Y-79627263D01*
X106332654Y-79591224D01*
X106348249Y-79582686D01*
X106450324Y-79506185D01*
X106462885Y-79493624D01*
X106539386Y-79391549D01*
X106547924Y-79375954D01*
X106589643Y-79264669D01*
X108642001Y-79264669D01*
X108642371Y-79271490D01*
X108647895Y-79322352D01*
X108651521Y-79337604D01*
X108696676Y-79458054D01*
X108705214Y-79473649D01*
X108781715Y-79575724D01*
X108794276Y-79588285D01*
X108896351Y-79664786D01*
X108911946Y-79673324D01*
X109032394Y-79718478D01*
X109047649Y-79722105D01*
X109098514Y-79727631D01*
X109105328Y-79728000D01*
X109427885Y-79728000D01*
X109443124Y-79723525D01*
X109444329Y-79722135D01*
X109446000Y-79714452D01*
X109446000Y-78242115D01*
X109441525Y-78226876D01*
X109440135Y-78225671D01*
X109432452Y-78224000D01*
X108660116Y-78224000D01*
X108644877Y-78228475D01*
X108643672Y-78229865D01*
X108642001Y-78237548D01*
X108642001Y-79264669D01*
X106589643Y-79264669D01*
X106593078Y-79255506D01*
X106596705Y-79240251D01*
X106602231Y-79189386D01*
X106602600Y-79182572D01*
X106602600Y-79156015D01*
X106598125Y-79140776D01*
X106596735Y-79139571D01*
X106589052Y-79137900D01*
X105612715Y-79137900D01*
X105597476Y-79142375D01*
X105596271Y-79143765D01*
X105594600Y-79151448D01*
X105594600Y-79259900D01*
X105574598Y-79328021D01*
X105520942Y-79374514D01*
X105468600Y-79385900D01*
X105420600Y-79385900D01*
X105352479Y-79365898D01*
X105305986Y-79312242D01*
X105294600Y-79259900D01*
X105294600Y-78964400D01*
X105314602Y-78896279D01*
X105368258Y-78849786D01*
X105420600Y-78838400D01*
X106132666Y-78838399D01*
X106141976Y-78838399D01*
X106145042Y-78838066D01*
X106151188Y-78837900D01*
X106584485Y-78837900D01*
X106601415Y-78832929D01*
X106658295Y-78796374D01*
X106693794Y-78791270D01*
X106922616Y-78791270D01*
X106934727Y-78792335D01*
X106934732Y-78792251D01*
X106941762Y-78792700D01*
X106948697Y-78793929D01*
X106954450Y-78793653D01*
X106964020Y-78794753D01*
X106964149Y-78794757D01*
X106972301Y-78796117D01*
X107016283Y-78791857D01*
X107028431Y-78791270D01*
X107032743Y-78791270D01*
X107036821Y-78790733D01*
X107036822Y-78790733D01*
X107037822Y-78790601D01*
X107044013Y-78789786D01*
X107054408Y-78788854D01*
X107072127Y-78788004D01*
X107121048Y-78785656D01*
X107121052Y-78785655D01*
X107128081Y-78785318D01*
X107301100Y-78737177D01*
X107307295Y-78733835D01*
X107307299Y-78733833D01*
X107452954Y-78655246D01*
X107452957Y-78655244D01*
X107459153Y-78651901D01*
X107594386Y-78533728D01*
X107651774Y-78454889D01*
X107695932Y-78394226D01*
X107695934Y-78394223D01*
X107700077Y-78388531D01*
X107770974Y-78223525D01*
X107796335Y-78086037D01*
X107798215Y-78052955D01*
X107883972Y-76543353D01*
X107907805Y-76476476D01*
X107920674Y-76461404D01*
X108044673Y-76337405D01*
X108106985Y-76303379D01*
X108133768Y-76300500D01*
X108583383Y-76300500D01*
X108651504Y-76320502D01*
X108697997Y-76374158D01*
X108708101Y-76444432D01*
X108698556Y-76473061D01*
X108699828Y-76473538D01*
X108651522Y-76602394D01*
X108647895Y-76617649D01*
X108642369Y-76668514D01*
X108642000Y-76675328D01*
X108642000Y-77697885D01*
X108646475Y-77713124D01*
X108647865Y-77714329D01*
X108655548Y-77716000D01*
X109828000Y-77716000D01*
X109896121Y-77736002D01*
X109942614Y-77789658D01*
X109954000Y-77842000D01*
X109954000Y-79709884D01*
X109958475Y-79725123D01*
X109959865Y-79726328D01*
X109967548Y-79727999D01*
X110294669Y-79727999D01*
X110301490Y-79727629D01*
X110352352Y-79722105D01*
X110367604Y-79718479D01*
X110488054Y-79673324D01*
X110503649Y-79664786D01*
X110605724Y-79588285D01*
X110618285Y-79575724D01*
X110694786Y-79473649D01*
X110703325Y-79458052D01*
X110736023Y-79370830D01*
X110778664Y-79314065D01*
X110845226Y-79289365D01*
X110914575Y-79304572D01*
X110964693Y-79354858D01*
X110971987Y-79370829D01*
X110973602Y-79375136D01*
X110990092Y-79419125D01*
X110995275Y-79489930D01*
X110961283Y-79552371D01*
X110932016Y-79581689D01*
X110928176Y-79587919D01*
X110928175Y-79587920D01*
X110911861Y-79614387D01*
X110840186Y-79730666D01*
X110837881Y-79737615D01*
X110826219Y-79772774D01*
X110795721Y-79822201D01*
X110152032Y-80465890D01*
X110149843Y-80468633D01*
X110149836Y-80468640D01*
X110111006Y-80517282D01*
X110068336Y-80570734D01*
X110065270Y-80577077D01*
X110065269Y-80577078D01*
X110043653Y-80621794D01*
X109990173Y-80732422D01*
X109949774Y-80907411D01*
X109949749Y-80914449D01*
X109949749Y-80914453D01*
X109949481Y-80991249D01*
X109949147Y-81087000D01*
X109950685Y-81093880D01*
X109983327Y-81239910D01*
X109988324Y-81262267D01*
X110065357Y-81424497D01*
X110069713Y-81430033D01*
X110069714Y-81430034D01*
X110157399Y-81541462D01*
X110176417Y-81565630D01*
X110315985Y-81678650D01*
X110322311Y-81681763D01*
X110322313Y-81681764D01*
X110470804Y-81754831D01*
X110470806Y-81754832D01*
X110477125Y-81757941D01*
X110483974Y-81759573D01*
X110483975Y-81759573D01*
X110644974Y-81797928D01*
X110644977Y-81797928D01*
X110651826Y-81799560D01*
X110657025Y-81799614D01*
X110721531Y-81827480D01*
X110761138Y-81886401D01*
X110767000Y-81924386D01*
X110767000Y-81927885D01*
X110771475Y-81943124D01*
X110772865Y-81944329D01*
X110780548Y-81946000D01*
X112958885Y-81946000D01*
X112974124Y-81941526D01*
X112975889Y-81939488D01*
X113035615Y-81901104D01*
X113071114Y-81896000D01*
X115464884Y-81896000D01*
X115480123Y-81891525D01*
X115481328Y-81890135D01*
X115482999Y-81882452D01*
X115482999Y-81852905D01*
X115482662Y-81846386D01*
X115472743Y-81750794D01*
X115469851Y-81737400D01*
X115418412Y-81583216D01*
X115412239Y-81570038D01*
X115326937Y-81432193D01*
X115317901Y-81420792D01*
X115203170Y-81306260D01*
X115187745Y-81294078D01*
X115146683Y-81236161D01*
X115143451Y-81165238D01*
X115179077Y-81103827D01*
X115187573Y-81096452D01*
X115188122Y-81096017D01*
X115194345Y-81092166D01*
X115317984Y-80968311D01*
X115324145Y-80958317D01*
X115351564Y-80913833D01*
X115409814Y-80819334D01*
X115464910Y-80653228D01*
X115475500Y-80549866D01*
X115475500Y-80193819D01*
X117010100Y-80193819D01*
X117010101Y-80592180D01*
X117012935Y-80628204D01*
X117014730Y-80634381D01*
X117014731Y-80634387D01*
X117052334Y-80763816D01*
X117057731Y-80782393D01*
X117061766Y-80789215D01*
X117061766Y-80789216D01*
X117111386Y-80873120D01*
X117128845Y-80941937D01*
X117123839Y-80967565D01*
X117125046Y-80967857D01*
X117123389Y-80974706D01*
X117120980Y-80981325D01*
X117100580Y-81142806D01*
X117116463Y-81304794D01*
X117167840Y-81459238D01*
X117171487Y-81465260D01*
X117171488Y-81465262D01*
X117234961Y-81570068D01*
X117252156Y-81598461D01*
X117365222Y-81715545D01*
X117501418Y-81804669D01*
X117508022Y-81807125D01*
X117647373Y-81858949D01*
X117647375Y-81858949D01*
X117653975Y-81861404D01*
X117660956Y-81862335D01*
X117660958Y-81862336D01*
X117808329Y-81882000D01*
X117808333Y-81882000D01*
X117815310Y-81882931D01*
X117822321Y-81882293D01*
X117822325Y-81882293D01*
X117970384Y-81868818D01*
X117977405Y-81868179D01*
X117984107Y-81866001D01*
X117984109Y-81866001D01*
X118125505Y-81820059D01*
X118125508Y-81820058D01*
X118132204Y-81817882D01*
X118272012Y-81734539D01*
X118277106Y-81729688D01*
X118277110Y-81729685D01*
X118384782Y-81627150D01*
X118384783Y-81627148D01*
X118389882Y-81622293D01*
X118402352Y-81603525D01*
X118464464Y-81510038D01*
X118479955Y-81486723D01*
X118501489Y-81430034D01*
X118535253Y-81341151D01*
X118535254Y-81341148D01*
X118537754Y-81334566D01*
X118560406Y-81173385D01*
X118560691Y-81153000D01*
X118542548Y-80991249D01*
X118538585Y-80979869D01*
X118535070Y-80908961D01*
X118549121Y-80874291D01*
X118599434Y-80789216D01*
X118599434Y-80789215D01*
X118603469Y-80782393D01*
X118608866Y-80763816D01*
X118646471Y-80634381D01*
X118646472Y-80634376D01*
X118648265Y-80628204D01*
X118650264Y-80602804D01*
X118650907Y-80594638D01*
X118650907Y-80594629D01*
X118651100Y-80592181D01*
X118651099Y-80193820D01*
X118648265Y-80157796D01*
X118642751Y-80138814D01*
X118605681Y-80011220D01*
X118605680Y-80011218D01*
X118603469Y-80003607D01*
X118570072Y-79947137D01*
X118552614Y-79878323D01*
X118570072Y-79818864D01*
X118603469Y-79762393D01*
X118605681Y-79754780D01*
X118646471Y-79614381D01*
X118646472Y-79614376D01*
X118648265Y-79608204D01*
X118650433Y-79580655D01*
X118650907Y-79574638D01*
X118650907Y-79574629D01*
X118651100Y-79572181D01*
X118651099Y-79245660D01*
X118671101Y-79177541D01*
X118724756Y-79131048D01*
X118795030Y-79120943D01*
X118819365Y-79126962D01*
X118888057Y-79151422D01*
X118888063Y-79151423D01*
X118894695Y-79153785D01*
X118901683Y-79154618D01*
X118901686Y-79154619D01*
X119018065Y-79168496D01*
X119069682Y-79174651D01*
X119076685Y-79173915D01*
X119076686Y-79173915D01*
X119237942Y-79156966D01*
X119237944Y-79156966D01*
X119244942Y-79156230D01*
X119358095Y-79117710D01*
X119429027Y-79114692D01*
X119490331Y-79150502D01*
X119522543Y-79213771D01*
X119524700Y-79236988D01*
X119524701Y-79408176D01*
X119524701Y-79572180D01*
X119527535Y-79608204D01*
X119529330Y-79614381D01*
X119529331Y-79614387D01*
X119570119Y-79754780D01*
X119572331Y-79762393D01*
X119605728Y-79818863D01*
X119623186Y-79887677D01*
X119605728Y-79947136D01*
X119572331Y-80003607D01*
X119570120Y-80011218D01*
X119570119Y-80011220D01*
X119529329Y-80151619D01*
X119529328Y-80151624D01*
X119527535Y-80157796D01*
X119525833Y-80179419D01*
X119524894Y-80191356D01*
X119524700Y-80193819D01*
X119524701Y-80592180D01*
X119527535Y-80628204D01*
X119529330Y-80634381D01*
X119529331Y-80634387D01*
X119566934Y-80763816D01*
X119572331Y-80782393D01*
X119625987Y-80873120D01*
X119627154Y-80875094D01*
X119644700Y-80939233D01*
X119644700Y-80984851D01*
X119638777Y-81018447D01*
X119639646Y-81018657D01*
X119637989Y-81025506D01*
X119635580Y-81032125D01*
X119615180Y-81193606D01*
X119631063Y-81355594D01*
X119682440Y-81510038D01*
X119686087Y-81516060D01*
X119686088Y-81516062D01*
X119750424Y-81622293D01*
X119766756Y-81649261D01*
X119879822Y-81766345D01*
X120016018Y-81855469D01*
X120022622Y-81857925D01*
X120161973Y-81909749D01*
X120161975Y-81909749D01*
X120168575Y-81912204D01*
X120175556Y-81913135D01*
X120175558Y-81913136D01*
X120322929Y-81932800D01*
X120322933Y-81932800D01*
X120329910Y-81933731D01*
X120336921Y-81933093D01*
X120336925Y-81933093D01*
X120484984Y-81919618D01*
X120492005Y-81918979D01*
X120498707Y-81916801D01*
X120498709Y-81916801D01*
X120640105Y-81870859D01*
X120640108Y-81870858D01*
X120646804Y-81868682D01*
X120786612Y-81785339D01*
X120791706Y-81780488D01*
X120791710Y-81780485D01*
X120899382Y-81677950D01*
X120899383Y-81677948D01*
X120904482Y-81673093D01*
X120916952Y-81654325D01*
X120973784Y-81568785D01*
X120994555Y-81537523D01*
X121009382Y-81498490D01*
X121049853Y-81391951D01*
X121049854Y-81391948D01*
X121052354Y-81385366D01*
X121075006Y-81224185D01*
X121075291Y-81203800D01*
X121057148Y-81042049D01*
X121052709Y-81029302D01*
X121045700Y-80987865D01*
X121045700Y-80939233D01*
X121063246Y-80875094D01*
X121064414Y-80873120D01*
X121118069Y-80782393D01*
X121123466Y-80763816D01*
X121161071Y-80634381D01*
X121161072Y-80634376D01*
X121162865Y-80628204D01*
X121164864Y-80602804D01*
X121165507Y-80594638D01*
X121165507Y-80594629D01*
X121165700Y-80592181D01*
X121165699Y-80193820D01*
X121162865Y-80157796D01*
X121157351Y-80138814D01*
X121120281Y-80011220D01*
X121120280Y-80011218D01*
X121118069Y-80003607D01*
X121084672Y-79947137D01*
X121067214Y-79878323D01*
X121084672Y-79818864D01*
X121118069Y-79762393D01*
X121120281Y-79754780D01*
X121161071Y-79614381D01*
X121161072Y-79614376D01*
X121162865Y-79608204D01*
X121165033Y-79580655D01*
X121165507Y-79574638D01*
X121165507Y-79574629D01*
X121165700Y-79572181D01*
X121165699Y-79236615D01*
X121185701Y-79168496D01*
X121239356Y-79122003D01*
X121309630Y-79111898D01*
X121333966Y-79117917D01*
X121428060Y-79151423D01*
X121428065Y-79151424D01*
X121434695Y-79153785D01*
X121441683Y-79154618D01*
X121441686Y-79154619D01*
X121558065Y-79168496D01*
X121609682Y-79174651D01*
X121616685Y-79173915D01*
X121616686Y-79173915D01*
X121777942Y-79156966D01*
X121777944Y-79156966D01*
X121784942Y-79156230D01*
X121923495Y-79109063D01*
X121994427Y-79106045D01*
X122055731Y-79141855D01*
X122087943Y-79205124D01*
X122090100Y-79228341D01*
X122090101Y-79391549D01*
X122090101Y-79546780D01*
X122092935Y-79582804D01*
X122094730Y-79588981D01*
X122094731Y-79588987D01*
X122135011Y-79727631D01*
X122137731Y-79736993D01*
X122171128Y-79793463D01*
X122188586Y-79862277D01*
X122171128Y-79921736D01*
X122137731Y-79978207D01*
X122135520Y-79985818D01*
X122135519Y-79985820D01*
X122094729Y-80126219D01*
X122094728Y-80126224D01*
X122092935Y-80132396D01*
X122092431Y-80138806D01*
X122090294Y-80165956D01*
X122090100Y-80168419D01*
X122090101Y-80566780D01*
X122092935Y-80602804D01*
X122094730Y-80608981D01*
X122094731Y-80608987D01*
X122109482Y-80659759D01*
X122137731Y-80756993D01*
X122141766Y-80763815D01*
X122141766Y-80763816D01*
X122192554Y-80849694D01*
X122210100Y-80913833D01*
X122210100Y-81010251D01*
X122204177Y-81043847D01*
X122205046Y-81044057D01*
X122203389Y-81050906D01*
X122200980Y-81057525D01*
X122180580Y-81219006D01*
X122196463Y-81380994D01*
X122247840Y-81535438D01*
X122251487Y-81541460D01*
X122251488Y-81541462D01*
X122313126Y-81643238D01*
X122332156Y-81674661D01*
X122445222Y-81791745D01*
X122581418Y-81880869D01*
X122588022Y-81883325D01*
X122727373Y-81935149D01*
X122727375Y-81935149D01*
X122733975Y-81937604D01*
X122740956Y-81938535D01*
X122740958Y-81938536D01*
X122888329Y-81958200D01*
X122888333Y-81958200D01*
X122895310Y-81959131D01*
X122902321Y-81958493D01*
X122902325Y-81958493D01*
X123050384Y-81945018D01*
X123057405Y-81944379D01*
X123064107Y-81942201D01*
X123064109Y-81942201D01*
X123205505Y-81896259D01*
X123205508Y-81896258D01*
X123212204Y-81894082D01*
X123352012Y-81810739D01*
X123357106Y-81805888D01*
X123357110Y-81805885D01*
X123464782Y-81703350D01*
X123464783Y-81703348D01*
X123469882Y-81698493D01*
X123477126Y-81687591D01*
X123499827Y-81653423D01*
X134737917Y-81653423D01*
X134744520Y-81665309D01*
X136447190Y-83367980D01*
X136461131Y-83375592D01*
X136462966Y-83375461D01*
X136469580Y-83371210D01*
X138174559Y-81666230D01*
X138181571Y-81653389D01*
X138173777Y-81642701D01*
X138011298Y-81514613D01*
X138005075Y-81510288D01*
X137732702Y-81344357D01*
X137726025Y-81340822D01*
X137435686Y-81208813D01*
X137428616Y-81206099D01*
X137124537Y-81109932D01*
X137117186Y-81108085D01*
X136803746Y-81049142D01*
X136796237Y-81048194D01*
X136477989Y-81027335D01*
X136470424Y-81027295D01*
X136151964Y-81044821D01*
X136144450Y-81045690D01*
X135830405Y-81101348D01*
X135823044Y-81103115D01*
X135517980Y-81196092D01*
X135510860Y-81198740D01*
X135219182Y-81327690D01*
X135212445Y-81331167D01*
X134938355Y-81494233D01*
X134932091Y-81498490D01*
X134746385Y-81641762D01*
X134737917Y-81653423D01*
X123499827Y-81653423D01*
X123556060Y-81568785D01*
X123559955Y-81562923D01*
X123570396Y-81535438D01*
X123615253Y-81417351D01*
X123615254Y-81417348D01*
X123617754Y-81410766D01*
X123640406Y-81249585D01*
X123640594Y-81236161D01*
X123640636Y-81233162D01*
X123640636Y-81233156D01*
X123640691Y-81229200D01*
X123622548Y-81067449D01*
X123618109Y-81054702D01*
X123611100Y-81013265D01*
X123611100Y-80913833D01*
X123628646Y-80849694D01*
X123679434Y-80763816D01*
X123679434Y-80763815D01*
X123683469Y-80756993D01*
X123702846Y-80690297D01*
X123726471Y-80608981D01*
X123726472Y-80608976D01*
X123728265Y-80602804D01*
X123730789Y-80570734D01*
X123730907Y-80569238D01*
X123730907Y-80569229D01*
X123731100Y-80566781D01*
X123731099Y-80168420D01*
X123728265Y-80132396D01*
X123690849Y-80003607D01*
X123685681Y-79985820D01*
X123685680Y-79985818D01*
X123683469Y-79978207D01*
X123650072Y-79921737D01*
X123632614Y-79852923D01*
X123650072Y-79793464D01*
X123683469Y-79736993D01*
X123686189Y-79727631D01*
X123726471Y-79588981D01*
X123726472Y-79588976D01*
X123728265Y-79582804D01*
X123730660Y-79552371D01*
X123730907Y-79549238D01*
X123730907Y-79549229D01*
X123731100Y-79546781D01*
X123731099Y-79245660D01*
X123751101Y-79177541D01*
X123804756Y-79131048D01*
X123875030Y-79120943D01*
X123899365Y-79126962D01*
X123968057Y-79151422D01*
X123968063Y-79151423D01*
X123974695Y-79153785D01*
X123981683Y-79154618D01*
X123981686Y-79154619D01*
X124098065Y-79168496D01*
X124149682Y-79174651D01*
X124156685Y-79173915D01*
X124156686Y-79173915D01*
X124317942Y-79156966D01*
X124317944Y-79156966D01*
X124324942Y-79156230D01*
X124491766Y-79099439D01*
X124577516Y-79046685D01*
X124635855Y-79010795D01*
X124635858Y-79010793D01*
X124641862Y-79007099D01*
X124701942Y-78948264D01*
X124764603Y-78914895D01*
X124835362Y-78920700D01*
X124879503Y-78949505D01*
X124924925Y-78995246D01*
X124924929Y-78995249D01*
X124929888Y-79000243D01*
X124935834Y-79004017D01*
X124935836Y-79004018D01*
X124980788Y-79032545D01*
X125078681Y-79094670D01*
X125085324Y-79097035D01*
X125085323Y-79097035D01*
X125238061Y-79151423D01*
X125238063Y-79151424D01*
X125244695Y-79153785D01*
X125251683Y-79154618D01*
X125251686Y-79154619D01*
X125368065Y-79168496D01*
X125419682Y-79174651D01*
X125426685Y-79173915D01*
X125426686Y-79173915D01*
X125587942Y-79156966D01*
X125587944Y-79156966D01*
X125594942Y-79156230D01*
X125761766Y-79099439D01*
X125882767Y-79024998D01*
X125951266Y-79006341D01*
X126018980Y-79027680D01*
X126022357Y-79030199D01*
X126024622Y-79032545D01*
X126160818Y-79121669D01*
X126167422Y-79124125D01*
X126306773Y-79175949D01*
X126306775Y-79175949D01*
X126313375Y-79178404D01*
X126320356Y-79179335D01*
X126320358Y-79179336D01*
X126467729Y-79199000D01*
X126467733Y-79199000D01*
X126474710Y-79199931D01*
X126481721Y-79199293D01*
X126481725Y-79199293D01*
X126629784Y-79185818D01*
X126636805Y-79185179D01*
X126643507Y-79183001D01*
X126643509Y-79183001D01*
X126784905Y-79137059D01*
X126784908Y-79137058D01*
X126791604Y-79134882D01*
X126931412Y-79051539D01*
X126936506Y-79046688D01*
X126936510Y-79046685D01*
X127044182Y-78944150D01*
X127044183Y-78944148D01*
X127049282Y-78939293D01*
X127099551Y-78863633D01*
X130326862Y-78863633D01*
X130335575Y-78875153D01*
X130433268Y-78946784D01*
X130441178Y-78951727D01*
X130664140Y-79069033D01*
X130672703Y-79072756D01*
X130910554Y-79155818D01*
X130919563Y-79158232D01*
X131167092Y-79205227D01*
X131176348Y-79206281D01*
X131428107Y-79216173D01*
X131437421Y-79215847D01*
X131687865Y-79188420D01*
X131697042Y-79186719D01*
X131940681Y-79122574D01*
X131949501Y-79119537D01*
X132180986Y-79020083D01*
X132189258Y-79015776D01*
X132403499Y-78883200D01*
X132410438Y-78878158D01*
X132418768Y-78865519D01*
X132417664Y-78863633D01*
X135426662Y-78863633D01*
X135435375Y-78875153D01*
X135533068Y-78946784D01*
X135540978Y-78951727D01*
X135763940Y-79069033D01*
X135772503Y-79072756D01*
X136010354Y-79155818D01*
X136019363Y-79158232D01*
X136266892Y-79205227D01*
X136276148Y-79206281D01*
X136527907Y-79216173D01*
X136537221Y-79215847D01*
X136787665Y-79188420D01*
X136796842Y-79186719D01*
X137040481Y-79122574D01*
X137049301Y-79119537D01*
X137280786Y-79020083D01*
X137289058Y-79015776D01*
X137503299Y-78883200D01*
X137510238Y-78878158D01*
X137518568Y-78865519D01*
X137512506Y-78855166D01*
X136483862Y-77826522D01*
X136469918Y-77818908D01*
X136468085Y-77819039D01*
X136461470Y-77823290D01*
X135433320Y-78851440D01*
X135426662Y-78863633D01*
X132417664Y-78863633D01*
X132412706Y-78855166D01*
X131384062Y-77826522D01*
X131370118Y-77818908D01*
X131368285Y-77819039D01*
X131361670Y-77823290D01*
X130333520Y-78851440D01*
X130326862Y-78863633D01*
X127099551Y-78863633D01*
X127139355Y-78803723D01*
X127142547Y-78795320D01*
X127194653Y-78658151D01*
X127194654Y-78658148D01*
X127197154Y-78651566D01*
X127219806Y-78490385D01*
X127220091Y-78470000D01*
X127216878Y-78441358D01*
X127708600Y-78441358D01*
X127712573Y-78454889D01*
X127720471Y-78456024D01*
X127846384Y-78419443D01*
X127860820Y-78413196D01*
X127988099Y-78337924D01*
X128000526Y-78328284D01*
X128105084Y-78223726D01*
X128114724Y-78211299D01*
X128189996Y-78084020D01*
X128196243Y-78069584D01*
X128237912Y-77926159D01*
X128239368Y-77918191D01*
X128236548Y-77904769D01*
X128225087Y-77901800D01*
X127726715Y-77901800D01*
X127711476Y-77906275D01*
X127710271Y-77907665D01*
X127708600Y-77915348D01*
X127708600Y-78441358D01*
X127216878Y-78441358D01*
X127201948Y-78308249D01*
X127202447Y-78308193D01*
X127200600Y-78291726D01*
X127200600Y-78153464D01*
X127218147Y-78089324D01*
X127223058Y-78081020D01*
X127223059Y-78081018D01*
X127227094Y-78074195D01*
X127272243Y-77918793D01*
X127275100Y-77882490D01*
X127275100Y-77413110D01*
X127275093Y-77413023D01*
X129609148Y-77413023D01*
X129621237Y-77664675D01*
X129622374Y-77673935D01*
X129671524Y-77921035D01*
X129674018Y-77930028D01*
X129759150Y-78167139D01*
X129762950Y-78175674D01*
X129882196Y-78397601D01*
X129887207Y-78405468D01*
X129950696Y-78490490D01*
X129961954Y-78498939D01*
X129974373Y-78492167D01*
X130999228Y-77467312D01*
X131006842Y-77453368D01*
X131006711Y-77451535D01*
X131002460Y-77444920D01*
X129972571Y-76415031D01*
X129959263Y-76407764D01*
X129949224Y-76414886D01*
X129939011Y-76427166D01*
X129933596Y-76434758D01*
X129802896Y-76650146D01*
X129798658Y-76658463D01*
X129701231Y-76890799D01*
X129698270Y-76899649D01*
X129636256Y-77143831D01*
X129634634Y-77153028D01*
X129609393Y-77403698D01*
X129609148Y-77413023D01*
X127275093Y-77413023D01*
X127274360Y-77403698D01*
X127272748Y-77383226D01*
X127272243Y-77376807D01*
X127271917Y-77375685D01*
X127708600Y-77375685D01*
X127713075Y-77390924D01*
X127714465Y-77392129D01*
X127722148Y-77393800D01*
X128223024Y-77393800D01*
X128237819Y-77389456D01*
X128239663Y-77379025D01*
X128237912Y-77369441D01*
X128196243Y-77226016D01*
X128189996Y-77211580D01*
X128114724Y-77084301D01*
X128105084Y-77071874D01*
X128000526Y-76967316D01*
X127988099Y-76957676D01*
X127860820Y-76882404D01*
X127846384Y-76876157D01*
X127725995Y-76841181D01*
X127711895Y-76841221D01*
X127708600Y-76848491D01*
X127708600Y-77375685D01*
X127271917Y-77375685D01*
X127227094Y-77221405D01*
X127218147Y-77206276D01*
X127200600Y-77142136D01*
X127200600Y-76854242D01*
X127196627Y-76840711D01*
X127188729Y-76839576D01*
X127062816Y-76876157D01*
X127048380Y-76882404D01*
X127031373Y-76892462D01*
X126962557Y-76909921D01*
X126903094Y-76892461D01*
X126897820Y-76889342D01*
X126897818Y-76889341D01*
X126890995Y-76885306D01*
X126883383Y-76883095D01*
X126883382Y-76883094D01*
X126832770Y-76868390D01*
X126735593Y-76840157D01*
X126721642Y-76839059D01*
X126701748Y-76837493D01*
X126701737Y-76837493D01*
X126699290Y-76837300D01*
X126318122Y-76837300D01*
X126250001Y-76817298D01*
X126203508Y-76763642D01*
X126196434Y-76742709D01*
X126196026Y-76739073D01*
X126179454Y-76691483D01*
X126140387Y-76579296D01*
X126140386Y-76579294D01*
X126138072Y-76572649D01*
X126130296Y-76560204D01*
X126048419Y-76429175D01*
X126044686Y-76423201D01*
X126029357Y-76407764D01*
X125973081Y-76351094D01*
X125920512Y-76298157D01*
X125881382Y-76273324D01*
X125835193Y-76244012D01*
X125771719Y-76203730D01*
X125669381Y-76167289D01*
X125612339Y-76146977D01*
X125612337Y-76146976D01*
X125605705Y-76144615D01*
X125598717Y-76143782D01*
X125598714Y-76143781D01*
X125480111Y-76129639D01*
X125430718Y-76123749D01*
X125423715Y-76124485D01*
X125423714Y-76124485D01*
X125262458Y-76141434D01*
X125262456Y-76141434D01*
X125255458Y-76142170D01*
X125088634Y-76198961D01*
X124938538Y-76291301D01*
X124937558Y-76289708D01*
X124880287Y-76312422D01*
X124810617Y-76298762D01*
X124759392Y-76249604D01*
X124747233Y-76213592D01*
X124746255Y-76213854D01*
X124744117Y-76205875D01*
X124743039Y-76197689D01*
X124723574Y-76150695D01*
X124720160Y-76141446D01*
X124706979Y-76100914D01*
X124706979Y-76100913D01*
X124704426Y-76093064D01*
X124697712Y-76082730D01*
X124686958Y-76062297D01*
X124685403Y-76058543D01*
X124682242Y-76050912D01*
X124676403Y-76043303D01*
X130324466Y-76043303D01*
X130329039Y-76053079D01*
X132771163Y-78495203D01*
X132783543Y-78501963D01*
X132791884Y-78495719D01*
X132918015Y-78299627D01*
X132922462Y-78291436D01*
X133025941Y-78061722D01*
X133029132Y-78052955D01*
X133097519Y-77810476D01*
X133099379Y-77801334D01*
X133131366Y-77549896D01*
X133131847Y-77543608D01*
X133134097Y-77457660D01*
X133133946Y-77451351D01*
X133115162Y-77198574D01*
X133113786Y-77189368D01*
X133058179Y-76943626D01*
X133055455Y-76934715D01*
X132964138Y-76699892D01*
X132960127Y-76691483D01*
X132835104Y-76472740D01*
X132829892Y-76465012D01*
X132819272Y-76451541D01*
X132792806Y-76385662D01*
X132806158Y-76315932D01*
X132855090Y-76264491D01*
X132924065Y-76247670D01*
X132984056Y-76266101D01*
X133064925Y-76315657D01*
X133169522Y-76379754D01*
X133174092Y-76381647D01*
X133174096Y-76381649D01*
X133404967Y-76477279D01*
X133409540Y-76479173D01*
X133477051Y-76495381D01*
X133657343Y-76538666D01*
X133657349Y-76538667D01*
X133662156Y-76539821D01*
X133921150Y-76560204D01*
X134180144Y-76539821D01*
X134184951Y-76538667D01*
X134184957Y-76538666D01*
X134365249Y-76495381D01*
X134432760Y-76479173D01*
X134437333Y-76477279D01*
X134668204Y-76381649D01*
X134668208Y-76381647D01*
X134672778Y-76379754D01*
X134676997Y-76377168D01*
X134677004Y-76377165D01*
X134856788Y-76266994D01*
X134925321Y-76248456D01*
X134992998Y-76269913D01*
X135038331Y-76324552D01*
X135046927Y-76395026D01*
X135030341Y-76439792D01*
X134902696Y-76650146D01*
X134898458Y-76658463D01*
X134801031Y-76890799D01*
X134798070Y-76899649D01*
X134736056Y-77143831D01*
X134734434Y-77153028D01*
X134709193Y-77403698D01*
X134708948Y-77413023D01*
X134721037Y-77664675D01*
X134722174Y-77673935D01*
X134771324Y-77921035D01*
X134773818Y-77930028D01*
X134858950Y-78167139D01*
X134862750Y-78175674D01*
X134981996Y-78397601D01*
X134987007Y-78405468D01*
X135050496Y-78490490D01*
X135061754Y-78498939D01*
X135074173Y-78492167D01*
X136110708Y-77455632D01*
X136835458Y-77455632D01*
X136835589Y-77457465D01*
X136839840Y-77464080D01*
X137870963Y-78495203D01*
X137883343Y-78501963D01*
X137891684Y-78495719D01*
X138017815Y-78299627D01*
X138022262Y-78291436D01*
X138125741Y-78061722D01*
X138128932Y-78052955D01*
X138197319Y-77810476D01*
X138199179Y-77801334D01*
X138231166Y-77549896D01*
X138231647Y-77543608D01*
X138233897Y-77457660D01*
X138233746Y-77451351D01*
X138214962Y-77198574D01*
X138213586Y-77189368D01*
X138157979Y-76943626D01*
X138155255Y-76934715D01*
X138063938Y-76699892D01*
X138059927Y-76691483D01*
X137934904Y-76472740D01*
X137929693Y-76465014D01*
X137892441Y-76417761D01*
X137880516Y-76409290D01*
X137868984Y-76415776D01*
X136843072Y-77441688D01*
X136835458Y-77455632D01*
X136110708Y-77455632D01*
X137509469Y-76056871D01*
X137515853Y-76045181D01*
X137506441Y-76033070D01*
X137369643Y-75938170D01*
X137361615Y-75933442D01*
X137135643Y-75822005D01*
X137127010Y-75818517D01*
X136887048Y-75741705D01*
X136877988Y-75739529D01*
X136629310Y-75699029D01*
X136620023Y-75698217D01*
X136368103Y-75694919D01*
X136358792Y-75695489D01*
X136109147Y-75729464D01*
X136100028Y-75731402D01*
X135858148Y-75801904D01*
X135849417Y-75805167D01*
X135620608Y-75910651D01*
X135612456Y-75915170D01*
X135456333Y-76017528D01*
X135388397Y-76038151D01*
X135320097Y-76018771D01*
X135273117Y-75965541D01*
X135262372Y-75895363D01*
X135279815Y-75846321D01*
X135287455Y-75833855D01*
X135396304Y-75656228D01*
X135403897Y-75637899D01*
X135493829Y-75420783D01*
X135493830Y-75420781D01*
X135495723Y-75416210D01*
X135550721Y-75187129D01*
X135555216Y-75168407D01*
X135555217Y-75168401D01*
X135556371Y-75163594D01*
X135576754Y-74904600D01*
X135556371Y-74645606D01*
X135555217Y-74640799D01*
X135555216Y-74640793D01*
X135496878Y-74397802D01*
X135495723Y-74392990D01*
X135493829Y-74388417D01*
X135398199Y-74157546D01*
X135398197Y-74157542D01*
X135396304Y-74152972D01*
X135393718Y-74148752D01*
X135393715Y-74148746D01*
X135278994Y-73961537D01*
X135260456Y-73893004D01*
X135281913Y-73825327D01*
X135336552Y-73779994D01*
X135407026Y-73771398D01*
X135460933Y-73794091D01*
X135533075Y-73846988D01*
X135540978Y-73851927D01*
X135763940Y-73969233D01*
X135772503Y-73972956D01*
X136010354Y-74056018D01*
X136019363Y-74058432D01*
X136266892Y-74105427D01*
X136276148Y-74106481D01*
X136527907Y-74116373D01*
X136537221Y-74116047D01*
X136787665Y-74088620D01*
X136796842Y-74086919D01*
X137040481Y-74022774D01*
X137049301Y-74019737D01*
X137280786Y-73920283D01*
X137289058Y-73915976D01*
X137503299Y-73783400D01*
X137510238Y-73778358D01*
X137518568Y-73765719D01*
X137512506Y-73755366D01*
X136112972Y-72355832D01*
X136835458Y-72355832D01*
X136835589Y-72357665D01*
X136839840Y-72364280D01*
X137870963Y-73395403D01*
X137883343Y-73402163D01*
X137891684Y-73395919D01*
X138017815Y-73199827D01*
X138022262Y-73191636D01*
X138125741Y-72961922D01*
X138128932Y-72953155D01*
X138197319Y-72710676D01*
X138199179Y-72701534D01*
X138231166Y-72450096D01*
X138231647Y-72443808D01*
X138233897Y-72357860D01*
X138233746Y-72351551D01*
X138214962Y-72098774D01*
X138213586Y-72089568D01*
X138157979Y-71843826D01*
X138155255Y-71834915D01*
X138063938Y-71600092D01*
X138059927Y-71591683D01*
X137934904Y-71372940D01*
X137929693Y-71365214D01*
X137892441Y-71317961D01*
X137880516Y-71309490D01*
X137868984Y-71315976D01*
X136843072Y-72341888D01*
X136835458Y-72355832D01*
X136112972Y-72355832D01*
X135072371Y-71315231D01*
X135059063Y-71307964D01*
X135049024Y-71315086D01*
X135038811Y-71327366D01*
X135033396Y-71334958D01*
X134902696Y-71550346D01*
X134898458Y-71558663D01*
X134801031Y-71790999D01*
X134798070Y-71799849D01*
X134736056Y-72044031D01*
X134734434Y-72053228D01*
X134709193Y-72303898D01*
X134708948Y-72313223D01*
X134721037Y-72564875D01*
X134722174Y-72574135D01*
X134771324Y-72821235D01*
X134773818Y-72830228D01*
X134858950Y-73067339D01*
X134862750Y-73075874D01*
X134981996Y-73297801D01*
X134987007Y-73305668D01*
X135030105Y-73363383D01*
X135054837Y-73429933D01*
X135039663Y-73499289D01*
X134989401Y-73549431D01*
X134920009Y-73564440D01*
X134863312Y-73546205D01*
X134782038Y-73496400D01*
X134672778Y-73429446D01*
X134668208Y-73427553D01*
X134668204Y-73427551D01*
X134437333Y-73331921D01*
X134437331Y-73331920D01*
X134432760Y-73330027D01*
X134310726Y-73300729D01*
X134184957Y-73270534D01*
X134184951Y-73270533D01*
X134180144Y-73269379D01*
X133921150Y-73248996D01*
X133662156Y-73269379D01*
X133657349Y-73270533D01*
X133657343Y-73270534D01*
X133531574Y-73300729D01*
X133409540Y-73330027D01*
X133404969Y-73331920D01*
X133404967Y-73331921D01*
X133174096Y-73427551D01*
X133174092Y-73427553D01*
X133169522Y-73429446D01*
X133060263Y-73496400D01*
X132980610Y-73545211D01*
X132912076Y-73563749D01*
X132844399Y-73542292D01*
X132799066Y-73487653D01*
X132790470Y-73417179D01*
X132808804Y-73369615D01*
X132918015Y-73199827D01*
X132922462Y-73191636D01*
X133025941Y-72961922D01*
X133029132Y-72953155D01*
X133097519Y-72710676D01*
X133099379Y-72701534D01*
X133131366Y-72450096D01*
X133131847Y-72443808D01*
X133134097Y-72357860D01*
X133133946Y-72351551D01*
X133115162Y-72098774D01*
X133113786Y-72089568D01*
X133058179Y-71843826D01*
X133055455Y-71834915D01*
X132964138Y-71600092D01*
X132960127Y-71591683D01*
X132835104Y-71372940D01*
X132829893Y-71365214D01*
X132792641Y-71317961D01*
X132780716Y-71309490D01*
X132769184Y-71315976D01*
X130333520Y-73751640D01*
X130326862Y-73763833D01*
X130335575Y-73775353D01*
X130433268Y-73846984D01*
X130441178Y-73851927D01*
X130664140Y-73969233D01*
X130672703Y-73972956D01*
X130910554Y-74056018D01*
X130919563Y-74058432D01*
X131167092Y-74105427D01*
X131176348Y-74106481D01*
X131428107Y-74116373D01*
X131437421Y-74116047D01*
X131687865Y-74088620D01*
X131697042Y-74086919D01*
X131940681Y-74022774D01*
X131949501Y-74019737D01*
X132180986Y-73920283D01*
X132189258Y-73915976D01*
X132386155Y-73794133D01*
X132454607Y-73775295D01*
X132522377Y-73796456D01*
X132567948Y-73850897D01*
X132576852Y-73921333D01*
X132559892Y-73967110D01*
X132445996Y-74152972D01*
X132444103Y-74157542D01*
X132444101Y-74157546D01*
X132348471Y-74388417D01*
X132346577Y-74392990D01*
X132345422Y-74397802D01*
X132287084Y-74640793D01*
X132287083Y-74640799D01*
X132285929Y-74645606D01*
X132265546Y-74904600D01*
X132285929Y-75163594D01*
X132287083Y-75168401D01*
X132287084Y-75168407D01*
X132291579Y-75187129D01*
X132346577Y-75416210D01*
X132348470Y-75420781D01*
X132348471Y-75420783D01*
X132438404Y-75637899D01*
X132445996Y-75656228D01*
X132448582Y-75660447D01*
X132448585Y-75660454D01*
X132563708Y-75848319D01*
X132582246Y-75916852D01*
X132560789Y-75984529D01*
X132506150Y-76029862D01*
X132435676Y-76038458D01*
X132384455Y-76017680D01*
X132269847Y-75938173D01*
X132261812Y-75933440D01*
X132035843Y-75822005D01*
X132027210Y-75818517D01*
X131787248Y-75741705D01*
X131778188Y-75739529D01*
X131529510Y-75699029D01*
X131520223Y-75698217D01*
X131268303Y-75694919D01*
X131258992Y-75695489D01*
X131009347Y-75729464D01*
X131000228Y-75731402D01*
X130758348Y-75801904D01*
X130749617Y-75805167D01*
X130520808Y-75910651D01*
X130512656Y-75915170D01*
X130333603Y-76032562D01*
X130324466Y-76043303D01*
X124676403Y-76043303D01*
X124651263Y-76010539D01*
X124645583Y-76002503D01*
X124628120Y-75975627D01*
X124617866Y-75959846D01*
X124608702Y-75951599D01*
X124593142Y-75934794D01*
X124592906Y-75934487D01*
X124592720Y-75934246D01*
X124567023Y-75868064D01*
X124581186Y-75798495D01*
X124605312Y-75766502D01*
X125208825Y-75187129D01*
X125613914Y-74798244D01*
X125614365Y-74758828D01*
X125626525Y-73694250D01*
X125647304Y-73626362D01*
X125701487Y-73580485D01*
X125711911Y-73576411D01*
X125723543Y-73572451D01*
X125761766Y-73559439D01*
X125822742Y-73521926D01*
X125905855Y-73470795D01*
X125905858Y-73470793D01*
X125911862Y-73467099D01*
X125916897Y-73462168D01*
X125916900Y-73462166D01*
X126032738Y-73348728D01*
X126032739Y-73348727D01*
X126037770Y-73343800D01*
X126133233Y-73195671D01*
X126155102Y-73135587D01*
X126197197Y-73078416D01*
X126263519Y-73053079D01*
X126286345Y-73053339D01*
X126306580Y-73055412D01*
X126358193Y-73060700D01*
X126629293Y-73060700D01*
X126904606Y-73060699D01*
X126907850Y-73060362D01*
X126907858Y-73060362D01*
X126955565Y-73055412D01*
X127005772Y-73050203D01*
X127166252Y-72996663D01*
X127310111Y-72907640D01*
X127315284Y-72902458D01*
X127321021Y-72897911D01*
X127322622Y-72899931D01*
X127374280Y-72871654D01*
X127445101Y-72876644D01*
X127490211Y-72905575D01*
X127493825Y-72909183D01*
X127505240Y-72918198D01*
X127638280Y-73000204D01*
X127651461Y-73006351D01*
X127800214Y-73055691D01*
X127813590Y-73058558D01*
X127904497Y-73067872D01*
X127909526Y-73068129D01*
X127924524Y-73063725D01*
X127925729Y-73062335D01*
X127927400Y-73054652D01*
X127927400Y-73050085D01*
X128435400Y-73050085D01*
X128439875Y-73065324D01*
X128441265Y-73066529D01*
X128448948Y-73068200D01*
X128451838Y-73068200D01*
X128458353Y-73067863D01*
X128550457Y-73058306D01*
X128563856Y-73055412D01*
X128712507Y-73005819D01*
X128725686Y-72999645D01*
X128858573Y-72917412D01*
X128869974Y-72908376D01*
X128980386Y-72797771D01*
X128989398Y-72786360D01*
X129071404Y-72653320D01*
X129077551Y-72640139D01*
X129126891Y-72491386D01*
X129129758Y-72478010D01*
X129139072Y-72387103D01*
X129139400Y-72380687D01*
X129139400Y-72357315D01*
X129134925Y-72342076D01*
X129133535Y-72340871D01*
X129125852Y-72339200D01*
X128453515Y-72339200D01*
X128438276Y-72343675D01*
X128437071Y-72345065D01*
X128435400Y-72352748D01*
X128435400Y-73050085D01*
X127927400Y-73050085D01*
X127927400Y-72313223D01*
X129609148Y-72313223D01*
X129621237Y-72564875D01*
X129622374Y-72574135D01*
X129671524Y-72821235D01*
X129674018Y-72830228D01*
X129759150Y-73067339D01*
X129762950Y-73075874D01*
X129882196Y-73297801D01*
X129887207Y-73305668D01*
X129950696Y-73390690D01*
X129961954Y-73399139D01*
X129974373Y-73392367D01*
X130999228Y-72367512D01*
X131006842Y-72353568D01*
X131006711Y-72351735D01*
X131002460Y-72345120D01*
X129972571Y-71315231D01*
X129959263Y-71307964D01*
X129949224Y-71315086D01*
X129939011Y-71327366D01*
X129933596Y-71334958D01*
X129802896Y-71550346D01*
X129798658Y-71558663D01*
X129701231Y-71790999D01*
X129698270Y-71799849D01*
X129636256Y-72044031D01*
X129634634Y-72053228D01*
X129609393Y-72303898D01*
X129609148Y-72313223D01*
X127927400Y-72313223D01*
X127927400Y-71813085D01*
X128435400Y-71813085D01*
X128439875Y-71828324D01*
X128441265Y-71829529D01*
X128448948Y-71831200D01*
X129121285Y-71831200D01*
X129136524Y-71826725D01*
X129137729Y-71825335D01*
X129139400Y-71817652D01*
X129139400Y-71789762D01*
X129139063Y-71783247D01*
X129129506Y-71691143D01*
X129126612Y-71677744D01*
X129077019Y-71529093D01*
X129070845Y-71515914D01*
X128988612Y-71383027D01*
X128979576Y-71371626D01*
X128868971Y-71261214D01*
X128857560Y-71252202D01*
X128724520Y-71170196D01*
X128711339Y-71164049D01*
X128562586Y-71114709D01*
X128549210Y-71111842D01*
X128458303Y-71102528D01*
X128453274Y-71102271D01*
X128438276Y-71106675D01*
X128437071Y-71108065D01*
X128435400Y-71115748D01*
X128435400Y-71813085D01*
X127927400Y-71813085D01*
X127927400Y-71120315D01*
X127922925Y-71105076D01*
X127921535Y-71103871D01*
X127913852Y-71102200D01*
X127910962Y-71102200D01*
X127904447Y-71102537D01*
X127812343Y-71112094D01*
X127798944Y-71114988D01*
X127650293Y-71164581D01*
X127637114Y-71170755D01*
X127504227Y-71252988D01*
X127492827Y-71262023D01*
X127490176Y-71264679D01*
X127487915Y-71265916D01*
X127487089Y-71266571D01*
X127486977Y-71266430D01*
X127427894Y-71298760D01*
X127357074Y-71293758D01*
X127320916Y-71270565D01*
X127320037Y-71271678D01*
X127314291Y-71267140D01*
X127309111Y-71261969D01*
X127198106Y-71193544D01*
X127171327Y-71177037D01*
X127171325Y-71177036D01*
X127165097Y-71173197D01*
X127004524Y-71119937D01*
X126997688Y-71119237D01*
X126997685Y-71119236D01*
X126947603Y-71114105D01*
X126904607Y-71109700D01*
X126633507Y-71109700D01*
X126358194Y-71109701D01*
X126354950Y-71110038D01*
X126354942Y-71110038D01*
X126288138Y-71116969D01*
X126270841Y-71118764D01*
X126201020Y-71105899D01*
X126149238Y-71057328D01*
X126143763Y-71045494D01*
X126143432Y-71045653D01*
X126140387Y-71039298D01*
X126138072Y-71032649D01*
X126134343Y-71026681D01*
X126131816Y-71021407D01*
X126120670Y-70984469D01*
X126120260Y-70981546D01*
X126119968Y-70979322D01*
X126115634Y-70943503D01*
X130324466Y-70943503D01*
X130329039Y-70953279D01*
X131358438Y-71982678D01*
X131372382Y-71990292D01*
X131374215Y-71990161D01*
X131380830Y-71985910D01*
X132409669Y-70957071D01*
X132416053Y-70945381D01*
X132414594Y-70943503D01*
X135424266Y-70943503D01*
X135428839Y-70953279D01*
X136458238Y-71982678D01*
X136472182Y-71990292D01*
X136474015Y-71990161D01*
X136480630Y-71985910D01*
X137509469Y-70957071D01*
X137515853Y-70945381D01*
X137506441Y-70933270D01*
X137369643Y-70838370D01*
X137361615Y-70833642D01*
X137135643Y-70722205D01*
X137127010Y-70718717D01*
X136887048Y-70641905D01*
X136877988Y-70639729D01*
X136629310Y-70599229D01*
X136620023Y-70598417D01*
X136368103Y-70595119D01*
X136358792Y-70595689D01*
X136109147Y-70629664D01*
X136100028Y-70631602D01*
X135858148Y-70702104D01*
X135849417Y-70705367D01*
X135620608Y-70810851D01*
X135612456Y-70815370D01*
X135433403Y-70932762D01*
X135424266Y-70943503D01*
X132414594Y-70943503D01*
X132406641Y-70933270D01*
X132269843Y-70838370D01*
X132261815Y-70833642D01*
X132035843Y-70722205D01*
X132027210Y-70718717D01*
X131787248Y-70641905D01*
X131778188Y-70639729D01*
X131529510Y-70599229D01*
X131520223Y-70598417D01*
X131268303Y-70595119D01*
X131258992Y-70595689D01*
X131009347Y-70629664D01*
X131000228Y-70631602D01*
X130758348Y-70702104D01*
X130749617Y-70705367D01*
X130520808Y-70810851D01*
X130512656Y-70815370D01*
X130333603Y-70932762D01*
X130324466Y-70943503D01*
X126115634Y-70943503D01*
X126110476Y-70900880D01*
X126108649Y-70896045D01*
X126107315Y-70889106D01*
X126093150Y-70787962D01*
X126083250Y-70717275D01*
X126087035Y-70664646D01*
X126093265Y-70643204D01*
X126095251Y-70617972D01*
X126095907Y-70609638D01*
X126095907Y-70609629D01*
X126096100Y-70607181D01*
X126096099Y-70108820D01*
X126093265Y-70072796D01*
X126090964Y-70064874D01*
X126050681Y-69926220D01*
X126050680Y-69926218D01*
X126048469Y-69918607D01*
X126042542Y-69908584D01*
X125970769Y-69787223D01*
X125966735Y-69780402D01*
X125853198Y-69666865D01*
X125771463Y-69618527D01*
X125721816Y-69589166D01*
X125721814Y-69589165D01*
X125714993Y-69585131D01*
X125707382Y-69582920D01*
X125707380Y-69582919D01*
X125566981Y-69542129D01*
X125566976Y-69542128D01*
X125560804Y-69540335D01*
X125539181Y-69538633D01*
X125527238Y-69537693D01*
X125527229Y-69537693D01*
X125524781Y-69537500D01*
X125325762Y-69537500D01*
X125126420Y-69537501D01*
X125107177Y-69539015D01*
X125096814Y-69539830D01*
X125096813Y-69539830D01*
X125090396Y-69540335D01*
X125084216Y-69542130D01*
X125084213Y-69542131D01*
X124943820Y-69582919D01*
X124943818Y-69582920D01*
X124936207Y-69585131D01*
X124879737Y-69618528D01*
X124810923Y-69635986D01*
X124751464Y-69618528D01*
X124694993Y-69585131D01*
X124687382Y-69582920D01*
X124687380Y-69582919D01*
X124546981Y-69542129D01*
X124546976Y-69542128D01*
X124540804Y-69540335D01*
X124519181Y-69538633D01*
X124507238Y-69537693D01*
X124507229Y-69537693D01*
X124504781Y-69537500D01*
X124305762Y-69537500D01*
X124106420Y-69537501D01*
X124087177Y-69539015D01*
X124076814Y-69539830D01*
X124076813Y-69539830D01*
X124070396Y-69540335D01*
X124064216Y-69542130D01*
X124064213Y-69542131D01*
X123923820Y-69582919D01*
X123923818Y-69582920D01*
X123916207Y-69585131D01*
X123909386Y-69589165D01*
X123909384Y-69589166D01*
X123859737Y-69618527D01*
X123778002Y-69666865D01*
X123664465Y-69780402D01*
X123660431Y-69787223D01*
X123588659Y-69908584D01*
X123582731Y-69918607D01*
X123580520Y-69926218D01*
X123580519Y-69926220D01*
X123539729Y-70066619D01*
X123539728Y-70066624D01*
X123537935Y-70072796D01*
X123537431Y-70079206D01*
X123535294Y-70106356D01*
X123535100Y-70108819D01*
X123535101Y-70607180D01*
X123535887Y-70617176D01*
X123535950Y-70617972D01*
X123521352Y-70687452D01*
X123471508Y-70738010D01*
X123402243Y-70753594D01*
X123342824Y-70734239D01*
X123273309Y-70690124D01*
X123231719Y-70663730D01*
X123166434Y-70640483D01*
X123072339Y-70606977D01*
X123072337Y-70606976D01*
X123065705Y-70604615D01*
X123058717Y-70603782D01*
X123058714Y-70603781D01*
X122940111Y-70589639D01*
X122890718Y-70583749D01*
X122883715Y-70584485D01*
X122883714Y-70584485D01*
X122722458Y-70601434D01*
X122722456Y-70601434D01*
X122715458Y-70602170D01*
X122634694Y-70629664D01*
X122602305Y-70640690D01*
X122531373Y-70643708D01*
X122470069Y-70607898D01*
X122437857Y-70544629D01*
X122435700Y-70521412D01*
X122435699Y-70188693D01*
X122435699Y-70186220D01*
X122432865Y-70150196D01*
X122424795Y-70122417D01*
X122390281Y-70003620D01*
X122390280Y-70003618D01*
X122388069Y-69996007D01*
X122354672Y-69939537D01*
X122337214Y-69870723D01*
X122354672Y-69811264D01*
X122388069Y-69754793D01*
X122390395Y-69746786D01*
X122431071Y-69606781D01*
X122431072Y-69606776D01*
X122432865Y-69600604D01*
X122435349Y-69569044D01*
X122435507Y-69567038D01*
X122435507Y-69567029D01*
X122435700Y-69564581D01*
X122435699Y-69166220D01*
X122432865Y-69130196D01*
X122425959Y-69106423D01*
X122390281Y-68983620D01*
X122390280Y-68983618D01*
X122388069Y-68976007D01*
X122346917Y-68906423D01*
X134798703Y-68906423D01*
X134806227Y-68916854D01*
X134945483Y-69029020D01*
X134951657Y-69033408D01*
X135222271Y-69202178D01*
X135228931Y-69205794D01*
X135517852Y-69340827D01*
X135524905Y-69343620D01*
X135827970Y-69442970D01*
X135835282Y-69444888D01*
X136148092Y-69507109D01*
X136155590Y-69508137D01*
X136473610Y-69532328D01*
X136481173Y-69532446D01*
X136799785Y-69518257D01*
X136807326Y-69517465D01*
X137121924Y-69465101D01*
X137129302Y-69463411D01*
X137435355Y-69373625D01*
X137442450Y-69371071D01*
X137735496Y-69245169D01*
X137742263Y-69241765D01*
X138018042Y-69081580D01*
X138024349Y-69077390D01*
X138234305Y-68918889D01*
X138242761Y-68907496D01*
X138236045Y-68895256D01*
X136532810Y-67192020D01*
X136518869Y-67184408D01*
X136517034Y-67184539D01*
X136510420Y-67188790D01*
X134805818Y-68893393D01*
X134798703Y-68906423D01*
X122346917Y-68906423D01*
X122333246Y-68883306D01*
X122315700Y-68819167D01*
X122315700Y-68775841D01*
X122319659Y-68744505D01*
X122319853Y-68743751D01*
X122322354Y-68737166D01*
X122345006Y-68575985D01*
X122345291Y-68555600D01*
X122327148Y-68393849D01*
X122273620Y-68240138D01*
X122187368Y-68102106D01*
X122072678Y-67986612D01*
X122006357Y-67944524D01*
X121941194Y-67903170D01*
X121941191Y-67903168D01*
X121935251Y-67899399D01*
X121925046Y-67895765D01*
X121788551Y-67847161D01*
X121788549Y-67847160D01*
X121781917Y-67844799D01*
X121774929Y-67843966D01*
X121774926Y-67843965D01*
X121666625Y-67831051D01*
X121620297Y-67825527D01*
X121613294Y-67826263D01*
X121613293Y-67826263D01*
X121572870Y-67830512D01*
X121458424Y-67842540D01*
X121451756Y-67844810D01*
X121311009Y-67892724D01*
X121311006Y-67892725D01*
X121304342Y-67894994D01*
X121165711Y-67980280D01*
X121049420Y-68094161D01*
X120961249Y-68230976D01*
X120958840Y-68237596D01*
X120958838Y-68237599D01*
X120927560Y-68323536D01*
X120905580Y-68383925D01*
X120885180Y-68545406D01*
X120901063Y-68707394D01*
X120903287Y-68714079D01*
X120908258Y-68729023D01*
X120914700Y-68768795D01*
X120914700Y-68819167D01*
X120897154Y-68883306D01*
X120842331Y-68976007D01*
X120840120Y-68983618D01*
X120840119Y-68983620D01*
X120799329Y-69124019D01*
X120799328Y-69124024D01*
X120797535Y-69130196D01*
X120795861Y-69151468D01*
X120794894Y-69163756D01*
X120794700Y-69166219D01*
X120794701Y-69564580D01*
X120797535Y-69600604D01*
X120799330Y-69606781D01*
X120799331Y-69606787D01*
X120840005Y-69746786D01*
X120842331Y-69754793D01*
X120875728Y-69811263D01*
X120893186Y-69880077D01*
X120875728Y-69939536D01*
X120842331Y-69996007D01*
X120840120Y-70003618D01*
X120840119Y-70003620D01*
X120799329Y-70144019D01*
X120799328Y-70144024D01*
X120797535Y-70150196D01*
X120796873Y-70158614D01*
X120794894Y-70183756D01*
X120794700Y-70186219D01*
X120794701Y-70374969D01*
X120794701Y-70521784D01*
X120774699Y-70589904D01*
X120721044Y-70636397D01*
X120650770Y-70646502D01*
X120626434Y-70640483D01*
X120532340Y-70606977D01*
X120532335Y-70606976D01*
X120525705Y-70604615D01*
X120518717Y-70603782D01*
X120518714Y-70603781D01*
X120400111Y-70589639D01*
X120350718Y-70583749D01*
X120343715Y-70584485D01*
X120343714Y-70584485D01*
X120182458Y-70601434D01*
X120182456Y-70601434D01*
X120175458Y-70602170D01*
X120094694Y-70629664D01*
X120062305Y-70640690D01*
X119991373Y-70643708D01*
X119930069Y-70607898D01*
X119897857Y-70544629D01*
X119895700Y-70521412D01*
X119895699Y-70190693D01*
X119895699Y-70188220D01*
X119892865Y-70152196D01*
X119890490Y-70144019D01*
X119850281Y-70005620D01*
X119850280Y-70005618D01*
X119848069Y-69998007D01*
X119814672Y-69941537D01*
X119797214Y-69872723D01*
X119814672Y-69813264D01*
X119848069Y-69756793D01*
X119850862Y-69747180D01*
X119891071Y-69608781D01*
X119891072Y-69608776D01*
X119892865Y-69602604D01*
X119895347Y-69571071D01*
X119895507Y-69569038D01*
X119895507Y-69569029D01*
X119895700Y-69566581D01*
X119895699Y-69168220D01*
X119893996Y-69146568D01*
X119893370Y-69138614D01*
X119893369Y-69138606D01*
X119892865Y-69132196D01*
X119890490Y-69124019D01*
X119850281Y-68985620D01*
X119850280Y-68985618D01*
X119848069Y-68978007D01*
X119794405Y-68887265D01*
X119776946Y-68818450D01*
X119780531Y-68793764D01*
X119782354Y-68788966D01*
X119805006Y-68627785D01*
X119805291Y-68607400D01*
X119787148Y-68445649D01*
X119733620Y-68291938D01*
X119647368Y-68153906D01*
X119532678Y-68038412D01*
X119458929Y-67991610D01*
X119401194Y-67954970D01*
X119401191Y-67954968D01*
X119395251Y-67951199D01*
X119388618Y-67948837D01*
X119248551Y-67898961D01*
X119248549Y-67898960D01*
X119241917Y-67896599D01*
X119234929Y-67895766D01*
X119234926Y-67895765D01*
X119126625Y-67882851D01*
X119080297Y-67877327D01*
X119073294Y-67878063D01*
X119073293Y-67878063D01*
X119032870Y-67882312D01*
X118918424Y-67894340D01*
X118911756Y-67896610D01*
X118771009Y-67944524D01*
X118771006Y-67944525D01*
X118764342Y-67946794D01*
X118625711Y-68032080D01*
X118509420Y-68145961D01*
X118421249Y-68282776D01*
X118418840Y-68289396D01*
X118418838Y-68289399D01*
X118378274Y-68400848D01*
X118365580Y-68435725D01*
X118345180Y-68597206D01*
X118361063Y-68759194D01*
X118363287Y-68765879D01*
X118368258Y-68780823D01*
X118374700Y-68820595D01*
X118374700Y-68821167D01*
X118357154Y-68885306D01*
X118302331Y-68978007D01*
X118300120Y-68985618D01*
X118300119Y-68985620D01*
X118259329Y-69126019D01*
X118259328Y-69126024D01*
X118257535Y-69132196D01*
X118256404Y-69146568D01*
X118254894Y-69165756D01*
X118254700Y-69168219D01*
X118254701Y-69566580D01*
X118257535Y-69602604D01*
X118259330Y-69608781D01*
X118259331Y-69608787D01*
X118299538Y-69747180D01*
X118302331Y-69756793D01*
X118335728Y-69813263D01*
X118353186Y-69882077D01*
X118335728Y-69941536D01*
X118302331Y-69998007D01*
X118300120Y-70005618D01*
X118300119Y-70005620D01*
X118259329Y-70146019D01*
X118259328Y-70146024D01*
X118257535Y-70152196D01*
X118257031Y-70158606D01*
X118254894Y-70185756D01*
X118254700Y-70188219D01*
X118254701Y-70374969D01*
X118254701Y-70513822D01*
X118234699Y-70581942D01*
X118181044Y-70628435D01*
X118110770Y-70638540D01*
X118086434Y-70632521D01*
X118076266Y-70628900D01*
X118062188Y-70628105D01*
X118059200Y-70633776D01*
X118059200Y-73577355D01*
X118063173Y-73590886D01*
X118069847Y-73591845D01*
X118138313Y-73568538D01*
X118150979Y-73562577D01*
X118290509Y-73476738D01*
X118301543Y-73468118D01*
X118357225Y-73413589D01*
X118419890Y-73380218D01*
X118490649Y-73386024D01*
X118534789Y-73414828D01*
X118579888Y-73460243D01*
X118585834Y-73464017D01*
X118585836Y-73464018D01*
X118596515Y-73470795D01*
X118728681Y-73554670D01*
X118866268Y-73603662D01*
X118923731Y-73645356D01*
X118949531Y-73711499D01*
X118950000Y-73722361D01*
X118950000Y-75613090D01*
X118929998Y-75681211D01*
X118895076Y-75717129D01*
X118797285Y-75783935D01*
X118785580Y-75790267D01*
X118785696Y-75790468D01*
X118778545Y-75794596D01*
X118770912Y-75797758D01*
X118743859Y-75818517D01*
X118723870Y-75833855D01*
X118718239Y-75837934D01*
X118705962Y-75846321D01*
X118702198Y-75848892D01*
X118693310Y-75856850D01*
X118685981Y-75862928D01*
X118644872Y-75894472D01*
X118637940Y-75903505D01*
X118622028Y-75920669D01*
X118613550Y-75928260D01*
X118609033Y-75935172D01*
X118609032Y-75935174D01*
X118585215Y-75971625D01*
X118579699Y-75979408D01*
X118548158Y-76020512D01*
X118544999Y-76028137D01*
X118544996Y-76028143D01*
X118543802Y-76031026D01*
X118532873Y-76051728D01*
X118531164Y-76054343D01*
X118531162Y-76054348D01*
X118526648Y-76061256D01*
X118524076Y-76069097D01*
X118524074Y-76069101D01*
X118510498Y-76110488D01*
X118507190Y-76119416D01*
X118487361Y-76167289D01*
X118486283Y-76175477D01*
X118486282Y-76175481D01*
X118485876Y-76178568D01*
X118480676Y-76201401D01*
X118478145Y-76209117D01*
X118477129Y-76212213D01*
X118476646Y-76212055D01*
X118446939Y-76270296D01*
X118385609Y-76306060D01*
X118314678Y-76302989D01*
X118287859Y-76290127D01*
X118215193Y-76244012D01*
X118151719Y-76203730D01*
X118049381Y-76167289D01*
X117992339Y-76146977D01*
X117992337Y-76146976D01*
X117985705Y-76144615D01*
X117978717Y-76143782D01*
X117978714Y-76143781D01*
X117860111Y-76129639D01*
X117810718Y-76123749D01*
X117803715Y-76124485D01*
X117803714Y-76124485D01*
X117642458Y-76141434D01*
X117642456Y-76141434D01*
X117635458Y-76142170D01*
X117468634Y-76198961D01*
X117434649Y-76219869D01*
X117324545Y-76287605D01*
X117324542Y-76287607D01*
X117318538Y-76291301D01*
X117313503Y-76296232D01*
X117313500Y-76296234D01*
X117198339Y-76409009D01*
X117192630Y-76414600D01*
X117097167Y-76562729D01*
X117094758Y-76569349D01*
X117094756Y-76569352D01*
X117039303Y-76721708D01*
X117036894Y-76728327D01*
X117019700Y-76864431D01*
X117019700Y-78428508D01*
X117034374Y-78559327D01*
X117036688Y-78565973D01*
X117036689Y-78565976D01*
X117085047Y-78704843D01*
X117092328Y-78725751D01*
X117099468Y-78737177D01*
X117102552Y-78742112D01*
X117121684Y-78807023D01*
X117122140Y-78837900D01*
X117122146Y-78838334D01*
X117104614Y-78904332D01*
X117057731Y-78983607D01*
X117055520Y-78991218D01*
X117055519Y-78991220D01*
X117014729Y-79131619D01*
X117014728Y-79131624D01*
X117012935Y-79137796D01*
X117010100Y-79173819D01*
X117010101Y-79572180D01*
X117012935Y-79608204D01*
X117014730Y-79614381D01*
X117014731Y-79614387D01*
X117055519Y-79754780D01*
X117057731Y-79762393D01*
X117091128Y-79818863D01*
X117108586Y-79887677D01*
X117091128Y-79947136D01*
X117057731Y-80003607D01*
X117055520Y-80011218D01*
X117055519Y-80011220D01*
X117014729Y-80151619D01*
X117014728Y-80151624D01*
X117012935Y-80157796D01*
X117011233Y-80179419D01*
X117010294Y-80191356D01*
X117010100Y-80193819D01*
X115475500Y-80193819D01*
X115475500Y-79950134D01*
X115472554Y-79921739D01*
X115465353Y-79852339D01*
X115465352Y-79852335D01*
X115464641Y-79845481D01*
X115425447Y-79728000D01*
X115411574Y-79686419D01*
X115409256Y-79679471D01*
X115319162Y-79533880D01*
X115300324Y-79465429D01*
X115308324Y-79423349D01*
X115309909Y-79419123D01*
X115343851Y-79328580D01*
X115350500Y-79267377D01*
X115350499Y-76672624D01*
X115348961Y-76658463D01*
X115344705Y-76619278D01*
X115344704Y-76619274D01*
X115343851Y-76611420D01*
X115293526Y-76477176D01*
X115288146Y-76469997D01*
X115288144Y-76469994D01*
X115212928Y-76369635D01*
X115207546Y-76362454D01*
X115200365Y-76357072D01*
X115100006Y-76281856D01*
X115100003Y-76281854D01*
X115092824Y-76276474D01*
X115003439Y-76242966D01*
X114965975Y-76228921D01*
X114965973Y-76228921D01*
X114958580Y-76226149D01*
X114950730Y-76225296D01*
X114950729Y-76225296D01*
X114900774Y-76219869D01*
X114900773Y-76219869D01*
X114897377Y-76219500D01*
X114433768Y-76219500D01*
X114365647Y-76199498D01*
X114344673Y-76182595D01*
X113102519Y-74940441D01*
X113101590Y-74939503D01*
X113072238Y-74909530D01*
X113039141Y-74875732D01*
X113033221Y-74871917D01*
X113033215Y-74871912D01*
X113003109Y-74852510D01*
X112992755Y-74845070D01*
X112964774Y-74822733D01*
X112959266Y-74818336D01*
X112929441Y-74803918D01*
X112916025Y-74796389D01*
X112894109Y-74782265D01*
X112888183Y-74778446D01*
X112847909Y-74763787D01*
X112836169Y-74758828D01*
X112803916Y-74743237D01*
X112803917Y-74743237D01*
X112797578Y-74740173D01*
X112790723Y-74738590D01*
X112790719Y-74738589D01*
X112771757Y-74734212D01*
X112765302Y-74732721D01*
X112750554Y-74728352D01*
X112726045Y-74719432D01*
X112726041Y-74719431D01*
X112719422Y-74717022D01*
X112676882Y-74711648D01*
X112664363Y-74709418D01*
X112622589Y-74699774D01*
X112615548Y-74699749D01*
X112615545Y-74699749D01*
X112582418Y-74699633D01*
X112581545Y-74699604D01*
X112580717Y-74699500D01*
X112544262Y-74699500D01*
X112543822Y-74699499D01*
X112446493Y-74699159D01*
X112446490Y-74699159D01*
X112443000Y-74699147D01*
X112441812Y-74699413D01*
X112440200Y-74699500D01*
X108133768Y-74699500D01*
X108065647Y-74679498D01*
X108044673Y-74662595D01*
X107828812Y-74446734D01*
X107793689Y-74378757D01*
X107754585Y-74148746D01*
X107742945Y-74080283D01*
X107751247Y-74009774D01*
X107796351Y-73954946D01*
X107820772Y-73942017D01*
X107855436Y-73928292D01*
X107866631Y-73924459D01*
X107910398Y-73911744D01*
X107928536Y-73901018D01*
X107946281Y-73892324D01*
X107965871Y-73884568D01*
X108002738Y-73857782D01*
X108012646Y-73851275D01*
X108045042Y-73832117D01*
X108045047Y-73832113D01*
X108051865Y-73828081D01*
X108066758Y-73813188D01*
X108081792Y-73800347D01*
X108092423Y-73792623D01*
X108098837Y-73787963D01*
X108105430Y-73779994D01*
X108127879Y-73752857D01*
X108135869Y-73744077D01*
X108842542Y-73037404D01*
X108904854Y-73003378D01*
X108931637Y-73000499D01*
X108979180Y-73000499D01*
X108998476Y-72998981D01*
X109008786Y-72998170D01*
X109008787Y-72998170D01*
X109015204Y-72997665D01*
X109021384Y-72995870D01*
X109021387Y-72995869D01*
X109161780Y-72955081D01*
X109161782Y-72955080D01*
X109169393Y-72952869D01*
X109212784Y-72927208D01*
X109300777Y-72875169D01*
X109307598Y-72871135D01*
X109421135Y-72757598D01*
X109425168Y-72750778D01*
X109425173Y-72750772D01*
X109465048Y-72683347D01*
X109516940Y-72634894D01*
X109586791Y-72622189D01*
X109652422Y-72649264D01*
X109692996Y-72707525D01*
X109699501Y-72747485D01*
X109699501Y-73247376D01*
X109699870Y-73250770D01*
X109699870Y-73250776D01*
X109701849Y-73268991D01*
X109706149Y-73308580D01*
X109756474Y-73442824D01*
X109761854Y-73450003D01*
X109761856Y-73450006D01*
X109796627Y-73496400D01*
X109842454Y-73557546D01*
X109849635Y-73562928D01*
X109949994Y-73638144D01*
X109949997Y-73638146D01*
X109957176Y-73643526D01*
X110046561Y-73677034D01*
X110084025Y-73691079D01*
X110084027Y-73691079D01*
X110091420Y-73693851D01*
X110099270Y-73694704D01*
X110099271Y-73694704D01*
X110149217Y-73700130D01*
X110152623Y-73700500D01*
X111999729Y-73700500D01*
X113847376Y-73700499D01*
X113850770Y-73700130D01*
X113850776Y-73700130D01*
X113900722Y-73694705D01*
X113900726Y-73694704D01*
X113908580Y-73693851D01*
X114042824Y-73643526D01*
X114050003Y-73638146D01*
X114050006Y-73638144D01*
X114150365Y-73562928D01*
X114157546Y-73557546D01*
X114203373Y-73496400D01*
X114238144Y-73450006D01*
X114238146Y-73450003D01*
X114243526Y-73442824D01*
X114293851Y-73308580D01*
X114300500Y-73247377D01*
X114300500Y-72885413D01*
X117012200Y-72885413D01*
X117012593Y-72892437D01*
X117026228Y-73014001D01*
X117029330Y-73027654D01*
X117083203Y-73182355D01*
X117089255Y-73194988D01*
X117176066Y-73333913D01*
X117184763Y-73344886D01*
X117300197Y-73461129D01*
X117311107Y-73469901D01*
X117449422Y-73557678D01*
X117462007Y-73563817D01*
X117534135Y-73589500D01*
X117548212Y-73590295D01*
X117551200Y-73584624D01*
X117551200Y-72381315D01*
X117546725Y-72366076D01*
X117545335Y-72364871D01*
X117537652Y-72363200D01*
X117030315Y-72363200D01*
X117015076Y-72367675D01*
X117013871Y-72369065D01*
X117012200Y-72376748D01*
X117012200Y-72885413D01*
X114300500Y-72885413D01*
X114300499Y-71837085D01*
X117012200Y-71837085D01*
X117016675Y-71852324D01*
X117018065Y-71853529D01*
X117025748Y-71855200D01*
X117533085Y-71855200D01*
X117548324Y-71850725D01*
X117549529Y-71849335D01*
X117551200Y-71841652D01*
X117551200Y-70641045D01*
X117547227Y-70627514D01*
X117540553Y-70626555D01*
X117472087Y-70649862D01*
X117459421Y-70655823D01*
X117319891Y-70741662D01*
X117308857Y-70750282D01*
X117191814Y-70864900D01*
X117182965Y-70875749D01*
X117094222Y-71013451D01*
X117087995Y-71025997D01*
X117031968Y-71179929D01*
X117028675Y-71193544D01*
X117012697Y-71320023D01*
X117012200Y-71327913D01*
X117012200Y-71837085D01*
X114300499Y-71837085D01*
X114300499Y-70812624D01*
X114300130Y-70809224D01*
X114294705Y-70759278D01*
X114294704Y-70759274D01*
X114293851Y-70751420D01*
X114243526Y-70617176D01*
X114238146Y-70609997D01*
X114238144Y-70609994D01*
X114162928Y-70509635D01*
X114157546Y-70502454D01*
X114150365Y-70497072D01*
X114050006Y-70421856D01*
X114050003Y-70421854D01*
X114042824Y-70416474D01*
X113932108Y-70374969D01*
X113915975Y-70368921D01*
X113915973Y-70368921D01*
X113908580Y-70366149D01*
X113900730Y-70365296D01*
X113900729Y-70365296D01*
X113850774Y-70359869D01*
X113850773Y-70359869D01*
X113847377Y-70359500D01*
X112926500Y-70359500D01*
X112858379Y-70339498D01*
X112811886Y-70285842D01*
X112800500Y-70233500D01*
X112800500Y-70204845D01*
X112785546Y-70071528D01*
X112726485Y-69901927D01*
X112714082Y-69882077D01*
X112635049Y-69755599D01*
X112631316Y-69749625D01*
X112567771Y-69685635D01*
X112509733Y-69627190D01*
X112509729Y-69627187D01*
X112504770Y-69622193D01*
X112493761Y-69615206D01*
X112424215Y-69571071D01*
X112353136Y-69525963D01*
X112300188Y-69507109D01*
X112190586Y-69468081D01*
X112190581Y-69468080D01*
X112183951Y-69465719D01*
X112176965Y-69464886D01*
X112176961Y-69464885D01*
X112049177Y-69449648D01*
X112005624Y-69444455D01*
X111998621Y-69445191D01*
X111998620Y-69445191D01*
X111834025Y-69462490D01*
X111834021Y-69462491D01*
X111827017Y-69463227D01*
X111820346Y-69465498D01*
X111663677Y-69518832D01*
X111663674Y-69518833D01*
X111657007Y-69521103D01*
X111651009Y-69524793D01*
X111651007Y-69524794D01*
X111620406Y-69543620D01*
X111504045Y-69615206D01*
X111499014Y-69620132D01*
X111499011Y-69620135D01*
X111453094Y-69665101D01*
X111375732Y-69740859D01*
X111371913Y-69746784D01*
X111371912Y-69746786D01*
X111353861Y-69774796D01*
X111278446Y-69891817D01*
X111276037Y-69898437D01*
X111276035Y-69898440D01*
X111233962Y-70014035D01*
X111217022Y-70060578D01*
X111216140Y-70067561D01*
X111200898Y-70188220D01*
X111199500Y-70199283D01*
X111199500Y-70233501D01*
X111179498Y-70301622D01*
X111125842Y-70348115D01*
X111073500Y-70359501D01*
X110152624Y-70359501D01*
X110149230Y-70359870D01*
X110149224Y-70359870D01*
X110099278Y-70365295D01*
X110099274Y-70365296D01*
X110091420Y-70366149D01*
X109957176Y-70416474D01*
X109949997Y-70421854D01*
X109949994Y-70421856D01*
X109849635Y-70497072D01*
X109842454Y-70502454D01*
X109837072Y-70509635D01*
X109761856Y-70609994D01*
X109761854Y-70609997D01*
X109756474Y-70617176D01*
X109706149Y-70751420D01*
X109704825Y-70750924D01*
X109673812Y-70805207D01*
X109610855Y-70838025D01*
X109540150Y-70831596D01*
X109484145Y-70787962D01*
X109478003Y-70778560D01*
X109421135Y-70682402D01*
X109422457Y-70681620D01*
X109399772Y-70623855D01*
X109413668Y-70554231D01*
X109436105Y-70523688D01*
X109539373Y-70420240D01*
X109544543Y-70415061D01*
X109632549Y-70272287D01*
X109685350Y-70113098D01*
X109689480Y-70072796D01*
X109695172Y-70017233D01*
X109695500Y-70014035D01*
X109695499Y-69405966D01*
X109685093Y-69305665D01*
X109682914Y-69299134D01*
X109682913Y-69299129D01*
X109634332Y-69153516D01*
X109632014Y-69146568D01*
X109543758Y-69003948D01*
X109425061Y-68885457D01*
X109282287Y-68797451D01*
X109273231Y-68794447D01*
X109187101Y-68765879D01*
X109123098Y-68744650D01*
X109116265Y-68743950D01*
X109116261Y-68743949D01*
X109063654Y-68738559D01*
X109024035Y-68734500D01*
X108759556Y-68734500D01*
X108490966Y-68734501D01*
X108390665Y-68744907D01*
X108384134Y-68747086D01*
X108384129Y-68747087D01*
X108260591Y-68788303D01*
X108231568Y-68797986D01*
X108088948Y-68886242D01*
X108083774Y-68891425D01*
X108064420Y-68910812D01*
X108002137Y-68944891D01*
X107931317Y-68939886D01*
X107886230Y-68910966D01*
X107859921Y-68884702D01*
X107848509Y-68875690D01*
X107716709Y-68794447D01*
X107703532Y-68788303D01*
X107556157Y-68739421D01*
X107542790Y-68736555D01*
X107453300Y-68727386D01*
X107439376Y-68731475D01*
X107438171Y-68732865D01*
X107436500Y-68740548D01*
X107436500Y-70674885D01*
X107440975Y-70690124D01*
X107442365Y-70691329D01*
X107449321Y-70692842D01*
X107452782Y-70692663D01*
X107544021Y-70683196D01*
X107557417Y-70680303D01*
X107704687Y-70631170D01*
X107717866Y-70624996D01*
X107842300Y-70547994D01*
X107910752Y-70529156D01*
X107978522Y-70550317D01*
X108024093Y-70604758D01*
X108032997Y-70675194D01*
X108017057Y-70719277D01*
X107963863Y-70809224D01*
X107957131Y-70820607D01*
X107954920Y-70828218D01*
X107954919Y-70828220D01*
X107914129Y-70968619D01*
X107914128Y-70968624D01*
X107912335Y-70974796D01*
X107909500Y-71010819D01*
X107909501Y-71409180D01*
X107912335Y-71445204D01*
X107914130Y-71451384D01*
X107914131Y-71451387D01*
X107947398Y-71565892D01*
X107957131Y-71599393D01*
X107990528Y-71655863D01*
X108007986Y-71724677D01*
X107990528Y-71784136D01*
X107957131Y-71840607D01*
X107954920Y-71848218D01*
X107954919Y-71848220D01*
X107914129Y-71988619D01*
X107914128Y-71988624D01*
X107912335Y-71994796D01*
X107911831Y-72001206D01*
X107910008Y-72024368D01*
X107909500Y-72030819D01*
X107909500Y-72078364D01*
X107889498Y-72146485D01*
X107872595Y-72167459D01*
X107417459Y-72622595D01*
X107355147Y-72656621D01*
X107328364Y-72659500D01*
X107307002Y-72659500D01*
X107233742Y-72636013D01*
X107232177Y-72634894D01*
X107192404Y-72606471D01*
X107093216Y-72564875D01*
X107033284Y-72539742D01*
X107026786Y-72537017D01*
X107019852Y-72535800D01*
X107019840Y-72535797D01*
X106978708Y-72528581D01*
X106960828Y-72524075D01*
X106958947Y-72523451D01*
X106952077Y-72520212D01*
X106868988Y-72503393D01*
X106793346Y-72488080D01*
X106793342Y-72488080D01*
X106785899Y-72486573D01*
X106778461Y-72486879D01*
X106777994Y-72486828D01*
X106771329Y-72485001D01*
X106763077Y-72484953D01*
X106763075Y-72484953D01*
X106747559Y-72484863D01*
X106730848Y-72484767D01*
X106729327Y-72484712D01*
X106727943Y-72484530D01*
X106695616Y-72484530D01*
X106627495Y-72464528D01*
X106613104Y-72453755D01*
X106596735Y-72439571D01*
X106589052Y-72437900D01*
X106151210Y-72437900D01*
X106145047Y-72437734D01*
X106141977Y-72437400D01*
X106132675Y-72437400D01*
X105420599Y-72437401D01*
X105352479Y-72417399D01*
X105305986Y-72363743D01*
X105294600Y-72311401D01*
X105294600Y-72015900D01*
X105314602Y-71947779D01*
X105368258Y-71901286D01*
X105420600Y-71889900D01*
X105468600Y-71889900D01*
X105536721Y-71909902D01*
X105583214Y-71963558D01*
X105594600Y-72015900D01*
X105594600Y-72119785D01*
X105599075Y-72135024D01*
X105600465Y-72136229D01*
X105608148Y-72137900D01*
X106584484Y-72137900D01*
X106599723Y-72133425D01*
X106600928Y-72132035D01*
X106602599Y-72124352D01*
X106602599Y-72093231D01*
X106602229Y-72086410D01*
X106596705Y-72035548D01*
X106593079Y-72020296D01*
X106547924Y-71899846D01*
X106539386Y-71884251D01*
X106462885Y-71782176D01*
X106450324Y-71769615D01*
X106348249Y-71693114D01*
X106332654Y-71684576D01*
X106241026Y-71650226D01*
X106184262Y-71607584D01*
X106169792Y-71572511D01*
X106164510Y-71566401D01*
X106149215Y-71561900D01*
X104956715Y-71561900D01*
X104941476Y-71566375D01*
X104940271Y-71567765D01*
X104938600Y-71575448D01*
X104938600Y-71956247D01*
X104918598Y-72024368D01*
X104864942Y-72070861D01*
X104794668Y-72080965D01*
X104738539Y-72058183D01*
X104630103Y-71979400D01*
X104630102Y-71979399D01*
X104624761Y-71975519D01*
X104618733Y-71972835D01*
X104618731Y-71972834D01*
X104505351Y-71922354D01*
X104451255Y-71876374D01*
X104430600Y-71807247D01*
X104430600Y-71580015D01*
X104426125Y-71564776D01*
X104424735Y-71563571D01*
X104417052Y-71561900D01*
X103224198Y-71561900D01*
X103210667Y-71565873D01*
X103209312Y-71575299D01*
X103230794Y-71664437D01*
X103234683Y-71675732D01*
X103317229Y-71857282D01*
X103323176Y-71867624D01*
X103438564Y-72030291D01*
X103446369Y-72039333D01*
X103460373Y-72052739D01*
X103495749Y-72114294D01*
X103492230Y-72185203D01*
X103475724Y-72216774D01*
X103472405Y-72220460D01*
X103469105Y-72226175D01*
X103469104Y-72226177D01*
X103384416Y-72372861D01*
X103380386Y-72379841D01*
X103374556Y-72397785D01*
X103329713Y-72535797D01*
X103323515Y-72554871D01*
X103322825Y-72561434D01*
X103322825Y-72561435D01*
X103316440Y-72622189D01*
X103304278Y-72737900D01*
X103304968Y-72744465D01*
X103322196Y-72908376D01*
X103323515Y-72920929D01*
X103325555Y-72927206D01*
X103325555Y-72927208D01*
X103349273Y-73000204D01*
X103380386Y-73095959D01*
X103472405Y-73255340D01*
X103476823Y-73260247D01*
X103476824Y-73260248D01*
X103560166Y-73352809D01*
X103595550Y-73392107D01*
X103600892Y-73395988D01*
X103600894Y-73395990D01*
X103727058Y-73487653D01*
X103744439Y-73500281D01*
X103750467Y-73502965D01*
X103750469Y-73502966D01*
X103906535Y-73572451D01*
X103912566Y-73575136D01*
X104002574Y-73594268D01*
X104086124Y-73612028D01*
X104086129Y-73612028D01*
X104092581Y-73613400D01*
X104168100Y-73613400D01*
X104236221Y-73633402D01*
X104282714Y-73687058D01*
X104294100Y-73739400D01*
X104294101Y-73911744D01*
X104294101Y-74085276D01*
X104297444Y-74116047D01*
X104298339Y-74124290D01*
X104298339Y-74151504D01*
X104294100Y-74190523D01*
X104294101Y-74585276D01*
X104294470Y-74588672D01*
X104294470Y-74588674D01*
X104298339Y-74624290D01*
X104298339Y-74651504D01*
X104294100Y-74690523D01*
X104294101Y-75085276D01*
X104294470Y-75088672D01*
X104294470Y-75088674D01*
X104298339Y-75124290D01*
X104298339Y-75151504D01*
X104294100Y-75190523D01*
X104294101Y-75585276D01*
X104294470Y-75588672D01*
X104294470Y-75588674D01*
X104298339Y-75624290D01*
X104298339Y-75651504D01*
X104294100Y-75690523D01*
X104294101Y-76085276D01*
X104294470Y-76088672D01*
X104294470Y-76088674D01*
X104298339Y-76124290D01*
X104298339Y-76151504D01*
X104294100Y-76190523D01*
X104294101Y-76585276D01*
X104297795Y-76619278D01*
X104298339Y-76624290D01*
X104298339Y-76651504D01*
X104294100Y-76690523D01*
X104294101Y-77085276D01*
X104294470Y-77088672D01*
X104294470Y-77088674D01*
X104298339Y-77124290D01*
X104298339Y-77151504D01*
X104294100Y-77190523D01*
X104294101Y-77383226D01*
X104294101Y-77536400D01*
X104274099Y-77604520D01*
X104220444Y-77651013D01*
X104168101Y-77662400D01*
X104092581Y-77662400D01*
X104086129Y-77663772D01*
X104086124Y-77663772D01*
X104002573Y-77681532D01*
X103912566Y-77700664D01*
X103906536Y-77703349D01*
X103906535Y-77703349D01*
X103750469Y-77772834D01*
X103750467Y-77772835D01*
X103744439Y-77775519D01*
X103739098Y-77779399D01*
X103739097Y-77779400D01*
X103600894Y-77879810D01*
X103600892Y-77879812D01*
X103595550Y-77883693D01*
X103591129Y-77888603D01*
X103591128Y-77888604D01*
X103557314Y-77926159D01*
X103472405Y-78020460D01*
X103434544Y-78086037D01*
X103387720Y-78167139D01*
X103380386Y-78179841D01*
X103323515Y-78354871D01*
X103322825Y-78361434D01*
X103322825Y-78361435D01*
X103310998Y-78473962D01*
X103304278Y-78537900D01*
X103323515Y-78720929D01*
X103325555Y-78727206D01*
X103325555Y-78727208D01*
X103327708Y-78733833D01*
X103380386Y-78895959D01*
X103472405Y-79055340D01*
X103476526Y-79059917D01*
X103500330Y-79126630D01*
X103484251Y-79195781D01*
X103469701Y-79216405D01*
X103382389Y-79317023D01*
X103375453Y-79326747D01*
X103275590Y-79499367D01*
X103270616Y-79510231D01*
X103205193Y-79698627D01*
X103204952Y-79699616D01*
X101859675Y-79699616D01*
X101838406Y-79611363D01*
X101834517Y-79600068D01*
X101751971Y-79418518D01*
X101746024Y-79408176D01*
X101630632Y-79245503D01*
X101622839Y-79236475D01*
X101478769Y-79098558D01*
X101469404Y-79091162D01*
X101301859Y-78982979D01*
X101291255Y-78977483D01*
X101106288Y-78902939D01*
X101094830Y-78899545D01*
X100897672Y-78861043D01*
X100888809Y-78859966D01*
X100886100Y-78859900D01*
X100756715Y-78859900D01*
X100741476Y-78864375D01*
X100740271Y-78865765D01*
X100738600Y-78873448D01*
X100738600Y-79695785D01*
X100230600Y-79695785D01*
X100230600Y-78878015D01*
X100226125Y-78862776D01*
X100224735Y-78861571D01*
X100217052Y-78859900D01*
X100134768Y-78859900D01*
X100128792Y-78860185D01*
X99980106Y-78874371D01*
X99968372Y-78876630D01*
X99777001Y-78932772D01*
X99765930Y-78937200D01*
X99702702Y-78969765D01*
X99632983Y-78983174D01*
X99567082Y-78956761D01*
X99525923Y-78898913D01*
X99519009Y-78857749D01*
X99519009Y-72420891D01*
X99539011Y-72352770D01*
X99592667Y-72306277D01*
X99662941Y-72296173D01*
X99692107Y-72304025D01*
X99862911Y-72372861D01*
X99874370Y-72376255D01*
X100071528Y-72414757D01*
X100080391Y-72415834D01*
X100083100Y-72415900D01*
X100212485Y-72415900D01*
X100227724Y-72411425D01*
X100228929Y-72410035D01*
X100230600Y-72402352D01*
X100230600Y-72397785D01*
X100738600Y-72397785D01*
X100743075Y-72413024D01*
X100744465Y-72414229D01*
X100752148Y-72415900D01*
X100834432Y-72415900D01*
X100840408Y-72415615D01*
X100989094Y-72401429D01*
X101000828Y-72399170D01*
X101192199Y-72343028D01*
X101203275Y-72338598D01*
X101380578Y-72247281D01*
X101390624Y-72240831D01*
X101547457Y-72117638D01*
X101556106Y-72109401D01*
X101686812Y-71958777D01*
X101693747Y-71949053D01*
X101793610Y-71776433D01*
X101798584Y-71765569D01*
X101864007Y-71577173D01*
X101864248Y-71576184D01*
X101862780Y-71565892D01*
X101849215Y-71561900D01*
X100756715Y-71561900D01*
X100741476Y-71566375D01*
X100740271Y-71567765D01*
X100738600Y-71575448D01*
X100738600Y-72397785D01*
X100230600Y-72397785D01*
X100230600Y-71035785D01*
X100738600Y-71035785D01*
X100743075Y-71051024D01*
X100744465Y-71052229D01*
X100752148Y-71053900D01*
X101845002Y-71053900D01*
X101858533Y-71049927D01*
X101859888Y-71040501D01*
X101859675Y-71039616D01*
X103204952Y-71039616D01*
X103206420Y-71049908D01*
X103219985Y-71053900D01*
X104412485Y-71053900D01*
X104427724Y-71049425D01*
X104428929Y-71048035D01*
X104430600Y-71040352D01*
X104430600Y-71035785D01*
X104938600Y-71035785D01*
X104943075Y-71051024D01*
X104944465Y-71052229D01*
X104952148Y-71053900D01*
X106145002Y-71053900D01*
X106158533Y-71049927D01*
X106159888Y-71040501D01*
X106138406Y-70951363D01*
X106134517Y-70940068D01*
X106051971Y-70758518D01*
X106046024Y-70748176D01*
X105930632Y-70585503D01*
X105922839Y-70576475D01*
X105778769Y-70438558D01*
X105769404Y-70431162D01*
X105601859Y-70322979D01*
X105591255Y-70317483D01*
X105406288Y-70242939D01*
X105394830Y-70239545D01*
X105197672Y-70201043D01*
X105188809Y-70199966D01*
X105186100Y-70199900D01*
X104956715Y-70199900D01*
X104941476Y-70204375D01*
X104940271Y-70205765D01*
X104938600Y-70213448D01*
X104938600Y-71035785D01*
X104430600Y-71035785D01*
X104430600Y-70218015D01*
X104426125Y-70202776D01*
X104424735Y-70201571D01*
X104417052Y-70199900D01*
X104234768Y-70199900D01*
X104228792Y-70200185D01*
X104080106Y-70214371D01*
X104068372Y-70216630D01*
X103877001Y-70272772D01*
X103865925Y-70277202D01*
X103688622Y-70368519D01*
X103678576Y-70374969D01*
X103521743Y-70498162D01*
X103513094Y-70506399D01*
X103382388Y-70657023D01*
X103375453Y-70666747D01*
X103275590Y-70839367D01*
X103270616Y-70850231D01*
X103205193Y-71038627D01*
X103204952Y-71039616D01*
X101859675Y-71039616D01*
X101838406Y-70951363D01*
X101834517Y-70940068D01*
X101751971Y-70758518D01*
X101746024Y-70748176D01*
X101630632Y-70585503D01*
X101622839Y-70576475D01*
X101478769Y-70438558D01*
X101469404Y-70431162D01*
X101301859Y-70322979D01*
X101291255Y-70317483D01*
X101106288Y-70242939D01*
X101094830Y-70239545D01*
X100897672Y-70201043D01*
X100888809Y-70199966D01*
X100886100Y-70199900D01*
X100756715Y-70199900D01*
X100741476Y-70204375D01*
X100740271Y-70205765D01*
X100738600Y-70213448D01*
X100738600Y-71035785D01*
X100230600Y-71035785D01*
X100230600Y-70218015D01*
X100226125Y-70202776D01*
X100224735Y-70201571D01*
X100217052Y-70199900D01*
X100134768Y-70199900D01*
X100128792Y-70200185D01*
X99980106Y-70214371D01*
X99968372Y-70216630D01*
X99777001Y-70272772D01*
X99765930Y-70277200D01*
X99702702Y-70309765D01*
X99632983Y-70323174D01*
X99567082Y-70296761D01*
X99525923Y-70238913D01*
X99519009Y-70197749D01*
X99519009Y-70011266D01*
X106237000Y-70011266D01*
X106237337Y-70017782D01*
X106246804Y-70109021D01*
X106249697Y-70122417D01*
X106298830Y-70269687D01*
X106305004Y-70282866D01*
X106386470Y-70414514D01*
X106395506Y-70425915D01*
X106505080Y-70535298D01*
X106516491Y-70544310D01*
X106648291Y-70625553D01*
X106661468Y-70631697D01*
X106808843Y-70680579D01*
X106822210Y-70683445D01*
X106911700Y-70692614D01*
X106925624Y-70688525D01*
X106926829Y-70687135D01*
X106928500Y-70679452D01*
X106928500Y-69982115D01*
X106924025Y-69966876D01*
X106922635Y-69965671D01*
X106914952Y-69964000D01*
X106255115Y-69964000D01*
X106239876Y-69968475D01*
X106238671Y-69969865D01*
X106237000Y-69977548D01*
X106237000Y-70011266D01*
X99519009Y-70011266D01*
X99519009Y-69106423D01*
X100258703Y-69106423D01*
X100266227Y-69116854D01*
X100405483Y-69229020D01*
X100411657Y-69233408D01*
X100682271Y-69402178D01*
X100688931Y-69405794D01*
X100977852Y-69540827D01*
X100984905Y-69543620D01*
X101287970Y-69642970D01*
X101295282Y-69644888D01*
X101608092Y-69707109D01*
X101615590Y-69708137D01*
X101933610Y-69732328D01*
X101941173Y-69732446D01*
X102259785Y-69718257D01*
X102267326Y-69717465D01*
X102581924Y-69665101D01*
X102589302Y-69663411D01*
X102895355Y-69573625D01*
X102902450Y-69571071D01*
X103195496Y-69445169D01*
X103202263Y-69441765D01*
X103208943Y-69437885D01*
X106237000Y-69437885D01*
X106241475Y-69453124D01*
X106242865Y-69454329D01*
X106250548Y-69456000D01*
X106910385Y-69456000D01*
X106925624Y-69451525D01*
X106926829Y-69450135D01*
X106928500Y-69442452D01*
X106928500Y-68745115D01*
X106924025Y-68729876D01*
X106922635Y-68728671D01*
X106915679Y-68727158D01*
X106912218Y-68727337D01*
X106820979Y-68736804D01*
X106807583Y-68739697D01*
X106660313Y-68788830D01*
X106647134Y-68795004D01*
X106515486Y-68876470D01*
X106504085Y-68885506D01*
X106394702Y-68995080D01*
X106385690Y-69006491D01*
X106304447Y-69138291D01*
X106298303Y-69151468D01*
X106249421Y-69298843D01*
X106246555Y-69312210D01*
X106237328Y-69402270D01*
X106237000Y-69408685D01*
X106237000Y-69437885D01*
X103208943Y-69437885D01*
X103478042Y-69281580D01*
X103484349Y-69277390D01*
X103694305Y-69118889D01*
X103702761Y-69107496D01*
X103696045Y-69095256D01*
X101992810Y-67392020D01*
X101978869Y-67384408D01*
X101977034Y-67384539D01*
X101970420Y-67388790D01*
X100265818Y-69093393D01*
X100258703Y-69106423D01*
X99519009Y-69106423D01*
X99519009Y-68631792D01*
X99539011Y-68563671D01*
X99592667Y-68517178D01*
X99662941Y-68507074D01*
X99727521Y-68536568D01*
X99745172Y-68555350D01*
X99881463Y-68733934D01*
X99892989Y-68742396D01*
X99905054Y-68735735D01*
X101619659Y-67021131D01*
X102344408Y-67021131D01*
X102344539Y-67022966D01*
X102348790Y-67029580D01*
X104053285Y-68734074D01*
X104066408Y-68741240D01*
X104076709Y-68733851D01*
X104180751Y-68606055D01*
X104185164Y-68599914D01*
X104355349Y-68330187D01*
X104359005Y-68323536D01*
X104495544Y-68035335D01*
X104498375Y-68028295D01*
X104599306Y-67725767D01*
X104601270Y-67718433D01*
X104665122Y-67405989D01*
X104666194Y-67398465D01*
X104692173Y-67079051D01*
X104692378Y-67074576D01*
X104692927Y-67022221D01*
X104692817Y-67017789D01*
X104679409Y-66795383D01*
X133807388Y-66795383D01*
X133823245Y-67113914D01*
X133824076Y-67121443D01*
X133878085Y-67435759D01*
X133879818Y-67443146D01*
X133971196Y-67748695D01*
X133973799Y-67755808D01*
X134101227Y-68048173D01*
X134104669Y-68054929D01*
X134266296Y-68329865D01*
X134270519Y-68336150D01*
X134421463Y-68533934D01*
X134432989Y-68542396D01*
X134445054Y-68535735D01*
X136147980Y-66832810D01*
X136155592Y-66818869D01*
X136155461Y-66817034D01*
X136151210Y-66810420D01*
X134446445Y-65105656D01*
X134433510Y-65098592D01*
X134422949Y-65106252D01*
X134302766Y-65257072D01*
X134298410Y-65263270D01*
X134131059Y-65534764D01*
X134127479Y-65541440D01*
X133993956Y-65831074D01*
X133991206Y-65838125D01*
X133893444Y-66141708D01*
X133891561Y-66149041D01*
X133830979Y-66462170D01*
X133829992Y-66469670D01*
X133807467Y-66787802D01*
X133807388Y-66795383D01*
X104679409Y-66795383D01*
X104673529Y-66697853D01*
X104672621Y-66690351D01*
X104615319Y-66376593D01*
X104613518Y-66369260D01*
X104518935Y-66064655D01*
X104516263Y-66057583D01*
X104385781Y-65766570D01*
X104382264Y-65759843D01*
X104217771Y-65486621D01*
X104213481Y-65480377D01*
X104077991Y-65306647D01*
X104066199Y-65298178D01*
X104054486Y-65304725D01*
X102352020Y-67007190D01*
X102344408Y-67021131D01*
X101619659Y-67021131D01*
X101980000Y-66660790D01*
X103694561Y-64946228D01*
X103701571Y-64933390D01*
X103693776Y-64922700D01*
X103531298Y-64794613D01*
X103525075Y-64790288D01*
X103468403Y-64755763D01*
X103420634Y-64703240D01*
X103408844Y-64633229D01*
X103436776Y-64567958D01*
X103495562Y-64528150D01*
X103533956Y-64522158D01*
X134704117Y-64522158D01*
X134772238Y-64542160D01*
G37*
%TD.AperFunction*%
%TA.AperFunction,Conductor*%
G36*
X137215381Y-84152273D02*
G01*
X137260444Y-84181234D01*
X138352218Y-85273008D01*
X138386244Y-85335320D01*
X138381179Y-85406135D01*
X138352218Y-85451198D01*
X138171198Y-85632218D01*
X138108886Y-85666244D01*
X138038071Y-85661179D01*
X137993008Y-85632218D01*
X136901234Y-84540444D01*
X136867208Y-84478132D01*
X136872273Y-84407317D01*
X136901234Y-84362254D01*
X137082254Y-84181234D01*
X137144566Y-84147208D01*
X137215381Y-84152273D01*
G37*
%TD.AperFunction*%
%TA.AperFunction,Conductor*%
G36*
X101322683Y-84152273D02*
G01*
X101367746Y-84181234D01*
X101548766Y-84362254D01*
X101582792Y-84424566D01*
X101577727Y-84495381D01*
X101548766Y-84540444D01*
X100456992Y-85632218D01*
X100394680Y-85666244D01*
X100323865Y-85661179D01*
X100278802Y-85632218D01*
X100097782Y-85451198D01*
X100063756Y-85388886D01*
X100068821Y-85318071D01*
X100097782Y-85273008D01*
X101189556Y-84181234D01*
X101251868Y-84147208D01*
X101322683Y-84152273D01*
G37*
%TD.AperFunction*%
%TA.AperFunction,Conductor*%
G36*
X100401929Y-65098821D02*
G01*
X100446992Y-65127782D01*
X101538766Y-66219556D01*
X101572792Y-66281868D01*
X101567727Y-66352683D01*
X101538766Y-66397746D01*
X101357746Y-66578766D01*
X101295434Y-66612792D01*
X101224619Y-66607727D01*
X101179556Y-66578766D01*
X100087782Y-65486992D01*
X100053756Y-65424680D01*
X100058821Y-65353865D01*
X100087782Y-65308802D01*
X100268802Y-65127782D01*
X100331114Y-65093756D01*
X100401929Y-65098821D01*
G37*
%TD.AperFunction*%
%TA.AperFunction,Conductor*%
G36*
X138105068Y-64979888D02*
G01*
X138144114Y-65003212D01*
X138280092Y-65122462D01*
X138291745Y-65134116D01*
X138341651Y-65191022D01*
X138371528Y-65255426D01*
X138361843Y-65325759D01*
X138336015Y-65363195D01*
X137320444Y-66378766D01*
X137258132Y-66412792D01*
X137187317Y-66407727D01*
X137142254Y-66378766D01*
X136961234Y-66197746D01*
X136927208Y-66135434D01*
X136932273Y-66064619D01*
X136961234Y-66019556D01*
X137971941Y-65008849D01*
X138034253Y-64974823D01*
X138105068Y-64979888D01*
G37*
%TD.AperFunction*%
%TD*%
M02*
