%TF.GenerationSoftware,KiCad,Pcbnew,6.0.4-6f826c9f35~116~ubuntu20.04.1*%
%TF.CreationDate,2022-04-28T13:00:12+07:00*%
%TF.ProjectId,W2AEWPulseGenerator,57324145-5750-4756-9c73-6547656e6572,rev?*%
%TF.SameCoordinates,Original*%
%TF.FileFunction,Soldermask,Top*%
%TF.FilePolarity,Negative*%
%FSLAX46Y46*%
G04 Gerber Fmt 4.6, Leading zero omitted, Abs format (unit mm)*
G04 Created by KiCad (PCBNEW 6.0.4-6f826c9f35~116~ubuntu20.04.1) date 2022-04-28 13:00:12*
%MOMM*%
%LPD*%
G01*
G04 APERTURE LIST*
G04 Aperture macros list*
%AMRoundRect*
0 Rectangle with rounded corners*
0 $1 Rounding radius*
0 $2 $3 $4 $5 $6 $7 $8 $9 X,Y pos of 4 corners*
0 Add a 4 corners polygon primitive as box body*
4,1,4,$2,$3,$4,$5,$6,$7,$8,$9,$2,$3,0*
0 Add four circle primitives for the rounded corners*
1,1,$1+$1,$2,$3*
1,1,$1+$1,$4,$5*
1,1,$1+$1,$6,$7*
1,1,$1+$1,$8,$9*
0 Add four rect primitives between the rounded corners*
20,1,$1+$1,$2,$3,$4,$5,0*
20,1,$1+$1,$4,$5,$6,$7,0*
20,1,$1+$1,$6,$7,$8,$9,0*
20,1,$1+$1,$8,$9,$2,$3,0*%
G04 Aperture macros list end*
%ADD10C,1.100000*%
%ADD11C,4.800000*%
%ADD12RoundRect,0.450000X-0.475000X0.250000X-0.475000X-0.250000X0.475000X-0.250000X0.475000X0.250000X0*%
%ADD13RoundRect,0.200000X-0.550000X1.250000X-0.550000X-1.250000X0.550000X-1.250000X0.550000X1.250000X0*%
%ADD14RoundRect,0.200000X-1.800000X1.170000X-1.800000X-1.170000X1.800000X-1.170000X1.800000X1.170000X0*%
%ADD15RoundRect,0.335000X-0.185000X0.135000X-0.185000X-0.135000X0.185000X-0.135000X0.185000X0.135000X0*%
%ADD16RoundRect,0.335000X0.185000X-0.135000X0.185000X0.135000X-0.185000X0.135000X-0.185000X-0.135000X0*%
%ADD17C,2.401600*%
%ADD18C,2.601600*%
%ADD19RoundRect,0.340000X-0.140000X-0.170000X0.140000X-0.170000X0.140000X0.170000X-0.140000X0.170000X0*%
%ADD20C,1.150000*%
%ADD21O,2.400000X1.600000*%
%ADD22O,2.200000X1.600000*%
%ADD23RoundRect,0.200000X-0.650000X0.150000X-0.650000X-0.150000X0.650000X-0.150000X0.650000X0.150000X0*%
%ADD24RoundRect,0.450000X0.475000X-0.250000X0.475000X0.250000X-0.475000X0.250000X-0.475000X-0.250000X0*%
%ADD25RoundRect,0.418750X-0.218750X-0.256250X0.218750X-0.256250X0.218750X0.256250X-0.218750X0.256250X0*%
%ADD26RoundRect,0.335000X-0.135000X-0.185000X0.135000X-0.185000X0.135000X0.185000X-0.135000X0.185000X0*%
%ADD27RoundRect,0.425000X-0.225000X-0.250000X0.225000X-0.250000X0.225000X0.250000X-0.225000X0.250000X0*%
%ADD28O,0.970000X2.440000*%
G04 APERTURE END LIST*
D10*
%TO.C,H3*%
X136460000Y-82090000D03*
X135293274Y-82573274D03*
X134810000Y-83740000D03*
D11*
X136460000Y-83740000D03*
D10*
X137626726Y-82573274D03*
X136460000Y-85390000D03*
X135293274Y-84906726D03*
X138110000Y-83740000D03*
X137626726Y-84906726D03*
%TD*%
%TO.C,H4*%
X100823274Y-82573274D03*
X100823274Y-84906726D03*
X101990000Y-82090000D03*
X103156726Y-84906726D03*
X101990000Y-85390000D03*
X103640000Y-83740000D03*
X100340000Y-83740000D03*
D11*
X101990000Y-83740000D03*
D10*
X103156726Y-82573274D03*
%TD*%
D12*
%TO.C,C4*%
X114250000Y-80250000D03*
X114250000Y-82150000D03*
%TD*%
D13*
%TO.C,U2*%
X109700000Y-77970000D03*
X112000000Y-77970000D03*
X114300000Y-77970000D03*
D14*
X112000000Y-72030000D03*
%TD*%
D15*
%TO.C,R6*%
X117830600Y-79373000D03*
X117830600Y-80393000D03*
%TD*%
D16*
%TO.C,R7*%
X108730000Y-72230000D03*
X108730000Y-71210000D03*
%TD*%
D17*
%TO.C,X1*%
X133921150Y-74904600D03*
D18*
X131371250Y-72354700D03*
X136471050Y-72354700D03*
X136471050Y-77454500D03*
X131371250Y-77454500D03*
%TD*%
D19*
%TO.C,C2*%
X126494600Y-77647800D03*
X127454600Y-77647800D03*
%TD*%
D15*
%TO.C,R4*%
X122910600Y-79347600D03*
X122910600Y-80367600D03*
%TD*%
D16*
%TO.C,R3*%
X119075200Y-70387400D03*
X119075200Y-69367400D03*
%TD*%
D20*
%TO.C,USBC1*%
X104184600Y-72737900D03*
X104184600Y-78537900D03*
D21*
X104684600Y-71307900D03*
D22*
X100484600Y-79967900D03*
D21*
X104684600Y-79967900D03*
D22*
X100484600Y-71307900D03*
D23*
X105444600Y-72287900D03*
X105444600Y-73087900D03*
X105444600Y-74387900D03*
X105444600Y-75387900D03*
X105444600Y-75887900D03*
X105444600Y-76887900D03*
X105444600Y-78187900D03*
X105444600Y-78987900D03*
X105444600Y-78687900D03*
X105444600Y-77887900D03*
X105444600Y-77387900D03*
X105444600Y-76387900D03*
X105444600Y-74887900D03*
X105444600Y-73887900D03*
X105444600Y-73387900D03*
X105444600Y-72587900D03*
%TD*%
D24*
%TO.C,C3*%
X112000000Y-82200000D03*
X112000000Y-80300000D03*
%TD*%
D16*
%TO.C,R2*%
X121615200Y-70385400D03*
X121615200Y-69365400D03*
%TD*%
D15*
%TO.C,R5*%
X120345200Y-79373000D03*
X120345200Y-80393000D03*
%TD*%
D10*
%TO.C,H2*%
X103630000Y-67020000D03*
X101980000Y-68670000D03*
X100813274Y-68186726D03*
X100330000Y-67020000D03*
X101980000Y-65370000D03*
X103146726Y-68186726D03*
X103146726Y-65853274D03*
D11*
X101980000Y-67020000D03*
D10*
X100813274Y-65853274D03*
%TD*%
D25*
%TO.C,D1*%
X107182500Y-69710000D03*
X108757500Y-69710000D03*
%TD*%
D26*
%TO.C,R1*%
X124305600Y-70358000D03*
X125325600Y-70358000D03*
%TD*%
D11*
%TO.C,H1*%
X136520000Y-66820000D03*
D10*
X136520000Y-68470000D03*
X138170000Y-66820000D03*
X134870000Y-66820000D03*
X137686726Y-65653274D03*
X135353274Y-67986726D03*
X137686726Y-67986726D03*
X135353274Y-65653274D03*
X136520000Y-65170000D03*
%TD*%
D27*
%TO.C,C1*%
X126631400Y-72085200D03*
X128181400Y-72085200D03*
%TD*%
D28*
%TO.C,U1*%
X125425200Y-72109200D03*
X124155200Y-72109200D03*
X122885200Y-72109200D03*
X121615200Y-72109200D03*
X120345200Y-72109200D03*
X119075200Y-72109200D03*
X117805200Y-72109200D03*
X117805200Y-77649200D03*
X119075200Y-77649200D03*
X120345200Y-77649200D03*
X121615200Y-77649200D03*
X122885200Y-77649200D03*
X124155200Y-77649200D03*
X125425200Y-77649200D03*
%TD*%
M02*
