%TF.GenerationSoftware,KiCad,Pcbnew,6.0.4-6f826c9f35~116~ubuntu20.04.1*%
%TF.CreationDate,2022-04-28T09:27:56+07:00*%
%TF.ProjectId,W2AEWPulseGenerator,57324145-5750-4756-9c73-6547656e6572,rev?*%
%TF.SameCoordinates,Original*%
%TF.FileFunction,Paste,Top*%
%TF.FilePolarity,Positive*%
%FSLAX46Y46*%
G04 Gerber Fmt 4.6, Leading zero omitted, Abs format (unit mm)*
G04 Created by KiCad (PCBNEW 6.0.4-6f826c9f35~116~ubuntu20.04.1) date 2022-04-28 09:27:56*
%MOMM*%
%LPD*%
G01*
G04 APERTURE LIST*
G04 Aperture macros list*
%AMRoundRect*
0 Rectangle with rounded corners*
0 $1 Rounding radius*
0 $2 $3 $4 $5 $6 $7 $8 $9 X,Y pos of 4 corners*
0 Add a 4 corners polygon primitive as box body*
4,1,4,$2,$3,$4,$5,$6,$7,$8,$9,$2,$3,0*
0 Add four circle primitives for the rounded corners*
1,1,$1+$1,$2,$3*
1,1,$1+$1,$4,$5*
1,1,$1+$1,$6,$7*
1,1,$1+$1,$8,$9*
0 Add four rect primitives between the rounded corners*
20,1,$1+$1,$2,$3,$4,$5,0*
20,1,$1+$1,$4,$5,$6,$7,0*
20,1,$1+$1,$6,$7,$8,$9,0*
20,1,$1+$1,$8,$9,$2,$3,0*%
G04 Aperture macros list end*
%ADD10RoundRect,0.250000X-0.475000X0.250000X-0.475000X-0.250000X0.475000X-0.250000X0.475000X0.250000X0*%
%ADD11R,1.100000X2.500000*%
%ADD12R,3.600000X2.340000*%
%ADD13RoundRect,0.135000X-0.185000X0.135000X-0.185000X-0.135000X0.185000X-0.135000X0.185000X0.135000X0*%
%ADD14RoundRect,0.135000X0.185000X-0.135000X0.185000X0.135000X-0.185000X0.135000X-0.185000X-0.135000X0*%
%ADD15RoundRect,0.140000X-0.140000X-0.170000X0.140000X-0.170000X0.140000X0.170000X-0.140000X0.170000X0*%
%ADD16O,2.000000X1.200000*%
%ADD17O,1.800000X1.200000*%
%ADD18R,1.300000X0.300000*%
%ADD19RoundRect,0.250000X0.475000X-0.250000X0.475000X0.250000X-0.475000X0.250000X-0.475000X-0.250000X0*%
%ADD20RoundRect,0.218750X-0.218750X-0.256250X0.218750X-0.256250X0.218750X0.256250X-0.218750X0.256250X0*%
%ADD21RoundRect,0.135000X-0.135000X-0.185000X0.135000X-0.185000X0.135000X0.185000X-0.135000X0.185000X0*%
%ADD22RoundRect,0.225000X-0.225000X-0.250000X0.225000X-0.250000X0.225000X0.250000X-0.225000X0.250000X0*%
%ADD23O,0.570000X2.040000*%
G04 APERTURE END LIST*
D10*
%TO.C,C4*%
X114250000Y-80250000D03*
X114250000Y-82150000D03*
%TD*%
D11*
%TO.C,U2*%
X109700000Y-77970000D03*
X112000000Y-77970000D03*
X114300000Y-77970000D03*
D12*
X112000000Y-72030000D03*
%TD*%
D13*
%TO.C,R6*%
X117830600Y-79373000D03*
X117830600Y-80393000D03*
%TD*%
D14*
%TO.C,R7*%
X108730000Y-72230000D03*
X108730000Y-71210000D03*
%TD*%
D15*
%TO.C,C2*%
X126494600Y-77647800D03*
X127454600Y-77647800D03*
%TD*%
D13*
%TO.C,R4*%
X122910600Y-79347600D03*
X122910600Y-80367600D03*
%TD*%
D14*
%TO.C,R3*%
X119075200Y-70387400D03*
X119075200Y-69367400D03*
%TD*%
D16*
%TO.C,USBC1*%
X104684600Y-71307900D03*
D17*
X100484600Y-79967900D03*
D16*
X104684600Y-79967900D03*
D17*
X100484600Y-71307900D03*
D18*
X105444600Y-72287900D03*
X105444600Y-73087900D03*
X105444600Y-74387900D03*
X105444600Y-75387900D03*
X105444600Y-75887900D03*
X105444600Y-76887900D03*
X105444600Y-78187900D03*
X105444600Y-78987900D03*
X105444600Y-78687900D03*
X105444600Y-77887900D03*
X105444600Y-77387900D03*
X105444600Y-76387900D03*
X105444600Y-74887900D03*
X105444600Y-73887900D03*
X105444600Y-73387900D03*
X105444600Y-72587900D03*
%TD*%
D19*
%TO.C,C3*%
X112000000Y-82200000D03*
X112000000Y-80300000D03*
%TD*%
D14*
%TO.C,R2*%
X121615200Y-70385400D03*
X121615200Y-69365400D03*
%TD*%
D13*
%TO.C,R5*%
X120345200Y-79373000D03*
X120345200Y-80393000D03*
%TD*%
D20*
%TO.C,D1*%
X107182500Y-69710000D03*
X108757500Y-69710000D03*
%TD*%
D21*
%TO.C,R1*%
X124305600Y-70358000D03*
X125325600Y-70358000D03*
%TD*%
D22*
%TO.C,C1*%
X126631400Y-72085200D03*
X128181400Y-72085200D03*
%TD*%
D23*
%TO.C,U1*%
X125425200Y-72109200D03*
X124155200Y-72109200D03*
X122885200Y-72109200D03*
X121615200Y-72109200D03*
X120345200Y-72109200D03*
X119075200Y-72109200D03*
X117805200Y-72109200D03*
X117805200Y-77649200D03*
X119075200Y-77649200D03*
X120345200Y-77649200D03*
X121615200Y-77649200D03*
X122885200Y-77649200D03*
X124155200Y-77649200D03*
X125425200Y-77649200D03*
%TD*%
M02*
