%TF.GenerationSoftware,KiCad,Pcbnew,6.0.4-6f826c9f35~116~ubuntu20.04.1*%
%TF.CreationDate,2022-04-28T09:27:56+07:00*%
%TF.ProjectId,W2AEWPulseGenerator,57324145-5750-4756-9c73-6547656e6572,rev?*%
%TF.SameCoordinates,Original*%
%TF.FileFunction,Legend,Top*%
%TF.FilePolarity,Positive*%
%FSLAX46Y46*%
G04 Gerber Fmt 4.6, Leading zero omitted, Abs format (unit mm)*
G04 Created by KiCad (PCBNEW 6.0.4-6f826c9f35~116~ubuntu20.04.1) date 2022-04-28 09:27:56*
%MOMM*%
%LPD*%
G01*
G04 APERTURE LIST*
%ADD10C,0.150000*%
%ADD11C,0.300000*%
%ADD12C,0.125000*%
%ADD13C,0.101600*%
%ADD14C,0.120000*%
%ADD15C,0.010000*%
%ADD16C,0.200000*%
%ADD17C,0.250000*%
G04 APERTURE END LIST*
D10*
X117255238Y-83927380D02*
X117255238Y-82927380D01*
X117255238Y-83403571D02*
X117826666Y-83403571D01*
X117826666Y-83927380D02*
X117826666Y-82927380D01*
X118731428Y-83927380D02*
X118731428Y-83403571D01*
X118683809Y-83308333D01*
X118588571Y-83260714D01*
X118398095Y-83260714D01*
X118302857Y-83308333D01*
X118731428Y-83879761D02*
X118636190Y-83927380D01*
X118398095Y-83927380D01*
X118302857Y-83879761D01*
X118255238Y-83784523D01*
X118255238Y-83689285D01*
X118302857Y-83594047D01*
X118398095Y-83546428D01*
X118636190Y-83546428D01*
X118731428Y-83498809D01*
X119207619Y-83260714D02*
X119207619Y-83927380D01*
X119207619Y-83355952D02*
X119255238Y-83308333D01*
X119350476Y-83260714D01*
X119493333Y-83260714D01*
X119588571Y-83308333D01*
X119636190Y-83403571D01*
X119636190Y-83927380D01*
X120064761Y-83879761D02*
X120160000Y-83927380D01*
X120350476Y-83927380D01*
X120445714Y-83879761D01*
X120493333Y-83784523D01*
X120493333Y-83736904D01*
X120445714Y-83641666D01*
X120350476Y-83594047D01*
X120207619Y-83594047D01*
X120112380Y-83546428D01*
X120064761Y-83451190D01*
X120064761Y-83403571D01*
X120112380Y-83308333D01*
X120207619Y-83260714D01*
X120350476Y-83260714D01*
X120445714Y-83308333D01*
X122017142Y-83403571D02*
X122160000Y-83451190D01*
X122207619Y-83498809D01*
X122255238Y-83594047D01*
X122255238Y-83736904D01*
X122207619Y-83832142D01*
X122160000Y-83879761D01*
X122064761Y-83927380D01*
X121683809Y-83927380D01*
X121683809Y-82927380D01*
X122017142Y-82927380D01*
X122112380Y-82975000D01*
X122160000Y-83022619D01*
X122207619Y-83117857D01*
X122207619Y-83213095D01*
X122160000Y-83308333D01*
X122112380Y-83355952D01*
X122017142Y-83403571D01*
X121683809Y-83403571D01*
X123112380Y-83927380D02*
X123112380Y-83403571D01*
X123064761Y-83308333D01*
X122969523Y-83260714D01*
X122779047Y-83260714D01*
X122683809Y-83308333D01*
X123112380Y-83879761D02*
X123017142Y-83927380D01*
X122779047Y-83927380D01*
X122683809Y-83879761D01*
X122636190Y-83784523D01*
X122636190Y-83689285D01*
X122683809Y-83594047D01*
X122779047Y-83546428D01*
X123017142Y-83546428D01*
X123112380Y-83498809D01*
X123588571Y-83927380D02*
X123588571Y-83260714D01*
X123588571Y-82927380D02*
X123540952Y-82975000D01*
X123588571Y-83022619D01*
X123636190Y-82975000D01*
X123588571Y-82927380D01*
X123588571Y-83022619D01*
X124445714Y-83879761D02*
X124350476Y-83927380D01*
X124160000Y-83927380D01*
X124064761Y-83879761D01*
X124017142Y-83784523D01*
X124017142Y-83403571D01*
X124064761Y-83308333D01*
X124160000Y-83260714D01*
X124350476Y-83260714D01*
X124445714Y-83308333D01*
X124493333Y-83403571D01*
X124493333Y-83498809D01*
X124017142Y-83594047D01*
X124921904Y-83927380D02*
X124921904Y-83260714D01*
X124921904Y-83451190D02*
X124969523Y-83355952D01*
X125017142Y-83308333D01*
X125112380Y-83260714D01*
X125207619Y-83260714D01*
X116302857Y-84632619D02*
X116350476Y-84585000D01*
X116445714Y-84537380D01*
X116683809Y-84537380D01*
X116779047Y-84585000D01*
X116826666Y-84632619D01*
X116874285Y-84727857D01*
X116874285Y-84823095D01*
X116826666Y-84965952D01*
X116255238Y-85537380D01*
X116874285Y-85537380D01*
X117493333Y-84537380D02*
X117588571Y-84537380D01*
X117683809Y-84585000D01*
X117731428Y-84632619D01*
X117779047Y-84727857D01*
X117826666Y-84918333D01*
X117826666Y-85156428D01*
X117779047Y-85346904D01*
X117731428Y-85442142D01*
X117683809Y-85489761D01*
X117588571Y-85537380D01*
X117493333Y-85537380D01*
X117398095Y-85489761D01*
X117350476Y-85442142D01*
X117302857Y-85346904D01*
X117255238Y-85156428D01*
X117255238Y-84918333D01*
X117302857Y-84727857D01*
X117350476Y-84632619D01*
X117398095Y-84585000D01*
X117493333Y-84537380D01*
X118207619Y-84632619D02*
X118255238Y-84585000D01*
X118350476Y-84537380D01*
X118588571Y-84537380D01*
X118683809Y-84585000D01*
X118731428Y-84632619D01*
X118779047Y-84727857D01*
X118779047Y-84823095D01*
X118731428Y-84965952D01*
X118160000Y-85537380D01*
X118779047Y-85537380D01*
X119160000Y-84632619D02*
X119207619Y-84585000D01*
X119302857Y-84537380D01*
X119540952Y-84537380D01*
X119636190Y-84585000D01*
X119683809Y-84632619D01*
X119731428Y-84727857D01*
X119731428Y-84823095D01*
X119683809Y-84965952D01*
X119112380Y-85537380D01*
X119731428Y-85537380D01*
X120160000Y-85156428D02*
X120921904Y-85156428D01*
X121588571Y-84537380D02*
X121683809Y-84537380D01*
X121779047Y-84585000D01*
X121826666Y-84632619D01*
X121874285Y-84727857D01*
X121921904Y-84918333D01*
X121921904Y-85156428D01*
X121874285Y-85346904D01*
X121826666Y-85442142D01*
X121779047Y-85489761D01*
X121683809Y-85537380D01*
X121588571Y-85537380D01*
X121493333Y-85489761D01*
X121445714Y-85442142D01*
X121398095Y-85346904D01*
X121350476Y-85156428D01*
X121350476Y-84918333D01*
X121398095Y-84727857D01*
X121445714Y-84632619D01*
X121493333Y-84585000D01*
X121588571Y-84537380D01*
X122779047Y-84870714D02*
X122779047Y-85537380D01*
X122540952Y-84489761D02*
X122302857Y-85204047D01*
X122921904Y-85204047D01*
X123302857Y-85156428D02*
X124064761Y-85156428D01*
X125064761Y-85537380D02*
X124493333Y-85537380D01*
X124779047Y-85537380D02*
X124779047Y-84537380D01*
X124683809Y-84680238D01*
X124588571Y-84775476D01*
X124493333Y-84823095D01*
X125445714Y-84632619D02*
X125493333Y-84585000D01*
X125588571Y-84537380D01*
X125826666Y-84537380D01*
X125921904Y-84585000D01*
X125969523Y-84632619D01*
X126017142Y-84727857D01*
X126017142Y-84823095D01*
X125969523Y-84965952D01*
X125398095Y-85537380D01*
X126017142Y-85537380D01*
D11*
X106071428Y-65318571D02*
X106428571Y-66818571D01*
X106714285Y-65747142D01*
X107000000Y-66818571D01*
X107357142Y-65318571D01*
X107857142Y-65461428D02*
X107928571Y-65390000D01*
X108071428Y-65318571D01*
X108428571Y-65318571D01*
X108571428Y-65390000D01*
X108642857Y-65461428D01*
X108714285Y-65604285D01*
X108714285Y-65747142D01*
X108642857Y-65961428D01*
X107785714Y-66818571D01*
X108714285Y-66818571D01*
X109285714Y-66390000D02*
X110000000Y-66390000D01*
X109142857Y-66818571D02*
X109642857Y-65318571D01*
X110142857Y-66818571D01*
X110642857Y-66032857D02*
X111142857Y-66032857D01*
X111357142Y-66818571D02*
X110642857Y-66818571D01*
X110642857Y-65318571D01*
X111357142Y-65318571D01*
X111857142Y-65318571D02*
X112214285Y-66818571D01*
X112500000Y-65747142D01*
X112785714Y-66818571D01*
X113142857Y-65318571D01*
X114857142Y-66818571D02*
X114857142Y-65318571D01*
X115428571Y-65318571D01*
X115571428Y-65390000D01*
X115642857Y-65461428D01*
X115714285Y-65604285D01*
X115714285Y-65818571D01*
X115642857Y-65961428D01*
X115571428Y-66032857D01*
X115428571Y-66104285D01*
X114857142Y-66104285D01*
X117000000Y-65818571D02*
X117000000Y-66818571D01*
X116357142Y-65818571D02*
X116357142Y-66604285D01*
X116428571Y-66747142D01*
X116571428Y-66818571D01*
X116785714Y-66818571D01*
X116928571Y-66747142D01*
X117000000Y-66675714D01*
X117928571Y-66818571D02*
X117785714Y-66747142D01*
X117714285Y-66604285D01*
X117714285Y-65318571D01*
X118428571Y-66747142D02*
X118571428Y-66818571D01*
X118857142Y-66818571D01*
X118999999Y-66747142D01*
X119071428Y-66604285D01*
X119071428Y-66532857D01*
X118999999Y-66390000D01*
X118857142Y-66318571D01*
X118642857Y-66318571D01*
X118499999Y-66247142D01*
X118428571Y-66104285D01*
X118428571Y-66032857D01*
X118499999Y-65890000D01*
X118642857Y-65818571D01*
X118857142Y-65818571D01*
X118999999Y-65890000D01*
X120285714Y-66747142D02*
X120142857Y-66818571D01*
X119857142Y-66818571D01*
X119714285Y-66747142D01*
X119642857Y-66604285D01*
X119642857Y-66032857D01*
X119714285Y-65890000D01*
X119857142Y-65818571D01*
X120142857Y-65818571D01*
X120285714Y-65890000D01*
X120357142Y-66032857D01*
X120357142Y-66175714D01*
X119642857Y-66318571D01*
X122928571Y-65390000D02*
X122785714Y-65318571D01*
X122571428Y-65318571D01*
X122357142Y-65390000D01*
X122214285Y-65532857D01*
X122142857Y-65675714D01*
X122071428Y-65961428D01*
X122071428Y-66175714D01*
X122142857Y-66461428D01*
X122214285Y-66604285D01*
X122357142Y-66747142D01*
X122571428Y-66818571D01*
X122714285Y-66818571D01*
X122928571Y-66747142D01*
X122999999Y-66675714D01*
X122999999Y-66175714D01*
X122714285Y-66175714D01*
X124214285Y-66747142D02*
X124071428Y-66818571D01*
X123785714Y-66818571D01*
X123642857Y-66747142D01*
X123571428Y-66604285D01*
X123571428Y-66032857D01*
X123642857Y-65890000D01*
X123785714Y-65818571D01*
X124071428Y-65818571D01*
X124214285Y-65890000D01*
X124285714Y-66032857D01*
X124285714Y-66175714D01*
X123571428Y-66318571D01*
X124928571Y-65818571D02*
X124928571Y-66818571D01*
X124928571Y-65961428D02*
X125000000Y-65890000D01*
X125142857Y-65818571D01*
X125357142Y-65818571D01*
X125500000Y-65890000D01*
X125571428Y-66032857D01*
X125571428Y-66818571D01*
X126857142Y-66747142D02*
X126714285Y-66818571D01*
X126428571Y-66818571D01*
X126285714Y-66747142D01*
X126214285Y-66604285D01*
X126214285Y-66032857D01*
X126285714Y-65890000D01*
X126428571Y-65818571D01*
X126714285Y-65818571D01*
X126857142Y-65890000D01*
X126928571Y-66032857D01*
X126928571Y-66175714D01*
X126214285Y-66318571D01*
X127571428Y-66818571D02*
X127571428Y-65818571D01*
X127571428Y-66104285D02*
X127642857Y-65961428D01*
X127714285Y-65890000D01*
X127857142Y-65818571D01*
X128000000Y-65818571D01*
X129142857Y-66818571D02*
X129142857Y-66032857D01*
X129071428Y-65890000D01*
X128928571Y-65818571D01*
X128642857Y-65818571D01*
X128500000Y-65890000D01*
X129142857Y-66747142D02*
X129000000Y-66818571D01*
X128642857Y-66818571D01*
X128500000Y-66747142D01*
X128428571Y-66604285D01*
X128428571Y-66461428D01*
X128500000Y-66318571D01*
X128642857Y-66247142D01*
X129000000Y-66247142D01*
X129142857Y-66175714D01*
X129642857Y-65818571D02*
X130214285Y-65818571D01*
X129857142Y-65318571D02*
X129857142Y-66604285D01*
X129928571Y-66747142D01*
X130071428Y-66818571D01*
X130214285Y-66818571D01*
X130928571Y-66818571D02*
X130785714Y-66747142D01*
X130714285Y-66675714D01*
X130642857Y-66532857D01*
X130642857Y-66104285D01*
X130714285Y-65961428D01*
X130785714Y-65890000D01*
X130928571Y-65818571D01*
X131142857Y-65818571D01*
X131285714Y-65890000D01*
X131357142Y-65961428D01*
X131428571Y-66104285D01*
X131428571Y-66532857D01*
X131357142Y-66675714D01*
X131285714Y-66747142D01*
X131142857Y-66818571D01*
X130928571Y-66818571D01*
X132071428Y-66818571D02*
X132071428Y-65818571D01*
X132071428Y-66104285D02*
X132142857Y-65961428D01*
X132214285Y-65890000D01*
X132357142Y-65818571D01*
X132500000Y-65818571D01*
D10*
%TO.C,C4*%
X116607142Y-82416666D02*
X116654761Y-82464285D01*
X116702380Y-82607142D01*
X116702380Y-82702380D01*
X116654761Y-82845238D01*
X116559523Y-82940476D01*
X116464285Y-82988095D01*
X116273809Y-83035714D01*
X116130952Y-83035714D01*
X115940476Y-82988095D01*
X115845238Y-82940476D01*
X115750000Y-82845238D01*
X115702380Y-82702380D01*
X115702380Y-82607142D01*
X115750000Y-82464285D01*
X115797619Y-82416666D01*
X116035714Y-81559523D02*
X116702380Y-81559523D01*
X115654761Y-81797619D02*
X116369047Y-82035714D01*
X116369047Y-81416666D01*
%TO.C,U2*%
X117752380Y-75761904D02*
X118561904Y-75761904D01*
X118657142Y-75714285D01*
X118704761Y-75666666D01*
X118752380Y-75571428D01*
X118752380Y-75380952D01*
X118704761Y-75285714D01*
X118657142Y-75238095D01*
X118561904Y-75190476D01*
X117752380Y-75190476D01*
X117847619Y-74761904D02*
X117800000Y-74714285D01*
X117752380Y-74619047D01*
X117752380Y-74380952D01*
X117800000Y-74285714D01*
X117847619Y-74238095D01*
X117942857Y-74190476D01*
X118038095Y-74190476D01*
X118180952Y-74238095D01*
X118752380Y-74809523D01*
X118752380Y-74190476D01*
%TO.C,R6*%
X119452980Y-80049666D02*
X118976790Y-80383000D01*
X119452980Y-80621095D02*
X118452980Y-80621095D01*
X118452980Y-80240142D01*
X118500600Y-80144904D01*
X118548219Y-80097285D01*
X118643457Y-80049666D01*
X118786314Y-80049666D01*
X118881552Y-80097285D01*
X118929171Y-80144904D01*
X118976790Y-80240142D01*
X118976790Y-80621095D01*
X118452980Y-79192523D02*
X118452980Y-79383000D01*
X118500600Y-79478238D01*
X118548219Y-79525857D01*
X118691076Y-79621095D01*
X118881552Y-79668714D01*
X119262504Y-79668714D01*
X119357742Y-79621095D01*
X119405361Y-79573476D01*
X119452980Y-79478238D01*
X119452980Y-79287761D01*
X119405361Y-79192523D01*
X119357742Y-79144904D01*
X119262504Y-79097285D01*
X119024409Y-79097285D01*
X118929171Y-79144904D01*
X118881552Y-79192523D01*
X118833933Y-79287761D01*
X118833933Y-79478238D01*
X118881552Y-79573476D01*
X118929171Y-79621095D01*
X119024409Y-79668714D01*
D12*
%TO.C,R7*%
X108046190Y-71653333D02*
X107808095Y-71820000D01*
X108046190Y-71939047D02*
X107546190Y-71939047D01*
X107546190Y-71748571D01*
X107570000Y-71700952D01*
X107593809Y-71677142D01*
X107641428Y-71653333D01*
X107712857Y-71653333D01*
X107760476Y-71677142D01*
X107784285Y-71700952D01*
X107808095Y-71748571D01*
X107808095Y-71939047D01*
X107546190Y-71486666D02*
X107546190Y-71153333D01*
X108046190Y-71367619D01*
D13*
%TO.C,X1*%
X133342954Y-69435961D02*
X134121887Y-70604361D01*
X134121887Y-69435961D02*
X133342954Y-70604361D01*
X135179011Y-70604361D02*
X134511354Y-70604361D01*
X134845182Y-70604361D02*
X134845182Y-69435961D01*
X134733906Y-69602876D01*
X134622630Y-69714152D01*
X134511354Y-69769790D01*
D10*
%TO.C,C2*%
X126807933Y-76844942D02*
X126760314Y-76892561D01*
X126617457Y-76940180D01*
X126522219Y-76940180D01*
X126379361Y-76892561D01*
X126284123Y-76797323D01*
X126236504Y-76702085D01*
X126188885Y-76511609D01*
X126188885Y-76368752D01*
X126236504Y-76178276D01*
X126284123Y-76083038D01*
X126379361Y-75987800D01*
X126522219Y-75940180D01*
X126617457Y-75940180D01*
X126760314Y-75987800D01*
X126807933Y-76035419D01*
X127188885Y-76035419D02*
X127236504Y-75987800D01*
X127331742Y-75940180D01*
X127569838Y-75940180D01*
X127665076Y-75987800D01*
X127712695Y-76035419D01*
X127760314Y-76130657D01*
X127760314Y-76225895D01*
X127712695Y-76368752D01*
X127141266Y-76940180D01*
X127760314Y-76940180D01*
%TO.C,R4*%
X124532980Y-80024266D02*
X124056790Y-80357600D01*
X124532980Y-80595695D02*
X123532980Y-80595695D01*
X123532980Y-80214742D01*
X123580600Y-80119504D01*
X123628219Y-80071885D01*
X123723457Y-80024266D01*
X123866314Y-80024266D01*
X123961552Y-80071885D01*
X124009171Y-80119504D01*
X124056790Y-80214742D01*
X124056790Y-80595695D01*
X123866314Y-79167123D02*
X124532980Y-79167123D01*
X123485361Y-79405219D02*
X124199647Y-79643314D01*
X124199647Y-79024266D01*
%TO.C,R3*%
X118357580Y-70044066D02*
X117881390Y-70377400D01*
X118357580Y-70615495D02*
X117357580Y-70615495D01*
X117357580Y-70234542D01*
X117405200Y-70139304D01*
X117452819Y-70091685D01*
X117548057Y-70044066D01*
X117690914Y-70044066D01*
X117786152Y-70091685D01*
X117833771Y-70139304D01*
X117881390Y-70234542D01*
X117881390Y-70615495D01*
X117357580Y-69710733D02*
X117357580Y-69091685D01*
X117738533Y-69425019D01*
X117738533Y-69282161D01*
X117786152Y-69186923D01*
X117833771Y-69139304D01*
X117929009Y-69091685D01*
X118167104Y-69091685D01*
X118262342Y-69139304D01*
X118309961Y-69186923D01*
X118357580Y-69282161D01*
X118357580Y-69567876D01*
X118309961Y-69663114D01*
X118262342Y-69710733D01*
%TO.C,USBC1*%
X106812380Y-77128095D02*
X107621904Y-77128095D01*
X107717142Y-77080476D01*
X107764761Y-77032857D01*
X107812380Y-76937619D01*
X107812380Y-76747142D01*
X107764761Y-76651904D01*
X107717142Y-76604285D01*
X107621904Y-76556666D01*
X106812380Y-76556666D01*
X107764761Y-76128095D02*
X107812380Y-75985238D01*
X107812380Y-75747142D01*
X107764761Y-75651904D01*
X107717142Y-75604285D01*
X107621904Y-75556666D01*
X107526666Y-75556666D01*
X107431428Y-75604285D01*
X107383809Y-75651904D01*
X107336190Y-75747142D01*
X107288571Y-75937619D01*
X107240952Y-76032857D01*
X107193333Y-76080476D01*
X107098095Y-76128095D01*
X107002857Y-76128095D01*
X106907619Y-76080476D01*
X106860000Y-76032857D01*
X106812380Y-75937619D01*
X106812380Y-75699523D01*
X106860000Y-75556666D01*
X107288571Y-74794761D02*
X107336190Y-74651904D01*
X107383809Y-74604285D01*
X107479047Y-74556666D01*
X107621904Y-74556666D01*
X107717142Y-74604285D01*
X107764761Y-74651904D01*
X107812380Y-74747142D01*
X107812380Y-75128095D01*
X106812380Y-75128095D01*
X106812380Y-74794761D01*
X106860000Y-74699523D01*
X106907619Y-74651904D01*
X107002857Y-74604285D01*
X107098095Y-74604285D01*
X107193333Y-74651904D01*
X107240952Y-74699523D01*
X107288571Y-74794761D01*
X107288571Y-75128095D01*
X107717142Y-73556666D02*
X107764761Y-73604285D01*
X107812380Y-73747142D01*
X107812380Y-73842380D01*
X107764761Y-73985238D01*
X107669523Y-74080476D01*
X107574285Y-74128095D01*
X107383809Y-74175714D01*
X107240952Y-74175714D01*
X107050476Y-74128095D01*
X106955238Y-74080476D01*
X106860000Y-73985238D01*
X106812380Y-73842380D01*
X106812380Y-73747142D01*
X106860000Y-73604285D01*
X106907619Y-73556666D01*
X107812380Y-72604285D02*
X107812380Y-73175714D01*
X107812380Y-72890000D02*
X106812380Y-72890000D01*
X106955238Y-72985238D01*
X107050476Y-73080476D01*
X107098095Y-73175714D01*
%TO.C,C3*%
X110357142Y-82416666D02*
X110404761Y-82464285D01*
X110452380Y-82607142D01*
X110452380Y-82702380D01*
X110404761Y-82845238D01*
X110309523Y-82940476D01*
X110214285Y-82988095D01*
X110023809Y-83035714D01*
X109880952Y-83035714D01*
X109690476Y-82988095D01*
X109595238Y-82940476D01*
X109500000Y-82845238D01*
X109452380Y-82702380D01*
X109452380Y-82607142D01*
X109500000Y-82464285D01*
X109547619Y-82416666D01*
X109452380Y-82083333D02*
X109452380Y-81464285D01*
X109833333Y-81797619D01*
X109833333Y-81654761D01*
X109880952Y-81559523D01*
X109928571Y-81511904D01*
X110023809Y-81464285D01*
X110261904Y-81464285D01*
X110357142Y-81511904D01*
X110404761Y-81559523D01*
X110452380Y-81654761D01*
X110452380Y-81940476D01*
X110404761Y-82035714D01*
X110357142Y-82083333D01*
%TO.C,R2*%
X120897580Y-70042066D02*
X120421390Y-70375400D01*
X120897580Y-70613495D02*
X119897580Y-70613495D01*
X119897580Y-70232542D01*
X119945200Y-70137304D01*
X119992819Y-70089685D01*
X120088057Y-70042066D01*
X120230914Y-70042066D01*
X120326152Y-70089685D01*
X120373771Y-70137304D01*
X120421390Y-70232542D01*
X120421390Y-70613495D01*
X119992819Y-69661114D02*
X119945200Y-69613495D01*
X119897580Y-69518257D01*
X119897580Y-69280161D01*
X119945200Y-69184923D01*
X119992819Y-69137304D01*
X120088057Y-69089685D01*
X120183295Y-69089685D01*
X120326152Y-69137304D01*
X120897580Y-69708733D01*
X120897580Y-69089685D01*
%TO.C,R5*%
X121967580Y-80049666D02*
X121491390Y-80383000D01*
X121967580Y-80621095D02*
X120967580Y-80621095D01*
X120967580Y-80240142D01*
X121015200Y-80144904D01*
X121062819Y-80097285D01*
X121158057Y-80049666D01*
X121300914Y-80049666D01*
X121396152Y-80097285D01*
X121443771Y-80144904D01*
X121491390Y-80240142D01*
X121491390Y-80621095D01*
X120967580Y-79144904D02*
X120967580Y-79621095D01*
X121443771Y-79668714D01*
X121396152Y-79621095D01*
X121348533Y-79525857D01*
X121348533Y-79287761D01*
X121396152Y-79192523D01*
X121443771Y-79144904D01*
X121539009Y-79097285D01*
X121777104Y-79097285D01*
X121872342Y-79144904D01*
X121919961Y-79192523D01*
X121967580Y-79287761D01*
X121967580Y-79525857D01*
X121919961Y-79621095D01*
X121872342Y-79668714D01*
%TO.C,D1*%
X104401904Y-69932380D02*
X104401904Y-68932380D01*
X104640000Y-68932380D01*
X104782857Y-68980000D01*
X104878095Y-69075238D01*
X104925714Y-69170476D01*
X104973333Y-69360952D01*
X104973333Y-69503809D01*
X104925714Y-69694285D01*
X104878095Y-69789523D01*
X104782857Y-69884761D01*
X104640000Y-69932380D01*
X104401904Y-69932380D01*
X105925714Y-69932380D02*
X105354285Y-69932380D01*
X105640000Y-69932380D02*
X105640000Y-68932380D01*
X105544761Y-69075238D01*
X105449523Y-69170476D01*
X105354285Y-69218095D01*
%TO.C,R1*%
X124648933Y-69640380D02*
X124315600Y-69164190D01*
X124077504Y-69640380D02*
X124077504Y-68640380D01*
X124458457Y-68640380D01*
X124553695Y-68688000D01*
X124601314Y-68735619D01*
X124648933Y-68830857D01*
X124648933Y-68973714D01*
X124601314Y-69068952D01*
X124553695Y-69116571D01*
X124458457Y-69164190D01*
X124077504Y-69164190D01*
X125601314Y-69640380D02*
X125029885Y-69640380D01*
X125315600Y-69640380D02*
X125315600Y-68640380D01*
X125220361Y-68783238D01*
X125125123Y-68878476D01*
X125029885Y-68926095D01*
%TO.C,C1*%
X127239733Y-71012342D02*
X127192114Y-71059961D01*
X127049257Y-71107580D01*
X126954019Y-71107580D01*
X126811161Y-71059961D01*
X126715923Y-70964723D01*
X126668304Y-70869485D01*
X126620685Y-70679009D01*
X126620685Y-70536152D01*
X126668304Y-70345676D01*
X126715923Y-70250438D01*
X126811161Y-70155200D01*
X126954019Y-70107580D01*
X127049257Y-70107580D01*
X127192114Y-70155200D01*
X127239733Y-70202819D01*
X128192114Y-71107580D02*
X127620685Y-71107580D01*
X127906400Y-71107580D02*
X127906400Y-70107580D01*
X127811161Y-70250438D01*
X127715923Y-70345676D01*
X127620685Y-70393295D01*
%TO.C,U1*%
X127488095Y-74202380D02*
X127488095Y-75011904D01*
X127535714Y-75107142D01*
X127583333Y-75154761D01*
X127678571Y-75202380D01*
X127869047Y-75202380D01*
X127964285Y-75154761D01*
X128011904Y-75107142D01*
X128059523Y-75011904D01*
X128059523Y-74202380D01*
X129059523Y-75202380D02*
X128488095Y-75202380D01*
X128773809Y-75202380D02*
X128773809Y-74202380D01*
X128678571Y-74345238D01*
X128583333Y-74440476D01*
X128488095Y-74488095D01*
D14*
%TO.C,C4*%
X114985000Y-80938748D02*
X114985000Y-81461252D01*
X113515000Y-80938748D02*
X113515000Y-81461252D01*
D10*
%TO.C,U2*%
X115330000Y-76370000D02*
X108670000Y-76370000D01*
X115330000Y-73430000D02*
X115330000Y-76370000D01*
X108670000Y-76370000D02*
X108670000Y-73430000D01*
X108670000Y-73430000D02*
X115330000Y-73430000D01*
D14*
%TO.C,R6*%
X117450600Y-79729359D02*
X117450600Y-80036641D01*
X118210600Y-79729359D02*
X118210600Y-80036641D01*
%TO.C,N1*%
G36*
X129384614Y-79307731D02*
G01*
X129468435Y-79752355D01*
X129777720Y-79879853D01*
X130087006Y-80007351D01*
X130458046Y-79755046D01*
X130561957Y-79684796D01*
X130655887Y-79622072D01*
X130735452Y-79569738D01*
X130796270Y-79530657D01*
X130833957Y-79507693D01*
X130844221Y-79502742D01*
X130862710Y-79515476D01*
X130902220Y-79550682D01*
X130958322Y-79603862D01*
X131026587Y-79670518D01*
X131102586Y-79746154D01*
X131181892Y-79826272D01*
X131260075Y-79906374D01*
X131332707Y-79981964D01*
X131395359Y-80048545D01*
X131443603Y-80101618D01*
X131473010Y-80136687D01*
X131480041Y-80148423D01*
X131469923Y-80170060D01*
X131441559Y-80217462D01*
X131397929Y-80285993D01*
X131342018Y-80371015D01*
X131276806Y-80467893D01*
X131239019Y-80523150D01*
X131170143Y-80624048D01*
X131108940Y-80715099D01*
X131058378Y-80791770D01*
X131021428Y-80849528D01*
X131001058Y-80883843D01*
X130997997Y-80891054D01*
X131004936Y-80911548D01*
X131023851Y-80959313D01*
X131051887Y-81027632D01*
X131086191Y-81109789D01*
X131123909Y-81199070D01*
X131162187Y-81288758D01*
X131198170Y-81372138D01*
X131229006Y-81442494D01*
X131251839Y-81493110D01*
X131263817Y-81517271D01*
X131264524Y-81518222D01*
X131283331Y-81522836D01*
X131333418Y-81533128D01*
X131409593Y-81548087D01*
X131506665Y-81566701D01*
X131619443Y-81587959D01*
X131685242Y-81600218D01*
X131805750Y-81623162D01*
X131914597Y-81644995D01*
X132006276Y-81664522D01*
X132075281Y-81680548D01*
X132116104Y-81691879D01*
X132124311Y-81695474D01*
X132132348Y-81719806D01*
X132138833Y-81774759D01*
X132143770Y-81853908D01*
X132147164Y-81950826D01*
X132149018Y-82059087D01*
X132149338Y-82172265D01*
X132148127Y-82283935D01*
X132145390Y-82387668D01*
X132141131Y-82477041D01*
X132135355Y-82545626D01*
X132128067Y-82586997D01*
X132123695Y-82595610D01*
X132097564Y-82605933D01*
X132042193Y-82620692D01*
X131964907Y-82638152D01*
X131873030Y-82656580D01*
X131840958Y-82662541D01*
X131686324Y-82690866D01*
X131564175Y-82713676D01*
X131470473Y-82731880D01*
X131401184Y-82746383D01*
X131352271Y-82758092D01*
X131319697Y-82767915D01*
X131299428Y-82776756D01*
X131287426Y-82785524D01*
X131285747Y-82787257D01*
X131268984Y-82815171D01*
X131243414Y-82869495D01*
X131211588Y-82943577D01*
X131176060Y-83030765D01*
X131139383Y-83124408D01*
X131104111Y-83217852D01*
X131072796Y-83304447D01*
X131047993Y-83377540D01*
X131032254Y-83430478D01*
X131028132Y-83456611D01*
X131028476Y-83457526D01*
X131042441Y-83478886D01*
X131074122Y-83525884D01*
X131120191Y-83593627D01*
X131177318Y-83677223D01*
X131242173Y-83771782D01*
X131260643Y-83798654D01*
X131326499Y-83896075D01*
X131384450Y-83984963D01*
X131431338Y-84060212D01*
X131464007Y-84116720D01*
X131479300Y-84149381D01*
X131480041Y-84153393D01*
X131467192Y-84174484D01*
X131431688Y-84216264D01*
X131378093Y-84274245D01*
X131310971Y-84343935D01*
X131234887Y-84420845D01*
X131154404Y-84500483D01*
X131074087Y-84578361D01*
X130998499Y-84649986D01*
X130932205Y-84710870D01*
X130879769Y-84756521D01*
X130845755Y-84782450D01*
X130836345Y-84786683D01*
X130814443Y-84776712D01*
X130769600Y-84749820D01*
X130709121Y-84710536D01*
X130662589Y-84678917D01*
X130578275Y-84620898D01*
X130478426Y-84552584D01*
X130378273Y-84484379D01*
X130324427Y-84447875D01*
X130142171Y-84324600D01*
X129989181Y-84407320D01*
X129919482Y-84443559D01*
X129860214Y-84471726D01*
X129820111Y-84487791D01*
X129809903Y-84490026D01*
X129797629Y-84473522D01*
X129773413Y-84426882D01*
X129739063Y-84354409D01*
X129696388Y-84260406D01*
X129647194Y-84149174D01*
X129593290Y-84025015D01*
X129536484Y-83892232D01*
X129478582Y-83755127D01*
X129421393Y-83618002D01*
X129366724Y-83485158D01*
X129316384Y-83360898D01*
X129272180Y-83249525D01*
X129235919Y-83155339D01*
X129209409Y-83082644D01*
X129194458Y-83035741D01*
X129192054Y-83019633D01*
X129211111Y-82999086D01*
X129252836Y-82965733D01*
X129308506Y-82926502D01*
X129313178Y-82923399D01*
X129457064Y-82808223D01*
X129573083Y-82673853D01*
X129660230Y-82524584D01*
X129717499Y-82364713D01*
X129743886Y-82198537D01*
X129738385Y-82030352D01*
X129699990Y-81864455D01*
X129627695Y-81705142D01*
X129606426Y-81670287D01*
X129495796Y-81529537D01*
X129365102Y-81416514D01*
X129218864Y-81331803D01*
X129061608Y-81275994D01*
X128897857Y-81249674D01*
X128732133Y-81253430D01*
X128568962Y-81287850D01*
X128412865Y-81353523D01*
X128268367Y-81451035D01*
X128223669Y-81490613D01*
X128109912Y-81614503D01*
X128027018Y-81744924D01*
X127970156Y-81891115D01*
X127938487Y-82035888D01*
X127930669Y-82198660D01*
X127956738Y-82362240D01*
X128014045Y-82521098D01*
X128099944Y-82669706D01*
X128211786Y-82802535D01*
X128346923Y-82914056D01*
X128364683Y-82925811D01*
X128420950Y-82964308D01*
X128463723Y-82997663D01*
X128484172Y-83018960D01*
X128484469Y-83019633D01*
X128480079Y-83042671D01*
X128462676Y-83094957D01*
X128434068Y-83172190D01*
X128396065Y-83270068D01*
X128350474Y-83384291D01*
X128299103Y-83510558D01*
X128243762Y-83644567D01*
X128186258Y-83782018D01*
X128128401Y-83918608D01*
X128071998Y-84050037D01*
X128018858Y-84172005D01*
X127970790Y-84280209D01*
X127929601Y-84370349D01*
X127897101Y-84438123D01*
X127875097Y-84479230D01*
X127866236Y-84490026D01*
X127839160Y-84481619D01*
X127788497Y-84459072D01*
X127722983Y-84426413D01*
X127686959Y-84407320D01*
X127533968Y-84324600D01*
X127351712Y-84447875D01*
X127258675Y-84511028D01*
X127156815Y-84580527D01*
X127061362Y-84645965D01*
X127013550Y-84678917D01*
X126946305Y-84724073D01*
X126889364Y-84759857D01*
X126850154Y-84781738D01*
X126837419Y-84786363D01*
X126818883Y-84773885D01*
X126777859Y-84739052D01*
X126718325Y-84685478D01*
X126644258Y-84616783D01*
X126559635Y-84536581D01*
X126506115Y-84485086D01*
X126412481Y-84393086D01*
X126331559Y-84310799D01*
X126266623Y-84241745D01*
X126220942Y-84189444D01*
X126197789Y-84157416D01*
X126195568Y-84150916D01*
X126205876Y-84126194D01*
X126234361Y-84076205D01*
X126277863Y-84006012D01*
X126333223Y-83920675D01*
X126397280Y-83825256D01*
X126415497Y-83798654D01*
X126481873Y-83701967D01*
X126541422Y-83614917D01*
X126590816Y-83542395D01*
X126626725Y-83489293D01*
X126645819Y-83460503D01*
X126647664Y-83457526D01*
X126644905Y-83434582D01*
X126630262Y-83384136D01*
X126606287Y-83312841D01*
X126575534Y-83227347D01*
X126540556Y-83134307D01*
X126503907Y-83040374D01*
X126468139Y-82952199D01*
X126435806Y-82876434D01*
X126409462Y-82819731D01*
X126391658Y-82788743D01*
X126390393Y-82787257D01*
X126379506Y-82778401D01*
X126361118Y-82769643D01*
X126331194Y-82760077D01*
X126285697Y-82748796D01*
X126220591Y-82734893D01*
X126131839Y-82717463D01*
X126015407Y-82695598D01*
X125867258Y-82668391D01*
X125835182Y-82662541D01*
X125740114Y-82644174D01*
X125657235Y-82626205D01*
X125593870Y-82610369D01*
X125557342Y-82598400D01*
X125552444Y-82595610D01*
X125544373Y-82570872D01*
X125537813Y-82515590D01*
X125532767Y-82436189D01*
X125529241Y-82339096D01*
X125527239Y-82230738D01*
X125526764Y-82117540D01*
X125527823Y-82005928D01*
X125530418Y-81902329D01*
X125534554Y-81813168D01*
X125540237Y-81744872D01*
X125547469Y-81703866D01*
X125551829Y-81695474D01*
X125576102Y-81687008D01*
X125631374Y-81673235D01*
X125712138Y-81655350D01*
X125812888Y-81634548D01*
X125928117Y-81612023D01*
X125990898Y-81600218D01*
X126110013Y-81577951D01*
X126216235Y-81557779D01*
X126304373Y-81540715D01*
X126369234Y-81527769D01*
X126405626Y-81519955D01*
X126411616Y-81518222D01*
X126421739Y-81498690D01*
X126443138Y-81451643D01*
X126472961Y-81383803D01*
X126508355Y-81301891D01*
X126546468Y-81212628D01*
X126584447Y-81122735D01*
X126619440Y-81038935D01*
X126648594Y-80967947D01*
X126669057Y-80916494D01*
X126677977Y-80891297D01*
X126678143Y-80890196D01*
X126668031Y-80870319D01*
X126639683Y-80824577D01*
X126596077Y-80757517D01*
X126540194Y-80673684D01*
X126475013Y-80577626D01*
X126437121Y-80522450D01*
X126368075Y-80421281D01*
X126306750Y-80329430D01*
X126256137Y-80251544D01*
X126219229Y-80192269D01*
X126199018Y-80156251D01*
X126196099Y-80148177D01*
X126208647Y-80129384D01*
X126243337Y-80089257D01*
X126295737Y-80032293D01*
X126361416Y-79962985D01*
X126435944Y-79885831D01*
X126514887Y-79805325D01*
X126593817Y-79725963D01*
X126668300Y-79652240D01*
X126733906Y-79588652D01*
X126786204Y-79539694D01*
X126820761Y-79509861D01*
X126832322Y-79502742D01*
X126851146Y-79512753D01*
X126896169Y-79540878D01*
X126963013Y-79584254D01*
X127047301Y-79640018D01*
X127144656Y-79705306D01*
X127218093Y-79755046D01*
X127589133Y-80007351D01*
X128207705Y-79752355D01*
X128291525Y-79307731D01*
X128375346Y-78863107D01*
X129300794Y-78863107D01*
X129384614Y-79307731D01*
G37*
D15*
X129384614Y-79307731D02*
X129468435Y-79752355D01*
X129777720Y-79879853D01*
X130087006Y-80007351D01*
X130458046Y-79755046D01*
X130561957Y-79684796D01*
X130655887Y-79622072D01*
X130735452Y-79569738D01*
X130796270Y-79530657D01*
X130833957Y-79507693D01*
X130844221Y-79502742D01*
X130862710Y-79515476D01*
X130902220Y-79550682D01*
X130958322Y-79603862D01*
X131026587Y-79670518D01*
X131102586Y-79746154D01*
X131181892Y-79826272D01*
X131260075Y-79906374D01*
X131332707Y-79981964D01*
X131395359Y-80048545D01*
X131443603Y-80101618D01*
X131473010Y-80136687D01*
X131480041Y-80148423D01*
X131469923Y-80170060D01*
X131441559Y-80217462D01*
X131397929Y-80285993D01*
X131342018Y-80371015D01*
X131276806Y-80467893D01*
X131239019Y-80523150D01*
X131170143Y-80624048D01*
X131108940Y-80715099D01*
X131058378Y-80791770D01*
X131021428Y-80849528D01*
X131001058Y-80883843D01*
X130997997Y-80891054D01*
X131004936Y-80911548D01*
X131023851Y-80959313D01*
X131051887Y-81027632D01*
X131086191Y-81109789D01*
X131123909Y-81199070D01*
X131162187Y-81288758D01*
X131198170Y-81372138D01*
X131229006Y-81442494D01*
X131251839Y-81493110D01*
X131263817Y-81517271D01*
X131264524Y-81518222D01*
X131283331Y-81522836D01*
X131333418Y-81533128D01*
X131409593Y-81548087D01*
X131506665Y-81566701D01*
X131619443Y-81587959D01*
X131685242Y-81600218D01*
X131805750Y-81623162D01*
X131914597Y-81644995D01*
X132006276Y-81664522D01*
X132075281Y-81680548D01*
X132116104Y-81691879D01*
X132124311Y-81695474D01*
X132132348Y-81719806D01*
X132138833Y-81774759D01*
X132143770Y-81853908D01*
X132147164Y-81950826D01*
X132149018Y-82059087D01*
X132149338Y-82172265D01*
X132148127Y-82283935D01*
X132145390Y-82387668D01*
X132141131Y-82477041D01*
X132135355Y-82545626D01*
X132128067Y-82586997D01*
X132123695Y-82595610D01*
X132097564Y-82605933D01*
X132042193Y-82620692D01*
X131964907Y-82638152D01*
X131873030Y-82656580D01*
X131840958Y-82662541D01*
X131686324Y-82690866D01*
X131564175Y-82713676D01*
X131470473Y-82731880D01*
X131401184Y-82746383D01*
X131352271Y-82758092D01*
X131319697Y-82767915D01*
X131299428Y-82776756D01*
X131287426Y-82785524D01*
X131285747Y-82787257D01*
X131268984Y-82815171D01*
X131243414Y-82869495D01*
X131211588Y-82943577D01*
X131176060Y-83030765D01*
X131139383Y-83124408D01*
X131104111Y-83217852D01*
X131072796Y-83304447D01*
X131047993Y-83377540D01*
X131032254Y-83430478D01*
X131028132Y-83456611D01*
X131028476Y-83457526D01*
X131042441Y-83478886D01*
X131074122Y-83525884D01*
X131120191Y-83593627D01*
X131177318Y-83677223D01*
X131242173Y-83771782D01*
X131260643Y-83798654D01*
X131326499Y-83896075D01*
X131384450Y-83984963D01*
X131431338Y-84060212D01*
X131464007Y-84116720D01*
X131479300Y-84149381D01*
X131480041Y-84153393D01*
X131467192Y-84174484D01*
X131431688Y-84216264D01*
X131378093Y-84274245D01*
X131310971Y-84343935D01*
X131234887Y-84420845D01*
X131154404Y-84500483D01*
X131074087Y-84578361D01*
X130998499Y-84649986D01*
X130932205Y-84710870D01*
X130879769Y-84756521D01*
X130845755Y-84782450D01*
X130836345Y-84786683D01*
X130814443Y-84776712D01*
X130769600Y-84749820D01*
X130709121Y-84710536D01*
X130662589Y-84678917D01*
X130578275Y-84620898D01*
X130478426Y-84552584D01*
X130378273Y-84484379D01*
X130324427Y-84447875D01*
X130142171Y-84324600D01*
X129989181Y-84407320D01*
X129919482Y-84443559D01*
X129860214Y-84471726D01*
X129820111Y-84487791D01*
X129809903Y-84490026D01*
X129797629Y-84473522D01*
X129773413Y-84426882D01*
X129739063Y-84354409D01*
X129696388Y-84260406D01*
X129647194Y-84149174D01*
X129593290Y-84025015D01*
X129536484Y-83892232D01*
X129478582Y-83755127D01*
X129421393Y-83618002D01*
X129366724Y-83485158D01*
X129316384Y-83360898D01*
X129272180Y-83249525D01*
X129235919Y-83155339D01*
X129209409Y-83082644D01*
X129194458Y-83035741D01*
X129192054Y-83019633D01*
X129211111Y-82999086D01*
X129252836Y-82965733D01*
X129308506Y-82926502D01*
X129313178Y-82923399D01*
X129457064Y-82808223D01*
X129573083Y-82673853D01*
X129660230Y-82524584D01*
X129717499Y-82364713D01*
X129743886Y-82198537D01*
X129738385Y-82030352D01*
X129699990Y-81864455D01*
X129627695Y-81705142D01*
X129606426Y-81670287D01*
X129495796Y-81529537D01*
X129365102Y-81416514D01*
X129218864Y-81331803D01*
X129061608Y-81275994D01*
X128897857Y-81249674D01*
X128732133Y-81253430D01*
X128568962Y-81287850D01*
X128412865Y-81353523D01*
X128268367Y-81451035D01*
X128223669Y-81490613D01*
X128109912Y-81614503D01*
X128027018Y-81744924D01*
X127970156Y-81891115D01*
X127938487Y-82035888D01*
X127930669Y-82198660D01*
X127956738Y-82362240D01*
X128014045Y-82521098D01*
X128099944Y-82669706D01*
X128211786Y-82802535D01*
X128346923Y-82914056D01*
X128364683Y-82925811D01*
X128420950Y-82964308D01*
X128463723Y-82997663D01*
X128484172Y-83018960D01*
X128484469Y-83019633D01*
X128480079Y-83042671D01*
X128462676Y-83094957D01*
X128434068Y-83172190D01*
X128396065Y-83270068D01*
X128350474Y-83384291D01*
X128299103Y-83510558D01*
X128243762Y-83644567D01*
X128186258Y-83782018D01*
X128128401Y-83918608D01*
X128071998Y-84050037D01*
X128018858Y-84172005D01*
X127970790Y-84280209D01*
X127929601Y-84370349D01*
X127897101Y-84438123D01*
X127875097Y-84479230D01*
X127866236Y-84490026D01*
X127839160Y-84481619D01*
X127788497Y-84459072D01*
X127722983Y-84426413D01*
X127686959Y-84407320D01*
X127533968Y-84324600D01*
X127351712Y-84447875D01*
X127258675Y-84511028D01*
X127156815Y-84580527D01*
X127061362Y-84645965D01*
X127013550Y-84678917D01*
X126946305Y-84724073D01*
X126889364Y-84759857D01*
X126850154Y-84781738D01*
X126837419Y-84786363D01*
X126818883Y-84773885D01*
X126777859Y-84739052D01*
X126718325Y-84685478D01*
X126644258Y-84616783D01*
X126559635Y-84536581D01*
X126506115Y-84485086D01*
X126412481Y-84393086D01*
X126331559Y-84310799D01*
X126266623Y-84241745D01*
X126220942Y-84189444D01*
X126197789Y-84157416D01*
X126195568Y-84150916D01*
X126205876Y-84126194D01*
X126234361Y-84076205D01*
X126277863Y-84006012D01*
X126333223Y-83920675D01*
X126397280Y-83825256D01*
X126415497Y-83798654D01*
X126481873Y-83701967D01*
X126541422Y-83614917D01*
X126590816Y-83542395D01*
X126626725Y-83489293D01*
X126645819Y-83460503D01*
X126647664Y-83457526D01*
X126644905Y-83434582D01*
X126630262Y-83384136D01*
X126606287Y-83312841D01*
X126575534Y-83227347D01*
X126540556Y-83134307D01*
X126503907Y-83040374D01*
X126468139Y-82952199D01*
X126435806Y-82876434D01*
X126409462Y-82819731D01*
X126391658Y-82788743D01*
X126390393Y-82787257D01*
X126379506Y-82778401D01*
X126361118Y-82769643D01*
X126331194Y-82760077D01*
X126285697Y-82748796D01*
X126220591Y-82734893D01*
X126131839Y-82717463D01*
X126015407Y-82695598D01*
X125867258Y-82668391D01*
X125835182Y-82662541D01*
X125740114Y-82644174D01*
X125657235Y-82626205D01*
X125593870Y-82610369D01*
X125557342Y-82598400D01*
X125552444Y-82595610D01*
X125544373Y-82570872D01*
X125537813Y-82515590D01*
X125532767Y-82436189D01*
X125529241Y-82339096D01*
X125527239Y-82230738D01*
X125526764Y-82117540D01*
X125527823Y-82005928D01*
X125530418Y-81902329D01*
X125534554Y-81813168D01*
X125540237Y-81744872D01*
X125547469Y-81703866D01*
X125551829Y-81695474D01*
X125576102Y-81687008D01*
X125631374Y-81673235D01*
X125712138Y-81655350D01*
X125812888Y-81634548D01*
X125928117Y-81612023D01*
X125990898Y-81600218D01*
X126110013Y-81577951D01*
X126216235Y-81557779D01*
X126304373Y-81540715D01*
X126369234Y-81527769D01*
X126405626Y-81519955D01*
X126411616Y-81518222D01*
X126421739Y-81498690D01*
X126443138Y-81451643D01*
X126472961Y-81383803D01*
X126508355Y-81301891D01*
X126546468Y-81212628D01*
X126584447Y-81122735D01*
X126619440Y-81038935D01*
X126648594Y-80967947D01*
X126669057Y-80916494D01*
X126677977Y-80891297D01*
X126678143Y-80890196D01*
X126668031Y-80870319D01*
X126639683Y-80824577D01*
X126596077Y-80757517D01*
X126540194Y-80673684D01*
X126475013Y-80577626D01*
X126437121Y-80522450D01*
X126368075Y-80421281D01*
X126306750Y-80329430D01*
X126256137Y-80251544D01*
X126219229Y-80192269D01*
X126199018Y-80156251D01*
X126196099Y-80148177D01*
X126208647Y-80129384D01*
X126243337Y-80089257D01*
X126295737Y-80032293D01*
X126361416Y-79962985D01*
X126435944Y-79885831D01*
X126514887Y-79805325D01*
X126593817Y-79725963D01*
X126668300Y-79652240D01*
X126733906Y-79588652D01*
X126786204Y-79539694D01*
X126820761Y-79509861D01*
X126832322Y-79502742D01*
X126851146Y-79512753D01*
X126896169Y-79540878D01*
X126963013Y-79584254D01*
X127047301Y-79640018D01*
X127144656Y-79705306D01*
X127218093Y-79755046D01*
X127589133Y-80007351D01*
X128207705Y-79752355D01*
X128291525Y-79307731D01*
X128375346Y-78863107D01*
X129300794Y-78863107D01*
X129384614Y-79307731D01*
D14*
%TO.C,R7*%
X109110000Y-71873641D02*
X109110000Y-71566359D01*
X108350000Y-71873641D02*
X108350000Y-71566359D01*
D16*
%TO.C,X1*%
X142221150Y-77804600D02*
X142221150Y-72004600D01*
X142221150Y-77804600D02*
X142521150Y-78304600D01*
X142521150Y-71504600D02*
X144621150Y-71504600D01*
X142521150Y-78304600D02*
X144621150Y-78304600D01*
X138221150Y-72004600D02*
X142221150Y-72004600D01*
X137121150Y-73804600D02*
X137121150Y-76004600D01*
X144921150Y-72004600D02*
X145521150Y-72004600D01*
X135021150Y-78104600D02*
X132821150Y-78104600D01*
X138221150Y-77804600D02*
X142221150Y-77804600D01*
X142221150Y-72004600D02*
X142521150Y-71504600D01*
X144621150Y-78304600D02*
X144921150Y-77804600D01*
X130721150Y-76004600D02*
X130721150Y-73804600D01*
X145521150Y-77804600D02*
X145521150Y-72004600D01*
X144921150Y-77804600D02*
X145521150Y-77804600D01*
X144621150Y-71504600D02*
X144921150Y-72004600D01*
X144921150Y-77804600D02*
X144921150Y-72004600D01*
X132821150Y-71704600D02*
X135021150Y-71704600D01*
X135621150Y-74904600D02*
G75*
G03*
X135621150Y-74904600I-1700000J0D01*
G01*
D14*
%TO.C,C2*%
X126866764Y-78007800D02*
X127082436Y-78007800D01*
X126866764Y-77287800D02*
X127082436Y-77287800D01*
%TO.C,R4*%
X123290600Y-79703959D02*
X123290600Y-80011241D01*
X122530600Y-79703959D02*
X122530600Y-80011241D01*
%TO.C,R3*%
X119455200Y-70031041D02*
X119455200Y-69723759D01*
X118695200Y-70031041D02*
X118695200Y-69723759D01*
D17*
%TO.C,USBC1*%
X97874600Y-80107900D02*
X97874600Y-71167900D01*
X101594600Y-80107900D02*
X103454600Y-80107900D01*
X101594600Y-71167900D02*
X103454600Y-71167900D01*
X97874600Y-80107900D02*
X99354600Y-80107900D01*
X97874600Y-71167900D02*
X99354600Y-71167900D01*
D14*
%TO.C,C3*%
X111265000Y-81511252D02*
X111265000Y-80988748D01*
X112735000Y-81511252D02*
X112735000Y-80988748D01*
%TO.C,R2*%
X121235200Y-70029041D02*
X121235200Y-69721759D01*
X121995200Y-70029041D02*
X121995200Y-69721759D01*
%TO.C,R5*%
X120725200Y-79729359D02*
X120725200Y-80036641D01*
X119965200Y-79729359D02*
X119965200Y-80036641D01*
%TO.C,D1*%
X106485000Y-68975000D02*
X106485000Y-70445000D01*
X108770000Y-68975000D02*
X106485000Y-68975000D01*
X106485000Y-70445000D02*
X108770000Y-70445000D01*
%TO.C,R1*%
X124661959Y-69978000D02*
X124969241Y-69978000D01*
X124661959Y-70738000D02*
X124969241Y-70738000D01*
%TO.C,C1*%
X127265820Y-72595200D02*
X127546980Y-72595200D01*
X127265820Y-71575200D02*
X127546980Y-71575200D01*
D10*
%TO.C,U1*%
X126015200Y-76399200D02*
X117215200Y-76399200D01*
X117215200Y-76399200D02*
X117215200Y-73359200D01*
X117215200Y-73359200D02*
X126015200Y-73359200D01*
X126015200Y-73359200D02*
X126015200Y-76399200D01*
D11*
X125575200Y-74109200D02*
G75*
G03*
X125575200Y-74109200I-150000J0D01*
G01*
X126794400Y-73761600D02*
G75*
G03*
X126794400Y-73761600I-150000J0D01*
G01*
%TD*%
M02*
